<svg width="22" height="22" viewBox="0 0 22 22" fill="none" xmlns="http://www.w3.org/2000/svg">
<path d="M17.3364 3.38562V5.02875C17.3364 5.12812 17.4211 5.2097 17.5253 5.2097C17.6284 5.2097 17.7131 5.12812 17.7131 5.02875V1.61701C17.7131 0.724843 16.963 0.00104425 16.037 0H1.67829C0.751229 0 0 0.723772 0 1.61701V11.7615C0.00108549 12.6526 0.751201 13.3753 1.67609 13.3764H9.60496C9.70809 13.3764 9.79276 13.2948 9.79276 13.1954C9.79276 13.095 9.70809 13.0134 9.60496 13.0134H1.67832C0.961853 13.0124 0.379978 12.4528 0.378894 11.7615V3.39408L17.3364 3.38562ZM0.378735 1.61695C0.378735 0.925606 0.96061 0.363934 1.67816 0.361846H16.0369C16.7555 0.363938 17.3363 0.925606 17.3363 1.61695V3.01116L0.378624 3.0122L0.378735 1.61695ZM2.23722 0.922447C1.91479 0.923493 1.62388 1.11176 1.50122 1.40044C1.37855 1.68807 1.44694 2.01859 1.67599 2.23823C1.90505 2.45787 2.24808 2.52272 2.54661 2.40348C2.84513 2.28425 3.03944 2.00394 3.03944 1.69227C3.03727 1.26659 2.67903 0.922447 2.23722 0.922447ZM2.23722 2.10015C2.06678 2.0991 1.91371 1.99869 1.8486 1.84599C1.78455 1.69433 1.82146 1.51965 1.94195 1.40357C2.06354 1.28748 2.24481 1.25296 2.40222 1.31676C2.55963 1.37952 2.66275 1.52804 2.66275 1.69224C2.66275 1.80101 2.61824 1.90456 2.53791 1.98195C2.45758 2.0583 2.35011 2.10015 2.23722 2.10015ZM4.71773 0.922447C4.39531 0.923493 4.10439 1.11176 3.98173 1.40044C3.85906 1.68807 3.92853 2.01859 4.15759 2.23823C4.38556 2.45787 4.72968 2.52272 5.02712 2.40348C5.32565 2.28425 5.51996 2.00394 5.51996 1.69227C5.51887 1.26659 5.15954 0.922447 4.71773 0.922447ZM4.71773 2.10015C4.5473 2.0991 4.39422 1.99869 4.33019 1.84599C4.26506 1.69433 4.30197 1.51965 4.42355 1.40357C4.54405 1.28748 4.72533 1.25296 4.88381 1.31676C5.04122 1.37952 5.14326 1.52804 5.14326 1.69224C5.14326 1.80101 5.09875 1.90456 5.01842 1.98195C4.93918 2.0583 4.83062 2.10015 4.71773 2.10015ZM7.20149 0.922447C6.87907 0.922447 6.58707 1.11071 6.46332 1.39833C6.33957 1.68595 6.40796 2.01647 6.63701 2.23716C6.86498 2.4568 7.20911 2.52269 7.50763 2.40346C7.80615 2.28422 8.00046 2.00391 8.00046 1.69224C7.99938 1.26761 7.64222 0.924535 7.20149 0.922447ZM7.20149 2.10015C7.03106 2.10015 6.8769 2.00079 6.81179 1.84808C6.74557 1.69642 6.78248 1.52069 6.90297 1.40462C7.02347 1.28852 7.20583 1.25296 7.36324 1.31676C7.52173 1.37952 7.62486 1.52804 7.62486 1.69224C7.62486 1.80101 7.58035 1.90456 7.50111 1.98091C7.42186 2.05725 7.31438 2.10015 7.20149 2.10015ZM20.313 9.30656V10.1433C20.313 10.2437 20.3966 10.3253 20.5008 10.3253C20.605 10.3253 20.6886 10.2437 20.6886 10.1433V7.53581C20.6875 6.64469 19.9374 5.92196 19.0125 5.92092H12.1583C11.2334 5.92196 10.4833 6.64469 10.4822 7.53581V17.6939C10.4898 18.5809 11.2378 19.2963 12.1583 19.2973H13.7996C13.9028 19.2973 13.9874 19.2168 13.9874 19.1164C13.9874 19.016 13.9028 18.9355 13.7996 18.9355H12.1583C11.4418 18.9386 10.8578 18.3842 10.8491 17.6939V9.32657L20.313 9.30656ZM10.849 7.53581C10.8501 7.20216 10.989 6.88315 11.2343 6.64782C11.4797 6.41353 11.8119 6.28175 12.1582 6.28383H19.0124C19.7299 6.28488 20.3107 6.84446 20.3129 7.53581V8.94466H10.8489L10.849 7.53581ZM15.4811 22H21.2303C21.4344 22.001 21.6298 21.9236 21.7742 21.7845C21.9197 21.6465 22 21.4582 22 21.2616V11.6191C22 11.4236 21.9197 11.2353 21.7753 11.0962C21.632 10.9581 21.4366 10.8797 21.2336 10.8797H15.4757C15.0513 10.8797 14.7071 11.2102 14.705 11.6191V21.2616C14.7071 21.6695 15.0513 22 15.4757 22L15.4811 22ZM15.0848 11.6191C15.0838 11.5187 15.125 11.4225 15.1977 11.3524C15.2716 11.2813 15.3714 11.2415 15.4756 11.2426H21.2302C21.3333 11.2426 21.4332 11.2823 21.507 11.3524C21.5797 11.4235 21.621 11.5197 21.621 11.6191V21.2615C21.6199 21.4686 21.4451 21.636 21.2302 21.638H15.4757C15.2596 21.638 15.0849 21.4686 15.0849 21.2615L15.0848 11.6191ZM15.9533 20.6277V12.2604C15.9533 12.161 16.0369 12.0794 16.1411 12.0794H17.1311C17.1756 12.0805 17.2191 12.0962 17.2527 12.1244L17.8313 12.5794H18.9223L19.5009 12.1244H19.502C19.5345 12.0962 19.5769 12.0794 19.6203 12.0794H20.6103C20.7145 12.0794 20.7992 12.161 20.7992 12.2604V20.6277C20.7992 20.7281 20.7145 20.8097 20.6103 20.8097C20.5072 20.8097 20.4225 20.7281 20.4225 20.6277V12.4309H19.6529L19.0743 12.888H19.0732C19.0395 12.9152 18.9961 12.9298 18.9516 12.9298H17.7358C17.6924 12.9309 17.65 12.9162 17.6175 12.888L17.0389 12.4309H16.318V20.6277C16.318 20.7281 16.2334 20.8097 16.1291 20.8097C16.026 20.8097 15.9413 20.7281 15.9413 20.6277H15.9533ZM12.5337 6.84446C12.2113 6.84551 11.9204 7.03377 11.7977 7.32139C11.675 7.609 11.7445 7.93953 11.9735 8.15917C12.2015 8.37881 12.5456 8.44366 12.8431 8.32443C13.1416 8.20519 13.3359 7.92488 13.3359 7.61426C13.3348 7.18858 12.9755 6.84446 12.5337 6.84446ZM12.5337 8.02112C12.3633 8.02007 12.2102 7.91966 12.1461 7.768C12.081 7.6153 12.1179 7.44062 12.2395 7.32454C12.36 7.20949 12.5413 7.17498 12.6998 7.23773C12.8572 7.30153 12.9592 7.44901 12.9592 7.61425C12.9592 7.72198 12.9147 7.82657 12.8344 7.90292C12.7551 7.97927 12.6466 8.02216 12.5337 8.02112ZM15.0174 6.84446C14.695 6.84446 14.403 7.03168 14.2793 7.3193C14.1555 7.60692 14.2239 7.93849 14.453 8.15813C14.6809 8.37882 15.0251 8.44471 15.3236 8.32547C15.6221 8.20624 15.8164 7.92488 15.8164 7.61426C15.8153 7.18963 15.4582 6.84551 15.0174 6.84446ZM15.0174 8.02112C14.847 8.02112 14.6929 7.92175 14.6277 7.77009C14.5615 7.61739 14.5984 7.44271 14.7189 7.32557C14.8394 7.20947 15.0218 7.17495 15.1792 7.23771C15.3377 7.30047 15.4408 7.44898 15.4408 7.61423C15.4408 7.8391 15.2508 8.02112 15.0174 8.02112Z" fill="#006FC9"/>
</svg>
