<svg width="88" height="88" viewBox="0 0 88 88" fill="none" xmlns="http://www.w3.org/2000/svg">
<circle cx="44.0005" cy="44" r="41.5" stroke="#006FC9"/>
<path d="M46.2325 13.1934L47.5658 4.77835L52.8518 5.61584L52.6941 6.61142L48.4273 5.93542L47.9973 8.64957L52.1219 9.30304L51.9679 10.2749L47.8433 9.62144L47.4096 12.3593L51.7712 13.0503L51.6134 14.0459L46.2325 13.1934ZM52.432 14.2166L56.6257 11.3046L55.6486 6.32714L56.7834 6.78605L57.5547 10.8L60.8772 8.44173L61.9897 8.89165L57.8362 11.7682L58.8398 16.8081L57.7051 16.3492L56.9295 12.2817L53.5445 14.6666L52.432 14.2166ZM59.7778 17.4762L64.7916 10.5877L67.2657 12.3884C68.0354 12.9487 68.4995 13.5685 68.658 14.2479C68.8166 14.9273 68.6581 15.5936 68.1826 16.2469C67.8625 16.6867 67.4877 16.9977 67.0583 17.1799C66.6335 17.3556 66.1789 17.3957 65.6942 17.3002C65.2096 17.2048 64.7118 16.9711 64.2009 16.5991L62.5612 15.4057L60.6121 18.0835L59.7778 17.4762ZM63.1544 14.5907L64.794 15.7842C65.3115 16.1608 65.7796 16.3333 66.1984 16.3017C66.6237 16.2748 66.994 16.0447 67.3094 15.6113C67.6154 15.1909 67.7135 14.7775 67.6037 14.371C67.5003 13.9692 67.1899 13.58 66.6725 13.2034L65.0328 12.01L63.1544 14.5907ZM65.8996 22.2375L72.3272 16.6449L73.0046 17.4234L66.9392 22.7009L66.9988 21.9651L70.1338 25.5681L69.3733 26.2298L65.8996 22.2375ZM71.1858 30.2243C70.8182 29.5048 70.6582 28.8049 70.706 28.1247C70.7645 27.448 71.0184 26.8196 71.4677 26.2397C71.917 25.6597 72.5513 25.1604 73.3706 24.7418C74.1898 24.3233 74.9661 24.1018 75.6993 24.0775C76.4397 24.0496 77.1012 24.2102 77.6839 24.5593C78.2701 24.9156 78.7471 25.4535 79.1148 26.173C79.486 26.8996 79.6424 27.6013 79.5839 28.278C79.5291 28.9619 79.2734 29.5956 78.817 30.1792C78.3676 30.7591 77.7333 31.2584 76.9141 31.677C76.0948 32.0956 75.3186 32.317 74.5853 32.3413C73.8521 32.3656 73.1923 32.1996 72.606 31.8434C72.0305 31.4906 71.5571 30.9509 71.1858 30.2243ZM72.0834 29.7656C72.3528 30.2928 72.7032 30.6797 73.1347 30.9264C73.5698 31.1802 74.0663 31.2904 74.6242 31.2569C75.182 31.2234 75.7815 31.0429 76.4227 30.7153C77.0638 30.3877 77.5614 30.0077 77.9154 29.5752C78.2766 29.1392 78.4818 28.6705 78.5311 28.1691C78.5911 27.6713 78.4865 27.1588 78.2171 26.6316C77.9514 26.1116 77.5974 25.7265 77.1552 25.4763C76.7237 25.2296 76.2254 25.1248 75.6605 25.162C75.1026 25.1954 74.5031 25.376 73.862 25.7036C73.2208 26.0312 72.7232 26.4112 72.3692 26.8436C72.0152 27.2761 71.8117 27.7394 71.7588 28.2336C71.7095 28.7349 71.8177 29.2456 72.0834 29.7656ZM73.5113 34.9977L81.8552 33.2746L82.508 36.4358C82.6294 37.0234 82.6319 37.5498 82.5156 38.015C82.3992 38.4801 82.1726 38.8659 81.8356 39.1724C81.5081 39.4851 81.0858 39.6948 80.5687 39.8016C80.1926 39.8793 79.8371 39.8588 79.5022 39.7401C79.1767 39.6276 78.8995 39.452 78.6705 39.2134C78.4415 38.9748 78.2884 38.7082 78.2113 38.4137L78.3025 38.3214C78.4076 38.8306 78.3726 39.2545 78.1975 39.5929C78.0239 39.9392 77.6834 40.1892 77.1761 40.343L74.7684 41.0853L74.5573 40.0628L76.864 39.3659C77.2023 39.2634 77.431 39.0854 77.5502 38.8321C77.6711 38.5866 77.6813 38.2209 77.581 37.7352L77.0811 35.3143L73.72 36.0084L73.5113 34.9977ZM78.0682 35.1104L78.5391 37.3903C78.6442 37.8995 78.8568 38.2763 79.1769 38.5207C79.4969 38.765 79.8959 38.8378 80.3738 38.7391C80.8595 38.6388 81.2001 38.4092 81.3956 38.0502C81.5988 37.6896 81.6406 37.2195 81.5209 36.6397L81.0767 34.4891L78.0682 35.1104ZM74.8646 42.8901L83.3763 43.2666L83.1398 48.6133L82.1328 48.5688L82.3237 44.253L79.5783 44.1316L79.3938 48.3035L78.4108 48.26L78.5953 44.0881L75.826 43.9656L75.6309 48.3773L74.6239 48.3327L74.8646 42.8901ZM73.5175 52.9326L81.2768 56.4515L80.6821 57.763L72.825 57.1907L78.4369 62.7136L77.8421 64.0251L70.0828 60.5061L70.509 59.5663L76.5198 62.2922L71.5152 57.3477L72.0851 56.0909L79.102 56.5984L73.0913 53.8724L73.5175 52.9326ZM66.603 64.4772C67.1446 63.8776 67.7418 63.4791 68.3944 63.2817C69.0477 63.0956 69.7253 63.1093 70.4271 63.3229C71.129 63.5365 71.8213 63.9516 72.504 64.5683C73.1867 65.185 73.6698 65.8317 73.9534 66.5083C74.243 67.1903 74.3282 67.8656 74.2093 68.5344C74.0849 69.2091 73.752 69.8462 73.2103 70.4458C72.6634 71.0513 72.0632 71.4471 71.41 71.6333C70.7514 71.8253 70.0682 71.8119 69.3603 71.5929C68.6585 71.3794 67.9662 70.9642 67.2835 70.3475C66.6008 69.7308 66.1176 69.0842 65.834 68.4075C65.5505 67.7309 65.4708 67.0553 65.5952 66.3806C65.7201 65.7172 66.056 65.0827 66.603 64.4772ZM67.351 65.1529C66.9542 65.5922 66.7172 66.0574 66.6402 66.5484C66.5578 67.0454 66.6315 67.5486 66.8613 68.058C67.0911 68.5674 67.4731 69.0635 68.0074 69.5461C68.5417 70.0287 69.0739 70.3585 69.604 70.5355C70.14 70.7179 70.6511 70.7429 71.1371 70.6106C71.6238 70.4896 72.0655 70.2094 72.4623 69.7701C72.8538 69.3367 73.0878 68.8689 73.1642 68.3666C73.2412 67.8755 73.1619 67.3726 72.9261 66.8578C72.6964 66.3484 72.3143 65.8524 71.78 65.3697C71.2458 64.8871 70.7136 64.5573 70.1835 64.3803C69.6534 64.2033 69.148 64.178 68.6673 64.3044C68.1812 64.4367 67.7425 64.7195 67.351 65.1529ZM62.9622 68.3526L67.5224 75.5495L64.7957 77.2772C64.2889 77.5984 63.7974 77.7867 63.3211 77.8422C62.8449 77.8978 62.4039 77.8221 61.9981 77.6151C61.5898 77.4192 61.2444 77.0982 60.9618 76.6522C60.7563 76.3279 60.6499 75.9881 60.6426 75.6328C60.6328 75.2885 60.6991 74.9672 60.8414 74.6686C60.9837 74.3701 61.179 74.1327 61.4272 73.9565L61.5458 74.0092C61.1066 74.2875 60.6977 74.4045 60.3192 74.3602C59.934 74.3202 59.5798 74.09 59.2566 73.6697L57.7115 71.6797L58.5934 71.1209L60.0604 73.0326C60.2759 73.3128 60.5231 73.4639 60.8023 73.4859C61.0746 73.5122 61.4203 73.3926 61.8393 73.1271L63.9274 71.804L62.0905 68.905L62.9622 68.3526ZM64.4669 72.6555L62.5005 73.9015C62.0612 74.1798 61.7838 74.5118 61.6684 74.8976C61.5529 75.2833 61.6257 75.6822 61.8869 76.0945C62.1524 76.5134 62.4876 76.7509 62.8924 76.8069C63.3015 76.8697 63.7561 76.7426 64.2562 76.4258L66.1112 75.2504L64.4669 72.6555ZM56.0595 72.4158L58.7784 80.4903L53.7062 82.1983L53.3846 81.243L57.4787 79.8644L56.6017 77.26L52.6441 78.5927L52.3301 77.6601L56.2877 76.3275L55.4031 73.7004L51.218 75.1097L50.8964 74.1544L56.0595 72.4158ZM50.1101 77.4303L50.2238 78.3715L46.2805 78.8482L46.1668 77.907L50.1101 77.4303ZM44.1849 74.8854L43.551 83.3817L38.2138 82.9835L38.2888 81.9783L42.5969 82.2998L42.8013 79.5594L38.6369 79.2487L38.7101 78.2674L42.8745 78.5781L43.0808 75.8138L38.677 75.4852L38.752 74.48L44.1849 74.8854ZM37.9207 74.3759L33.9556 77.5923L35.3008 82.4831L34.135 82.11L33.0668 78.1647L29.9292 80.764L28.7863 80.3982L32.7139 77.2202L31.3376 72.269L32.5034 72.6421L33.5798 76.6405L36.7778 74.0101L37.9207 74.3759ZM30.3484 71.6783L25.9062 78.9486L23.295 77.3532C22.4827 76.8568 21.9701 76.2764 21.7573 75.612C21.5445 74.9476 21.6487 74.2707 22.07 73.5812C22.3536 73.117 22.7021 72.7768 23.1155 72.5606C23.5247 72.3512 23.9746 72.2746 24.4654 72.3307C24.9561 72.3867 25.4711 72.5795 26.0104 72.9091L27.7409 73.9664L29.4678 71.1402L30.3484 71.6783ZM27.2154 74.8266L25.4849 73.7692C24.9387 73.4355 24.4582 73.3013 24.0433 73.3666C23.6216 73.4277 23.2711 73.6869 22.9916 74.1443C22.7205 74.588 22.656 75.008 22.7983 75.4043C22.9337 75.7964 23.2745 76.1593 23.8206 76.493L25.5511 77.5504L27.2154 74.8266ZM23.8607 67.4241L17.9009 73.5126L17.1634 72.7907L22.7875 67.0452L22.7869 67.7835L19.3739 64.4426L20.079 63.7222L23.8607 67.4241ZM17.96 59.8773C18.3822 60.5662 18.5959 61.2515 18.601 61.9334C18.595 62.6126 18.3905 63.2587 17.9875 63.8717C17.5844 64.4847 16.9907 65.0316 16.2063 65.5124C15.4219 65.9932 14.6651 66.274 13.936 66.355C13.2 66.4402 12.528 66.3313 11.9201 66.0283C11.3079 65.7186 10.7908 65.2192 10.3685 64.5303C9.9421 63.8346 9.73185 63.1471 9.73777 62.4679C9.73952 61.7819 9.94534 61.1303 10.3552 60.5131C10.7583 59.9001 11.352 59.3532 12.1364 58.8724C12.9208 58.3916 13.6776 58.1108 14.4067 58.0298C15.1359 57.9488 15.8065 58.0632 16.4187 58.373C17.0198 58.6801 17.5336 59.1816 17.96 59.8773ZM17.1006 60.404C16.7912 59.8993 16.4119 59.5407 15.9626 59.3281C15.5091 59.1088 15.0056 59.0374 14.452 59.114C13.8984 59.1905 13.3147 59.417 12.7008 59.7932C12.0869 60.1695 11.6203 60.5869 11.3008 61.0454C10.9745 61.5081 10.8062 61.9913 10.7959 62.495C10.7745 62.996 10.9186 63.4988 11.2279 64.0036C11.5331 64.5015 11.9159 64.858 12.3762 65.0732C12.8255 65.2857 13.3303 65.3516 13.8907 65.2709C14.4443 65.1943 15.028 64.9679 15.6419 64.5916C16.2558 64.2153 16.7224 63.7979 17.0419 63.3394C17.3614 62.8809 17.5283 62.4032 17.5429 61.9064C17.5532 61.4027 17.4058 60.9019 17.1006 60.404ZM15.2683 55.2918L7.08221 57.6536L6.1874 54.5521C6.02107 53.9756 5.97796 53.451 6.05806 52.9783C6.13815 52.5055 6.33436 52.1034 6.64669 51.7718C6.94911 51.4348 7.35398 51.1931 7.86129 51.0467C8.23024 50.9402 8.58626 50.9333 8.92935 51.0258C9.26254 51.1129 9.55249 51.2665 9.79921 51.4867C10.0459 51.707 10.2191 51.9609 10.3188 52.2486L10.2349 52.3477C10.0908 51.8481 10.093 51.4228 10.2415 51.0719C10.3879 50.7132 10.708 50.4377 11.202 50.2452L13.5452 49.3194L13.8346 50.3225L11.5885 51.1953C11.2592 51.3236 11.0449 51.5187 10.9456 51.7805C10.844 52.0346 10.862 52.3999 10.9995 52.8765L11.6847 55.2516L14.9822 54.3002L15.2683 55.2918ZM10.7162 55.531L10.0709 53.2943C9.92677 52.7946 9.68573 52.4354 9.34781 52.2165C9.00988 51.9976 8.60648 51.9557 8.13761 52.091C7.66105 52.2285 7.33918 52.4837 7.17202 52.8567C6.99716 53.2319 6.99179 53.7039 7.15589 54.2727L7.76464 56.3826L10.7162 55.531ZM13.3107 47.5253L4.79507 47.7971L4.62435 42.4478L5.63183 42.4156L5.76964 46.7334L8.51624 46.6458L8.38303 42.4719L9.36653 42.4405L9.49974 46.6144L12.2703 46.526L12.1295 42.1122L13.1369 42.0801L13.3107 47.5253ZM13.8834 37.4081L5.87521 34.4995L6.3668 33.146L14.2446 33.1091L8.22255 28.0366L8.71414 26.6831L16.7223 29.5916L16.37 30.5616L10.1665 28.3085L15.5384 32.8513L15.0673 34.1484L8.03217 34.1849L14.2357 36.4381L13.8834 37.4081ZM19.8733 25.361C19.3814 26.002 18.8181 26.447 18.1833 26.6961C17.5471 26.9339 16.8706 26.9745 16.1539 26.8178C15.4371 26.6611 14.7138 26.3027 13.984 25.7427C13.2541 25.1826 12.7207 24.5767 12.3838 23.925C12.0406 23.2684 11.9015 22.602 11.9666 21.9259C12.0365 21.2434 12.3173 20.5817 12.8092 19.9406C13.306 19.2932 13.8725 18.8506 14.5087 18.6128C15.1498 18.3686 15.8319 18.3273 16.555 18.4889C17.2717 18.6456 17.995 19.0039 18.7249 19.564C19.4548 20.124 19.9882 20.7299 20.325 21.3817C20.6619 22.0334 20.7954 22.7005 20.7255 23.383C20.6541 24.0543 20.37 24.7136 19.8733 25.361ZM19.0736 24.7473C19.434 24.2777 19.6329 23.795 19.6703 23.2994C19.7127 22.7974 19.5989 22.3018 19.3291 21.8124C19.0592 21.323 18.6387 20.8591 18.0675 20.4208C17.4962 19.9825 16.9394 19.6964 16.3968 19.5624C15.8479 19.4236 15.3365 19.4396 14.8626 19.6104C14.3872 19.7699 13.9693 20.0846 13.6089 20.5542C13.2534 21.0176 13.0577 21.5026 13.0217 22.0095C12.9843 22.5051 13.1036 23 13.3798 23.4943C13.6497 23.9837 14.0702 24.4475 14.6414 24.8858C15.2126 25.3242 15.7695 25.6103 16.3121 25.7443C16.8546 25.8782 17.3604 25.863 17.8295 25.6985C18.3034 25.5277 18.7181 25.2107 19.0736 24.7473ZM23.19 21.2092L18.0684 14.4005L20.648 12.46C21.1275 12.0993 21.6024 11.8723 22.0727 11.7788C22.5429 11.6853 22.9886 11.7255 23.4097 11.8993C23.8323 12.0619 24.2023 12.3542 24.5197 12.7762C24.7505 13.083 24.8838 13.4132 24.9195 13.7668C24.9568 14.1091 24.9164 14.4348 24.7985 14.7438C24.6805 15.0527 24.5049 15.305 24.2715 15.5005L24.1491 15.4575C24.5646 15.1449 24.9628 14.9955 25.3436 15.0094C25.7309 15.0184 26.1023 15.2195 26.4581 15.6126L28.1575 17.4726L27.3232 18.1002L25.7079 16.3121C25.4707 16.05 25.2121 15.9192 24.9321 15.9196C24.6585 15.9152 24.3235 16.062 23.9271 16.3602L21.9516 17.8462L24.0147 20.5889L23.19 21.2092ZM21.3457 17.0406L23.2061 15.6412C23.6217 15.3286 23.8716 14.9755 23.9558 14.5818C24.0401 14.188 23.9355 13.7962 23.6422 13.4062C23.344 13.0098 22.9909 12.7999 22.5829 12.7765C22.17 12.7467 21.7271 12.9097 21.254 13.2656L19.499 14.5856L21.3457 17.0406ZM29.7487 16.6095L26.4241 8.76493L31.3518 6.6765L31.7452 7.60459L27.7676 9.29032L28.84 11.8205L32.6849 10.1909L33.0689 11.0969L29.2239 12.7265L30.3056 15.2787L34.3715 13.5555L34.7649 14.4836L29.7487 16.6095Z" fill="#006FC9"/>
</svg>
