<svg width="22" height="26" viewBox="0 0 22 26" fill="none" xmlns="http://www.w3.org/2000/svg">
<path d="M10.995 4.32292e-05C10.8514 4.32292e-05 10.7195 0.0812925 10.6507 0.210275L9.64118 2.13181L7.56123 2.53907H7.56221C7.41955 2.5665 7.30444 2.6711 7.25918 2.81329C7.21491 2.95446 7.24934 3.10985 7.34773 3.21853L8.80489 4.80493L8.53531 6.97326C8.5176 7.12052 8.57958 7.26575 8.69568 7.35309C8.81178 7.43941 8.96526 7.45465 9.09415 7.39066L11.0069 6.45121L12.9196 7.38559L12.9205 7.38661C13.0504 7.44958 13.2049 7.43434 13.321 7.34598C13.4381 7.25864 13.4981 7.11138 13.4784 6.96309L13.2029 4.79577L14.6532 3.20531L14.6522 3.2043C14.7506 3.09664 14.784 2.94227 14.7397 2.80109C14.6945 2.65992 14.5794 2.55532 14.4387 2.52789L12.3577 2.12773L11.3414 0.211258C11.2715 0.0802421 11.1387 -0.000973362 10.995 4.32292e-05ZM10.996 1.25432L11.7565 2.68837C11.8136 2.79501 11.914 2.87016 12.031 2.89251L13.5856 3.19007L12.5013 4.38037V4.37935C12.4197 4.46873 12.3813 4.5906 12.3961 4.71145L12.6017 6.33136L11.1721 5.63262H11.1731C11.0658 5.58082 10.9419 5.58082 10.8356 5.63465L9.40896 6.33745L9.60771 4.71754V4.71652C9.62345 4.59566 9.58508 4.47379 9.50342 4.38443L8.41523 3.19819L9.97077 2.89552C10.0869 2.87318 10.1872 2.79701 10.2423 2.68935L10.996 1.25432ZM3.75353 6.06324C3.61086 6.06426 3.47903 6.14449 3.41015 6.27449L2.40067 8.19501L0.320722 8.60329C0.180026 8.63071 0.0639338 8.73532 0.0196538 8.87649C-0.025606 9.01868 0.0088309 9.17305 0.107221 9.28172L1.56438 10.8691L1.2948 13.0365V13.0375C1.27709 13.1837 1.33809 13.33 1.45419 13.4173C1.57127 13.5036 1.72377 13.5189 1.85364 13.4549L3.76634 12.5144L5.67905 13.4488V13.4498C5.8099 13.5138 5.96339 13.4986 6.08049 13.4102C6.19659 13.3218 6.25661 13.1746 6.23693 13.0263L5.96142 10.859L7.41168 9.26852C7.51007 9.16086 7.54352 9.00548 7.49925 8.8643C7.45497 8.72414 7.33887 8.61852 7.19818 8.59109L5.11725 8.19093L4.09989 6.27446H4.10087C4.03102 6.14345 3.89816 6.06324 3.75353 6.06324ZM18.2354 6.06324C18.0918 6.06426 17.9599 6.14449 17.892 6.27449L16.8826 8.19501L14.8026 8.60329C14.6609 8.63071 14.5449 8.73532 14.5006 8.87649C14.4563 9.01868 14.4897 9.17305 14.5891 9.28172L16.0463 10.8691L15.7767 13.0365V13.0375C15.758 13.1837 15.819 13.33 15.9361 13.4173C16.0522 13.5036 16.2057 13.5189 16.3355 13.4549L18.2482 12.5144L20.1609 13.4488V13.4498C20.2908 13.5138 20.4453 13.4986 20.5614 13.4102C20.6785 13.3218 20.7385 13.1746 20.7188 13.0263L20.4433 10.859L21.8936 9.26852C21.9919 9.16086 22.0254 9.00548 21.9801 8.8643C21.9359 8.72313 21.8198 8.61852 21.6791 8.59109L19.5991 8.19093L18.5818 6.27446C18.5129 6.14345 18.3791 6.06324 18.2354 6.06324ZM3.75454 7.31752L4.51508 8.75156H4.51606C4.57313 8.8582 4.67349 8.93336 4.78958 8.9557L6.34414 9.25327L5.25988 10.4446V10.4436C5.1792 10.5329 5.14083 10.6538 5.15559 10.7746L5.36123 12.3946L3.93162 11.6968H3.93261C3.82536 11.645 3.70139 11.645 3.59514 11.6978L2.16848 12.4017L2.36723 10.7807C2.38199 10.6589 2.34362 10.537 2.26294 10.4486L1.17475 9.26138L2.73029 8.95973V8.96075C2.84639 8.93637 2.94675 8.8602 3.00184 8.75255L3.75454 7.31752ZM18.2355 7.31752L18.996 8.75156H18.998C19.055 8.8582 19.1554 8.93336 19.2715 8.9557L20.826 9.25327L19.7418 10.4446V10.4436C19.6611 10.5329 19.6227 10.6538 19.6375 10.7746L19.8431 12.3946L18.4135 11.6968C18.3063 11.645 18.1823 11.645 18.0761 11.6978L16.6494 12.4017L16.8481 10.7807C16.8639 10.6589 16.8255 10.537 16.7439 10.4486L15.6557 9.26138L17.2102 8.95973V8.96075C17.3273 8.93739 17.4277 8.8602 17.4837 8.75255L18.2355 7.31752ZM10.999 7.85985C9.51827 7.85985 8.30898 9.10295 8.30898 10.6275C8.30898 11.5548 8.75664 12.3795 9.44144 12.8812C8.42016 13.2884 7.58876 14.0857 7.12339 15.0993H7.10962C5.62886 15.0993 4.4168 16.3424 4.4168 17.867C4.4168 18.7952 4.86645 19.6199 5.55221 20.1226C3.95634 20.7635 2.82489 22.359 2.82489 24.2277V25.5917H2.82587C2.82489 25.7004 2.86621 25.804 2.94099 25.8802C3.01478 25.9573 3.11514 26 3.22042 26C3.32471 25.999 3.42507 25.9563 3.49789 25.8791C3.57168 25.803 3.613 25.6994 3.613 25.5917V24.2277C3.613 22.2321 5.1656 20.6356 7.11082 20.6356C9.05604 20.6356 10.6086 22.2322 10.6086 24.2277V25.5917C10.6077 25.7816 10.7346 25.9462 10.9136 25.9888C10.9422 25.9959 10.9717 26 11.0012 26C11.1055 26 11.2049 25.9563 11.2787 25.8801C11.3525 25.803 11.3938 25.7004 11.3928 25.5917V24.2277C11.3928 22.232 12.9454 20.6356 14.8906 20.6356C16.8358 20.6356 18.3884 22.2321 18.3884 24.2277V25.5917C18.3884 25.7004 18.4298 25.8029 18.5026 25.8801C18.5764 25.9563 18.6767 26 18.781 26C18.8853 26 18.9866 25.9573 19.0604 25.8812C19.1342 25.804 19.1765 25.7004 19.1756 25.5917V24.2277C19.1756 22.359 18.0441 20.7635 16.4482 20.1226C17.134 19.6199 17.5836 18.7952 17.5836 17.8669C17.5836 16.3425 16.3715 15.0993 14.8908 15.0993H14.878C14.4126 14.0867 13.5803 13.2894 12.56 12.8812C13.2438 12.3784 13.6925 11.5548 13.6925 10.6275C13.6925 9.10307 12.4832 7.85983 11.0024 7.85983L10.999 7.85985ZM10.999 8.67234C12.0567 8.67234 12.9019 9.54375 12.9019 10.6274C12.9019 11.711 12.0567 12.5835 10.999 12.5835C9.94134 12.5835 9.09617 11.711 9.09617 10.6274C9.09617 9.54375 9.94233 8.67234 10.999 8.67234ZM10.999 13.396C12.3224 13.396 13.4617 14.1364 14.0561 15.2363C12.9807 15.5988 12.1994 16.6419 12.1994 17.8677C12.1994 18.796 12.6471 19.6196 13.3329 20.1224C12.2998 20.5368 11.4625 21.3533 11.0001 22.3841C10.5377 21.3533 9.69937 20.5378 8.66629 20.1224C9.3511 19.6196 9.79974 18.796 9.79974 17.8677C9.79974 16.6419 9.01852 15.5988 7.94313 15.2363C8.53741 14.1363 9.67675 13.396 11.0002 13.396H10.999ZM7.10878 15.9117C7.17175 15.9117 7.23276 15.9147 7.29376 15.9208H7.29573C7.31934 15.9259 7.34394 15.9279 7.36853 15.9289C8.30224 16.0569 9.01359 16.8724 9.01359 17.8667C9.01359 18.9504 8.16842 19.8218 7.11074 19.8218C6.05305 19.8218 5.20493 18.9504 5.20493 17.8667C5.20493 16.7831 6.05305 15.9117 7.11074 15.9117L7.10878 15.9117ZM14.8885 15.9117C15.9462 15.9117 16.7943 16.7831 16.7943 17.8667C16.7943 18.9504 15.9452 19.8218 14.8885 19.8218C13.8308 19.8218 12.9857 18.9504 12.9857 17.8667C12.9857 16.8724 13.698 16.0569 14.6317 15.9289H14.6347C14.6583 15.9289 14.6829 15.9259 14.7065 15.9218C14.7675 15.9157 14.8285 15.9127 14.8905 15.9127L14.8885 15.9117Z" fill="#006FC9"/>
</svg>
