<svg width="33" height="31" viewBox="0 0 33 31" fill="none" xmlns="http://www.w3.org/2000/svg">
<path d="M2.54898 0C1.14657 0 0 1.07236 0 2.38329V20.677C0 21.9879 1.14657 23.0592 2.54898 23.0592H10.0626C10.1841 23.1895 10.311 23.3174 10.4437 23.4414C13.0791 25.9058 17.0845 26.3269 20.1885 24.7052L25.2897 29.4801C26.1529 30.2873 27.5678 30.2873 28.431 29.4801C29.2942 28.6729 29.2942 27.3484 28.431 26.5412L24.7086 23.0592H30.451C31.8534 23.0592 33 21.9879 33 20.677V2.38329C33 1.07236 31.8534 0 30.451 0H2.54898ZM2.54898 1.06444H30.451C31.2424 1.06444 31.8622 1.64277 31.8622 2.38329V5.19339H1.13782V2.38329C1.13782 1.64277 1.75758 1.06444 2.54898 1.06444ZM4.42793 2.43521C4.03207 2.44486 3.70568 2.75569 3.70568 3.12788C3.70568 3.50597 4.04249 3.82365 4.44682 3.82365C4.85114 3.82365 5.19129 3.50597 5.19129 3.12788C5.19129 2.74979 4.85114 2.43521 4.44682 2.43521C4.44056 2.43521 4.43418 2.43506 4.42793 2.43521ZM7.80471 2.43521C7.40886 2.44486 7.08246 2.75569 7.08246 3.12788C7.08246 3.50597 7.41927 3.82365 7.82359 3.82365C8.22792 3.82365 8.56807 3.50597 8.56807 3.12788C8.56807 2.74979 8.22792 2.43521 7.82359 2.43521C7.81734 2.43521 7.81096 2.43506 7.80471 2.43521ZM11.1815 2.43521C10.7856 2.44486 10.4592 2.75569 10.4592 3.12788C10.4592 3.50597 10.7972 3.82365 11.2015 3.82365C11.6058 3.82365 11.9448 3.50597 11.9448 3.12788C11.9448 2.74979 11.6058 2.43521 11.2015 2.43521C11.1952 2.43521 11.1877 2.43506 11.1815 2.43521ZM1.13782 6.25678H31.8622V20.677C31.8622 21.4175 31.2424 21.9958 30.451 21.9958H23.5719L23.3275 21.7674C24.664 19.5272 24.7002 16.7849 23.4352 14.5178L27.4609 10.689L27.4065 12.148C27.4014 12.2884 27.4559 12.4249 27.5581 12.5278C27.6603 12.6307 27.8019 12.6917 27.952 12.6974C28.0271 12.7003 28.1021 12.6893 28.1726 12.665C28.2431 12.6407 28.3078 12.6035 28.3628 12.5557C28.4179 12.5079 28.4623 12.4504 28.4934 12.3865C28.5246 12.3226 28.5419 12.2535 28.5443 12.1833L28.6498 9.36182C28.652 9.29688 28.6415 9.23211 28.6187 9.17073C28.616 9.16304 28.613 9.15542 28.6099 9.14786C28.6067 9.14016 28.6034 9.13254 28.5998 9.12499C28.5994 9.12425 28.5991 9.12351 28.5987 9.12278C28.5919 9.10864 28.5845 9.09479 28.5764 9.08126C28.5749 9.07917 28.5734 9.0771 28.5719 9.07503C28.5686 9.06975 28.5653 9.06453 28.5618 9.05936C28.56 9.05659 28.5581 9.05385 28.5562 9.05112C28.5558 9.05076 28.5566 9.05147 28.5562 9.05112C28.554 9.04761 28.5507 9.04306 28.5484 9.0396C28.5455 9.03608 28.5426 9.0326 28.5396 9.02915C28.5374 9.02672 28.5352 9.02431 28.5329 9.02192C28.5293 9.01704 28.5256 9.01221 28.5217 9.00745C28.5199 9.00536 28.518 9.00328 28.5161 9.00122C28.5118 8.99632 28.5074 8.9915 28.5028 8.98675C28.4963 8.98003 28.4897 8.97346 28.4828 8.96706C28.4824 8.96632 28.4821 8.96558 28.4817 8.96485C28.4795 8.96342 28.4772 8.96202 28.475 8.96063C28.4413 8.92972 28.4036 8.90286 28.3628 8.88067C28.3613 8.88031 28.3598 8.87995 28.3583 8.8796C28.3183 8.85862 28.2758 8.84223 28.2316 8.83079C28.2257 8.82929 28.2197 8.82789 28.2138 8.82657C28.1734 8.81715 28.132 8.81189 28.0904 8.81089C28.0834 8.81077 28.0764 8.81077 28.0694 8.81089C28.0668 8.81088 28.0642 8.81088 28.0616 8.81089L24.9826 8.90954C24.8325 8.91522 24.6909 8.97618 24.5887 9.0791C24.4864 9.18202 24.4319 9.31855 24.437 9.45889C24.4395 9.52873 24.4566 9.59743 24.4875 9.66107C24.5184 9.72471 24.5624 9.78204 24.6169 9.82978C24.6715 9.87752 24.7357 9.91474 24.8057 9.9393C24.8756 9.96387 24.9501 9.9753 25.0248 9.97294L26.6738 9.92099L22.8192 13.5868C22.5679 13.2616 22.2866 12.951 21.9736 12.6584C18.7946 9.68565 13.6223 9.68565 10.4432 12.6584C7.73919 15.187 7.33493 19.0637 9.23098 21.9953H2.54846C1.75706 21.9953 1.1373 21.417 1.1373 20.6764L1.13782 6.25678ZM16.2083 11.4865C18.0026 11.4865 19.7974 12.1277 21.1696 13.4108C21.4865 13.7072 21.7659 14.0243 22.0096 14.3579L18.6173 17.5844L16.7183 15.5075C16.6653 15.4494 16.5994 15.4027 16.5253 15.3706C16.4512 15.3385 16.3705 15.3216 16.2888 15.3212C16.2071 15.3208 16.1263 15.3369 16.0518 15.3683C15.9773 15.3997 15.9109 15.4457 15.8572 15.5033L12.116 19.5149C12.0169 19.6211 11.967 19.7597 11.9772 19.9003C11.9874 20.0409 12.0569 20.1719 12.1704 20.2646C12.284 20.3572 12.4324 20.4039 12.5828 20.3944C12.7332 20.3848 12.8734 20.3199 12.9727 20.2138L16.2817 16.6653L18.1506 18.7184C18.2019 18.7746 18.2652 18.8203 18.3364 18.8525C18.4076 18.8846 18.4852 18.9025 18.5642 18.9051C18.6433 18.9076 18.722 18.8947 18.7955 18.8672C18.8689 18.8397 18.9353 18.7982 18.9906 18.7454L22.5919 15.3205C23.5647 17.3061 23.42 19.6488 22.1585 21.5285C22.1407 21.5505 22.1247 21.5737 22.1107 21.598C21.8443 21.9841 21.5314 22.3501 21.1696 22.6884C20.8032 23.031 20.4059 23.3273 19.9873 23.5784C19.9764 23.5846 19.9656 23.5912 19.9551 23.5981C17.2421 25.2063 13.6166 24.9032 11.2482 22.6884C11.0868 22.5376 10.935 22.3812 10.7926 22.2201C10.7858 22.2123 10.7787 22.2046 10.7715 22.1972C8.51353 19.6177 8.67291 15.8189 11.2482 13.4107C12.6203 12.1276 14.414 11.4865 16.2083 11.4865ZM22.6885 22.6771L27.6287 27.2941C28.0602 27.6977 28.0602 28.3237 27.6287 28.7272C27.1972 29.1307 26.5279 29.1307 26.0964 28.7272L21.1563 24.1091C21.4404 23.9059 21.7143 23.6843 21.9741 23.4414C22.2336 23.1987 22.4714 22.9426 22.6885 22.6771Z" fill="#006FC9"/>
</svg>
