<svg width="32" height="32" viewBox="0 0 32 32" fill="none" xmlns="http://www.w3.org/2000/svg">
<path fill-rule="evenodd" clip-rule="evenodd" d="M9.21307 18.7387C9.26619 18.7138 9.324 18.6998 9.38649 18.6998L9.21307 18.7387ZM20.67 5.51309L17.7358 3.82724C17.6858 3.79924 17.6327 3.78369 17.5796 3.78369C17.5265 3.78369 17.4733 3.79769 17.4233 3.82568C17.3733 3.85523 17.3327 3.89255 17.3077 3.93765V3.93921C17.2827 3.9812 17.2702 4.03408 17.2702 4.09473V7.49128C17.2702 7.55038 17.2843 7.60481 17.3077 7.6468L17.3155 7.66235C17.3405 7.70123 17.3765 7.73389 17.4233 7.76033C17.4733 7.78832 17.5265 7.80387 17.5796 7.80387C17.6327 7.80387 17.6858 7.78988 17.7358 7.76033L20.6903 6.06361C20.7418 6.03406 20.7825 5.99517 20.8075 5.95163C20.8325 5.90809 20.845 5.85521 20.845 5.79456C20.845 5.7339 20.8309 5.67947 20.8075 5.63748C20.7825 5.59393 20.7434 5.55661 20.6903 5.52551L20.67 5.51309ZM15.7079 14.6562C14.8658 16.0948 13.7784 16.9953 12.5363 17.7713L14.5611 21.2627C15.8579 20.58 17.1859 20.0917 18.8576 20.0854L15.7079 14.6562ZM11.8535 18.1803L13.8659 21.65C13.5112 21.8537 13.155 22.0683 12.791 22.2876C12.4285 22.5069 12.0567 22.7293 11.7004 22.9362L11.5817 22.7324L11.3817 22.3887L9.9693 19.9533L9.77088 19.6096L9.65214 19.4058C10.0162 19.1974 10.3927 18.9921 10.7599 18.79C11.1333 18.5831 11.4989 18.3841 11.8535 18.1803ZM19.8921 20.2845L16.0424 13.6469L16.0346 13.6344L15.5456 12.79H15.544C15.5253 12.7573 15.5221 12.7169 15.5315 12.6811C15.5409 12.6453 15.5628 12.6142 15.5956 12.5955L15.5987 12.594C15.6315 12.5753 15.6706 12.5707 15.7065 12.5816C15.7424 12.5909 15.7737 12.6127 15.7924 12.6438L15.794 12.6469L20.6516 21.02C20.6704 21.0527 20.6735 21.0915 20.6641 21.1289C20.6548 21.1646 20.6313 21.1957 20.5985 21.216C20.5657 21.2346 20.5266 21.2377 20.4891 21.2284C20.4532 21.2191 20.422 21.1957 20.4016 21.1631L19.9251 20.3404C19.9142 20.3202 19.9046 20.3017 19.8921 20.2845ZM19.325 20.8942C19.1891 20.8864 19.0547 20.8833 18.9235 20.8833V29.563C18.9235 30.2317 18.6485 30.8398 18.2047 31.283L18.2016 31.2861C17.7595 31.7263 17.147 32 16.4768 32H2.44982C1.77799 32 1.16712 31.7263 0.72183 31.2846L0.718705 31.2815C0.274979 30.8398 0 30.2302 0 29.5614L0.00156238 2.43702C0.00156238 1.76827 0.276541 1.1602 0.720268 0.716963L0.723392 0.713853C1.16712 0.273717 1.77799 0 2.44982 0H16.4752C16.8798 0 17.2642 0.10109 17.6032 0.278383C17.8829 0.424573 18.1313 0.622083 18.3344 0.860015C18.8703 0.824245 19.4062 0.877123 19.9202 1.01398C21.1216 1.33435 22.2012 2.11195 22.8731 3.26905H22.8715L22.8731 3.2706C23.5449 4.42766 23.6808 5.74651 23.359 6.94246C23.0371 8.13531 22.259 9.2084 21.0982 9.87714L21.092 9.88181C20.7014 10.1058 20.2905 10.2706 19.8702 10.3795C19.5561 10.4603 19.2374 10.5086 18.9202 10.5257V14.3826C18.9999 14.395 19.078 14.4121 19.1562 14.4323C19.7218 14.5832 20.2311 14.9502 20.5467 15.4946C20.8639 16.0404 20.9279 16.6625 20.7764 17.2255C20.6576 17.6688 20.4045 18.0747 20.0373 18.3826L21.3372 20.6236V20.6252C21.4669 20.8491 21.4935 21.1042 21.431 21.3343C21.3685 21.5661 21.2169 21.7745 20.9935 21.9036L20.9951 21.902C20.7701 22.0311 20.5139 22.0575 20.2826 21.9953C20.0498 21.9331 19.8405 21.7823 19.7108 21.5598V21.5583L19.325 20.8942ZM18.1235 20.9237C17.9501 20.9424 17.7798 20.9657 17.6126 20.9968V29.563C17.6126 29.8725 17.4845 30.1556 17.2783 30.3609L17.2767 30.3624H17.2752C17.0689 30.5677 16.7846 30.6952 16.4737 30.6952H2.44992C2.13901 30.6952 1.85465 30.5677 1.64842 30.3624L1.64686 30.3609C1.44063 30.1556 1.31251 29.8725 1.31251 29.563V2.43704C1.31251 2.12755 1.44063 1.8445 1.64686 1.63922L1.64842 1.63766V1.63611C1.85466 1.43238 2.13903 1.30485 2.44992 1.30485H16.4753C16.5128 1.30485 16.5503 1.30641 16.5893 1.31107C16.8315 1.19754 17.0784 1.10579 17.3283 1.03425C17.2971 1.01558 17.2658 0.998476 17.2346 0.981369C17.0096 0.863172 16.7503 0.796301 16.4753 0.796301H2.44996C1.99531 0.796301 1.58438 0.979817 1.28596 1.27685L1.2844 1.2784C0.985988 1.57545 0.801638 1.98445 0.801638 2.43705V29.5631C0.801638 30.0156 0.986 30.4247 1.2844 30.7217L1.28596 30.7233C1.58438 31.0203 1.99527 31.2038 2.44996 31.2038H16.4753C16.9299 31.2038 17.3409 31.0203 17.6393 30.7233L17.6408 30.7217C17.9393 30.4247 18.1236 30.0157 18.1236 29.5631L18.1235 20.9237ZM16.8127 21.185C15.8924 21.4556 15.0503 21.8848 14.1926 22.3794L16.0534 25.0963V25.0979C16.1112 25.1819 16.1487 25.2736 16.1674 25.3685C16.1846 25.4634 16.183 25.5613 16.1612 25.6609V25.6624C16.1393 25.7604 16.0987 25.8491 16.0393 25.9284C15.9815 26.0077 15.9065 26.073 15.819 26.1243L14.7972 26.7138C14.6331 26.8086 14.4457 26.832 14.2738 26.7931C14.1019 26.7542 13.9441 26.6516 13.8379 26.4945L11.9412 23.706C11.7927 23.7666 11.6318 23.7729 11.485 23.734C11.3194 23.6889 11.1678 23.5847 11.0662 23.4307C11.0584 23.4214 11.0522 23.4105 11.0459 23.3996L10.8897 23.129L10.4725 23.3685C10.1663 23.5443 9.81633 23.58 9.49915 23.496C9.18199 23.4121 8.89764 23.2068 8.72109 22.9019L8.19145 21.989C8.0149 21.6842 7.97897 21.3358 8.06334 21.0201C8.14771 20.7044 8.35394 20.4214 8.66017 20.2456L9.08046 20.0046L8.93828 19.7589C8.92266 19.7355 8.9086 19.7106 8.89922 19.6842C8.82267 19.5256 8.81017 19.3498 8.85235 19.1896C8.8961 19.0295 8.99453 18.8833 9.1414 18.7838C9.16327 18.7666 9.18827 18.7511 9.21483 18.7387C9.62259 18.5038 10.0054 18.2954 10.3772 18.0917C12.3771 16.9968 14.1223 16.0404 15.2424 13.8524L14.855 13.1852C14.7253 12.9612 14.6987 12.7062 14.7612 12.476C14.8175 12.2661 14.9487 12.0748 15.1425 11.9442L15.2346 11.8524H15.3112C15.5081 11.7715 15.719 11.7606 15.9143 11.8135C16.1455 11.8757 16.3549 12.0266 16.4845 12.249L16.8142 12.8167L16.8126 11.756C16.7939 11.7404 16.7751 11.7249 16.758 11.7078C16.6908 11.6393 16.6423 11.5554 16.6189 11.4605L16.2174 9.87418C15.8737 9.67511 15.5502 9.43249 15.2581 9.14635C14.9519 8.84619 14.6785 8.49938 14.4519 8.10746C13.7801 6.95041 13.6442 5.63155 13.966 4.4356C14.2035 3.55222 14.691 2.73577 15.3987 2.09967L2.44971 2.10123C2.35596 2.10123 2.27159 2.13855 2.21222 2.1992L2.21066 2.20076C2.14973 2.26141 2.11223 2.34384 2.11223 2.43715V29.5632C2.11223 29.6565 2.14973 29.7404 2.21066 29.7995L2.21222 29.8011C2.27315 29.8618 2.35596 29.8991 2.44971 29.8991H16.475C16.5688 29.8991 16.6531 29.8618 16.7125 29.8011L16.7141 29.7995C16.775 29.7389 16.8125 29.6565 16.8125 29.5632L16.8127 21.185ZM13.5051 22.7853L13.202 22.9672C13.0161 23.0792 12.8286 23.1928 12.6333 23.3078L14.4582 25.989L15.3488 25.4758L13.5051 22.7853ZM17.6128 14.1944L17.7847 14.4899C17.8972 14.4494 18.0097 14.4183 18.1237 14.395V11.0995L17.6129 11.6236L17.6128 14.1944ZM18.194 15.1944C18.4471 15.129 18.7096 15.1322 18.9549 15.199C19.3236 15.297 19.6548 15.5365 19.8611 15.8911C20.0673 16.2457 20.1079 16.6516 20.0095 17.0186C19.9439 17.2628 19.8157 17.4898 19.6329 17.6765L18.194 15.1944ZM10.0726 22.6813L10.4929 22.4402L9.47893 20.6922L9.0602 20.9332C8.94615 20.9985 8.86803 21.1058 8.83522 21.2256C8.80241 21.3453 8.81647 21.4775 8.88209 21.5911L9.41173 22.504C9.47735 22.6191 9.58515 22.6953 9.70546 22.7279C9.82576 22.7606 9.95859 22.7466 10.0726 22.6813ZM11.1788 19.8741L11.5491 19.661C11.7397 19.5506 11.8053 19.308 11.6944 19.1183C11.5835 18.9285 11.3397 18.8632 11.1491 18.9736L10.7788 19.1867C10.5882 19.2971 10.5226 19.5397 10.6335 19.7295C10.7444 19.9192 10.9882 19.9845 11.1788 19.8741ZM12.4521 22.0716C12.2615 22.182 12.0178 22.1167 11.9069 21.927C11.7959 21.7372 11.8616 21.4946 12.0522 21.3842L12.4224 21.1711C12.6131 21.0607 12.8568 21.126 12.9677 21.3158C13.0787 21.5055 13.013 21.7481 12.8224 21.8585L12.4521 22.0716ZM11.8147 20.9736L12.185 20.7606C12.3756 20.6517 12.4412 20.4091 12.3318 20.2193C12.2225 20.0296 11.9787 19.9643 11.7881 20.0731L11.4178 20.2862C11.2272 20.3951 11.1616 20.6377 11.271 20.8274C11.3803 21.0172 11.6241 21.0825 11.8147 20.9736ZM23.231 21.6082C23.1294 21.9565 23.0748 22.3205 23.0701 22.6906C23.067 23.0483 23.1123 23.4138 23.2107 23.7808C23.5013 24.8601 24.2044 25.7202 25.1043 26.2381C26.0042 26.7544 27.1042 26.9301 28.1884 26.6408C29.2727 26.3516 30.1367 25.6533 30.657 24.7575V24.7559C31.1773 23.8601 31.3523 22.7653 31.0617 21.686C30.7711 20.6067 30.068 19.7466 29.168 19.2287C28.2681 18.7124 27.1682 18.5366 26.0839 18.8259C25.7183 18.9239 25.3777 19.067 25.0684 19.2489C24.7465 19.4371 24.4575 19.6673 24.2059 19.9286C24.1528 19.983 24.0919 20.025 24.0231 20.053H24.0216C23.9544 20.081 23.8825 20.0934 23.8075 20.0934H23.806L22.5107 20.0747L23.1748 21.182C23.2123 21.2458 23.2373 21.3158 23.2466 21.3889C23.256 21.4635 23.2513 21.5366 23.231 21.6066L23.231 21.6082ZM22.2733 22.6844C22.2764 22.2785 22.3326 21.8788 22.4342 21.4962L21.5905 20.0903C21.5389 20.0063 21.5139 19.913 21.5139 19.8166C21.5139 19.7217 21.5374 19.6284 21.5874 19.5429C21.6374 19.4573 21.7061 19.3889 21.7874 19.3438C21.8686 19.2971 21.9639 19.2738 22.0639 19.2738L23.7091 19.2971C23.9919 19.0172 24.3122 18.7684 24.6621 18.5631C25.034 18.3438 25.4418 18.1711 25.8777 18.0561C27.1729 17.7108 28.4884 17.9208 29.5665 18.5397H29.5681C30.6461 19.1587 31.4867 20.1882 31.8335 21.4791C32.1804 22.7699 31.9695 24.0793 31.3476 25.1525C30.7242 26.2256 29.6915 27.0623 28.3963 27.4091C27.1011 27.7544 25.7856 27.5444 24.7075 26.9254H24.7059C23.6279 26.3065 22.7873 25.2769 22.4405 23.9861C22.3233 23.5538 22.2702 23.1167 22.2733 22.6844ZM15.8174 8.58169C15.558 8.32975 15.3299 8.03892 15.1424 7.71388C14.5815 6.74654 14.4675 5.64391 14.7378 4.64236C14.9987 3.67347 15.6189 2.801 16.5392 2.23955H16.597L16.6798 2.15712C17.6391 1.6237 18.7265 1.51792 19.7155 1.78232C20.7201 2.04981 21.6232 2.69989 22.1841 3.66724L22.1888 3.6719C22.7465 4.63769 22.859 5.73877 22.5903 6.73721C22.3216 7.73875 21.6685 8.63611 20.6982 9.19445L20.6967 9.196V9.19445C20.367 9.38418 20.0248 9.52104 19.678 9.61125C19.3171 9.70457 18.9499 9.745 18.5843 9.73723C18.5077 9.73567 18.4343 9.74811 18.3656 9.77766C18.2984 9.80566 18.2375 9.84609 18.1843 9.90052L17.2813 10.8259L16.9641 9.57704L16.9626 9.57393C16.9438 9.50084 16.9126 9.43551 16.8673 9.37797C16.8235 9.32043 16.7673 9.27377 16.7001 9.23645V9.23489C16.3798 9.0576 16.0829 8.83984 15.8174 8.58169ZM23.626 10.462V10.4713C23.5838 10.9036 23.6603 11.3422 23.8244 11.7668C24.1291 12.5459 24.7415 13.2831 25.4821 13.8414C26.2226 14.3997 27.1007 14.7854 27.9366 14.8663C28.3912 14.9098 28.8365 14.8632 29.2427 14.7061L29.2521 14.703L29.2771 14.6921L29.2989 14.6812L29.3224 14.6703L29.3349 14.6641C29.4411 14.6081 29.5286 14.5272 29.5911 14.4324L29.5927 14.4308C29.6552 14.336 29.6927 14.224 29.7005 14.1027L29.7661 13.1369C29.777 12.9705 29.7286 12.8118 29.6364 12.6859C29.5442 12.5583 29.4067 12.4635 29.2443 12.423L28.2084 12.1633C28.0678 12.1276 27.9241 12.1384 27.7944 12.1867C27.6631 12.2364 27.5491 12.3235 27.4678 12.4433L27.2366 12.7807C27.0163 12.7061 26.782 12.5755 26.5679 12.4137C26.3523 12.252 26.1617 12.0622 26.032 11.8725L26.2961 11.5599C26.3898 11.4479 26.4445 11.3142 26.457 11.1773C26.4695 11.0405 26.4398 10.9005 26.3664 10.7745H26.3648L25.832 9.85229H25.8336C25.7492 9.70765 25.6196 9.6019 25.4711 9.54747C25.3243 9.49304 25.1587 9.48993 25.0008 9.54591L24.0853 9.87095H24.0837C23.9712 9.91139 23.8728 9.97826 23.7947 10.0654C23.7181 10.1524 23.6634 10.2582 23.6384 10.3764L23.6369 10.3857L23.6275 10.4386L23.626 10.462ZM25.1868 10.322L25.6383 11.1042L25.3711 11.4215C25.2696 11.5428 25.218 11.6859 25.2118 11.8336C25.2071 11.9783 25.2461 12.1229 25.3258 12.2473C25.5102 12.5366 25.782 12.8166 26.0867 13.0467C26.3914 13.2769 26.7366 13.462 27.0647 13.5584C27.2085 13.6004 27.3585 13.6004 27.4959 13.5553C27.6366 13.5102 27.7615 13.4215 27.8522 13.2909L28.0865 12.9503L28.9646 13.1712L28.9099 13.983C28.6349 14.0794 28.3303 14.1074 28.0115 14.0763C27.3272 14.011 26.5929 13.6828 25.9632 13.2069C25.3336 12.7326 24.8164 12.1183 24.568 11.4807C24.4524 11.1852 24.3962 10.885 24.4149 10.5957L25.1868 10.322ZM22.1214 13.4433L21.2792 14.8476C21.2292 14.9316 21.2027 15.0265 21.2027 15.1229C21.2027 15.2177 21.2261 15.3111 21.2745 15.3935C21.323 15.4775 21.3917 15.5459 21.4761 15.5941C21.5573 15.6408 21.6526 15.6641 21.7526 15.6641L23.3978 15.6392C23.6806 15.9191 24.0009 16.168 24.3509 16.3733C24.7227 16.5926 25.1305 16.7652 25.5664 16.8803C26.8632 17.2255 28.1771 17.0156 29.2552 16.3966H29.2568C30.3348 15.7776 31.1754 14.7481 31.5223 13.4573C31.8691 12.1665 31.6582 10.857 31.0364 9.78386C30.413 8.71078 29.3803 7.87406 28.085 7.52725C26.7883 7.18199 25.4743 7.39195 24.3962 8.0109H24.3947C23.3166 8.62988 22.4761 9.65941 22.1292 10.9502C22.0136 11.3826 21.9589 11.8196 21.9636 12.2519C21.9636 12.6609 22.0198 13.0607 22.1214 13.4433ZM22.7557 12.2489C22.7588 12.619 22.8151 12.9829 22.9166 13.3313C22.9369 13.4044 22.9432 13.4775 22.9338 13.549V13.5506C22.9244 13.6237 22.8994 13.6937 22.8604 13.7574L22.1963 14.8647L23.4916 14.8461H23.4931C23.5697 14.8445 23.6431 14.8585 23.7103 14.8865C23.779 14.9145 23.84 14.958 23.8931 15.0125C24.1446 15.2722 24.4337 15.5024 24.7539 15.6905C25.0633 15.8725 25.4039 16.0171 25.7695 16.1136C26.8538 16.4028 27.9537 16.2271 28.8536 15.7108C29.7551 15.1929 30.4566 14.3329 30.7472 13.2535C31.0378 12.1742 30.8613 11.0794 30.341 10.1836V10.182C29.8223 9.2862 28.9568 8.58792 27.8725 8.29864C26.7866 8.00937 25.6883 8.1851 24.7868 8.70143C23.8853 9.21932 23.1838 10.0793 22.8932 11.1587C22.7979 11.5257 22.7526 11.8911 22.7557 12.2489ZM27.1521 24.7666C25.6898 23.7557 25.1585 22.891 25.1335 22.2751C25.1242 22.0527 25.1867 21.8692 25.2945 21.7355C25.4023 21.6002 25.5554 21.5069 25.7288 21.4664C26.0569 21.3871 26.4491 21.4913 26.7365 21.8366C26.7896 21.9003 26.8537 21.9501 26.9287 21.9843C27.0037 22.0201 27.0834 22.0372 27.1646 22.0372C27.2458 22.0372 27.3255 22.0185 27.4005 21.9843C27.4583 21.9579 27.5099 21.9205 27.5552 21.877C27.5693 21.8645 27.5818 21.8506 27.5943 21.8366C27.8802 21.4944 28.2676 21.3887 28.5895 21.4664H28.5911C28.7598 21.5069 28.9114 21.5986 29.0176 21.7339C29.1238 21.8692 29.1863 22.0512 29.177 22.272C29.152 22.8848 28.6192 23.751 27.1521 24.7666ZM29.9754 22.2985C29.9394 23.1523 29.2817 24.2969 27.4646 25.5162V25.5146C27.3678 25.5799 27.26 25.6126 27.1522 25.6126C27.0537 25.6126 26.9553 25.5862 26.8663 25.5333C26.8569 25.5286 26.8475 25.5224 26.8397 25.5162C25.0273 24.2984 24.3727 23.1585 24.3368 22.3047C24.3196 21.8801 24.4493 21.5193 24.6695 21.2425C24.8898 20.9656 25.1992 20.7759 25.5414 20.6935C26.071 20.5659 26.6835 20.6888 27.1647 21.1321C27.6443 20.6888 28.2521 20.5659 28.7786 20.6919C29.1208 20.7743 29.4301 20.9625 29.6473 21.2378C29.8645 21.5146 29.9926 21.8754 29.9754 22.2985ZM7.57707 3.98594H11.3502C11.5705 3.98594 11.7502 3.80709 11.7502 3.5878C11.7502 3.36852 11.5705 3.18967 11.3502 3.18967H7.57707C7.35678 3.18967 7.1771 3.36852 7.1771 3.5878C7.17554 3.80864 7.35522 3.98594 7.57707 3.98594ZM7.07243 28.919H11.8533C12.0736 28.919 12.2532 28.7402 12.2532 28.5209C12.2532 28.3016 12.0736 28.1228 11.8533 28.1228H7.07243C6.85214 28.1228 6.67246 28.3016 6.67246 28.5209C6.67246 28.7402 6.85057 28.919 7.07243 28.919ZM18.134 3.1399L21.0681 4.82576C21.0759 4.82887 21.0838 4.83353 21.0916 4.8382C21.265 4.93773 21.4025 5.07615 21.4993 5.24254C21.5962 5.40895 21.6462 5.59558 21.6462 5.79463C21.6462 5.99214 21.5946 6.18033 21.4993 6.34673C21.404 6.51158 21.265 6.64999 21.0916 6.75107H21.09L18.1355 8.44935C17.959 8.55044 17.77 8.60176 17.5825 8.60176C17.3934 8.60176 17.2044 8.55043 17.0294 8.44935C16.8638 8.35448 16.731 8.2254 16.6372 8.07299C16.631 8.06521 16.6263 8.05588 16.6216 8.0481C16.5247 7.88325 16.4747 7.69352 16.4747 7.49446V4.09791C16.4747 3.89884 16.5263 3.71066 16.6216 3.54426C16.7169 3.37941 16.856 3.24255 17.0294 3.14147C17.2059 3.04038 17.3934 2.98906 17.5825 2.98906C17.7684 2.98751 17.9574 3.03881 18.134 3.1399Z" fill="#006FC9"/>
</svg>
