<svg width="34" height="34" viewBox="0 0 34 34" fill="none" xmlns="http://www.w3.org/2000/svg">
<path d="M24.7697 3.43656H26.6576C26.8655 3.43656 27.0351 3.26694 27.0351 3.05898C27.0351 2.85101 26.8655 2.6814 26.6576 2.6814H24.7697C24.5617 2.6814 24.3921 2.85101 24.3921 3.05898C24.3921 3.26694 24.5617 3.43656 24.7697 3.43656Z" fill="#006FC9"/>
<path d="M20.9938 3.43656H22.8817C23.0896 3.43656 23.2593 3.26694 23.2593 3.05898C23.2593 2.85101 23.0896 2.6814 22.8817 2.6814H20.9938C20.7858 2.6814 20.6162 2.85101 20.6162 3.05898C20.6162 3.26694 20.7858 3.43656 20.9938 3.43656Z" fill="#006FC9"/>
<path d="M17.2184 3.43656H19.1063C19.3143 3.43656 19.4839 3.26694 19.4839 3.05898C19.4839 2.85101 19.3143 2.6814 19.1063 2.6814H17.2184C17.0104 2.6814 16.8408 2.85101 16.8408 3.05898C16.8408 3.26694 17.0104 3.43656 17.2184 3.43656Z" fill="#006FC9"/>
<path d="M13.4425 3.43656H15.3304C15.5384 3.43656 15.708 3.26694 15.708 3.05898C15.708 2.85101 15.5384 2.6814 15.3304 2.6814H13.4425C13.2346 2.6814 13.0649 2.85101 13.0649 3.05898C13.0649 3.26694 13.2346 3.43656 13.4425 3.43656Z" fill="#006FC9"/>
<path d="M9.66664 3.43656H11.5545C11.7625 3.43656 11.9321 3.26694 11.9321 3.05898C11.9321 2.85101 11.7625 2.6814 11.5545 2.6814H9.66664C9.45868 2.6814 9.28906 2.85101 9.28906 3.05898C9.28906 3.26694 9.45868 3.43656 9.66664 3.43656Z" fill="#006FC9"/>
<path d="M7.77861 3.43661C7.98657 3.43661 8.15618 3.26699 8.15618 3.05903C8.15618 2.85106 7.98657 2.68144 7.77861 2.68144H6.11786V0.377583C6.11786 0.169618 5.94825 0 5.74028 0L0.379044 0.00147529C0.171081 0.00147529 0.00146484 0.171093 0.00146484 0.379058V5.74036C0.00146484 5.94832 0.171081 6.11794 0.379044 6.11794H5.74028C5.94825 6.11794 6.11786 5.94832 6.11786 5.74036V3.4365L7.77861 3.43661ZM5.36271 5.36288H0.756622V0.756752H5.36271V5.36288Z" fill="#006FC9"/>
<path d="M3.05922 9.65639C3.26718 9.65639 3.4368 9.48677 3.4368 9.2788V7.39089C3.4368 7.18292 3.26718 7.01331 3.05922 7.01331C2.85126 7.01331 2.68164 7.18292 2.68164 7.39089V9.2788C2.68164 9.48677 2.85126 9.65639 3.05922 9.65639Z" fill="#006FC9"/>
<path d="M2.68164 16.8304C2.68164 17.0384 2.85126 17.208 3.05922 17.208C3.26718 17.208 3.4368 17.0384 3.4368 16.8304V14.9425C3.4368 14.7346 3.26718 14.5649 3.05922 14.5649C2.85126 14.5649 2.68164 14.7346 2.68164 14.9425V16.8304Z" fill="#006FC9"/>
<path d="M2.68164 24.3821C2.68164 24.59 2.85126 24.7597 3.05922 24.7597C3.26718 24.7597 3.4368 24.59 3.4368 24.3821V22.4942C3.4368 22.2862 3.26718 22.1166 3.05922 22.1166C2.85126 22.1166 2.68164 22.2862 2.68164 22.4942V24.3821Z" fill="#006FC9"/>
<path d="M2.68164 20.6063C2.68164 20.8143 2.85126 20.9839 3.05922 20.9839C3.26718 20.9839 3.4368 20.8143 3.4368 20.6063V18.7184C3.4368 18.5104 3.26718 18.3408 3.05922 18.3408C2.85126 18.3408 2.68164 18.5104 2.68164 18.7184V20.6063Z" fill="#006FC9"/>
<path d="M2.68164 13.0547C2.68164 13.2626 2.85126 13.4323 3.05922 13.4323C3.26718 13.4323 3.4368 13.2626 3.4368 13.0547V11.1668C3.4368 10.9588 3.26718 10.7892 3.05922 10.7892C2.85126 10.7892 2.68164 10.9588 2.68164 11.1668V13.0547Z" fill="#006FC9"/>
<path d="M24.4037 30.5636H22.5158C22.3078 30.5636 22.1382 30.7332 22.1382 30.9412C22.1382 31.1491 22.3078 31.3188 22.5158 31.3188H24.4037C24.6116 31.3188 24.7812 31.1491 24.7812 30.9412C24.7812 30.7332 24.6116 30.5636 24.4037 30.5636Z" fill="#006FC9"/>
<path d="M20.6278 30.5636H18.7399C18.5319 30.5636 18.3623 30.7332 18.3623 30.9412C18.3623 31.1491 18.5319 31.3188 18.7399 31.3188H20.6278C20.8357 31.3188 21.0054 31.1491 21.0054 30.9412C21.0054 30.7332 20.8357 30.5636 20.6278 30.5636Z" fill="#006FC9"/>
<path d="M16.8524 30.5636H14.9645C14.7565 30.5636 14.5869 30.7332 14.5869 30.9412C14.5869 31.1491 14.7565 31.3188 14.9645 31.3188H16.8524C17.0603 31.3188 17.23 31.1491 17.23 30.9412C17.23 30.7332 17.0603 30.5636 16.8524 30.5636Z" fill="#006FC9"/>
<path d="M9.30063 30.5636H7.41274C7.20477 30.5636 7.03516 30.7332 7.03516 30.9412C7.03516 31.1491 7.20477 31.3188 7.41274 31.3188H9.30063C9.50859 31.3188 9.67821 31.1491 9.67821 30.9412C9.67821 30.7332 9.50859 30.5636 9.30063 30.5636Z" fill="#006FC9"/>
<path d="M13.0765 30.5636H11.1886C10.9807 30.5636 10.811 30.7332 10.811 30.9412C10.811 31.1491 10.9807 31.3188 11.1886 31.3188H13.0765C13.2845 31.3188 13.4541 31.1491 13.4541 30.9412C13.4541 30.7332 13.2845 30.5636 13.0765 30.5636Z" fill="#006FC9"/>
<path d="M30.563 15.3232C30.563 15.5312 30.7326 15.7008 30.9406 15.7008C31.1485 15.7008 31.3181 15.5312 31.3181 15.3232V13.4353C31.3181 13.2274 31.1485 13.0577 30.9406 13.0577C30.7326 13.0577 30.563 13.2274 30.563 13.4353V15.3232Z" fill="#006FC9"/>
<path d="M30.563 19.0991C30.563 19.3071 30.7326 19.4767 30.9406 19.4767C31.1485 19.4767 31.3181 19.3071 31.3181 19.0991V17.2112C31.3181 17.0032 31.1485 16.8336 30.9406 16.8336C30.7326 16.8336 30.563 17.0032 30.563 17.2112V19.0991Z" fill="#006FC9"/>
<path d="M30.563 26.6508C30.563 26.8587 30.7326 27.0283 30.9406 27.0283C31.1485 27.0283 31.3181 26.8587 31.3181 26.6508V24.7628C31.3181 24.5549 31.1485 24.3853 30.9406 24.3853C30.7326 24.3853 30.563 24.5549 30.563 24.7628V26.6508Z" fill="#006FC9"/>
<path d="M30.9406 11.9251C31.1485 11.9251 31.3181 11.7554 31.3181 11.5475V9.65957C31.3181 9.4516 31.1485 9.28198 30.9406 9.28198C30.7326 9.28198 30.563 9.4516 30.563 9.65957V11.5475C30.563 11.7554 30.7326 11.9251 30.9406 11.9251Z" fill="#006FC9"/>
<path d="M30.563 22.8749C30.563 23.0828 30.7326 23.2525 30.9406 23.2525C31.1485 23.2525 31.3181 23.0828 31.3181 22.8749V20.987C31.3181 20.779 31.1485 20.6094 30.9406 20.6094C30.7326 20.6094 30.563 20.779 30.563 20.987V22.8749Z" fill="#006FC9"/>
<path d="M33.6207 0.00146484H28.2594C28.0515 0.00146484 27.8818 0.171083 27.8818 0.379048V5.74035C27.8818 5.94831 28.0515 6.11793 28.2594 6.11793H30.5632V7.77574C30.5632 7.98371 30.7329 8.15333 30.9408 8.15333C31.1488 8.15333 31.3184 7.98371 31.3184 7.77574V6.11793H33.6222C33.8302 6.11793 33.9998 5.94831 33.9998 5.74035L33.9983 0.379048C33.9983 0.171083 33.8286 0.00146484 33.6207 0.00146484ZM33.2431 5.36276H28.637V0.75663H33.2431V5.36276Z" fill="#006FC9"/>
<path d="M5.74041 27.8821H3.43657V26.27C3.43657 26.0621 3.26695 25.8925 3.05899 25.8925C2.85103 25.8925 2.68141 26.0621 2.68141 26.27V27.8821H0.377579C0.169616 27.8821 0 28.0517 0 28.2597V33.621C0 33.829 0.169616 33.9986 0.377579 33.9986H5.73882C5.94678 33.9986 6.1164 33.829 6.1164 33.621V28.2597C6.1164 28.0517 5.94678 27.8821 5.73882 27.8821H5.74041ZM5.36283 33.2434H0.756743V28.6373H5.36283V33.2434Z" fill="#006FC9"/>
<path d="M33.6209 27.882H28.2597C28.0517 27.882 27.8821 28.0516 27.8821 28.2595V30.5634H26.2921C26.0842 30.5634 25.9146 30.733 25.9146 30.941C25.9146 31.1489 26.0842 31.3186 26.2921 31.3186H27.8821V33.6224C27.8821 33.8304 28.0517 34 28.2597 34H33.6209C33.8289 34 33.9985 33.8304 33.9985 33.6224V28.2611C33.9985 28.0532 33.8289 27.8835 33.6209 27.8835V27.882ZM33.2433 33.2433H28.6372V28.6371H33.2433V33.2433Z" fill="#006FC9"/>
<path d="M10.978 18.9824L15.1994 23.4042C15.2716 23.4795 15.3734 23.5207 15.4707 23.5207C15.5356 23.5207 15.5991 23.506 15.6551 23.4721L21.975 19.9145C22.1255 19.8319 22.1977 19.6535 22.1564 19.4883L20.5665 13.587C20.5399 13.4926 20.4839 13.413 20.3998 13.3643L11.3496 7.75381C11.2331 7.68154 11.0856 7.67859 10.9647 7.74644C10.8438 7.81429 10.7715 7.9426 10.7715 8.0783L10.8703 18.7258C10.8703 18.8202 10.9087 18.9146 10.9765 18.9824L10.978 18.9824ZM21.3497 19.4012L15.543 22.6667L11.6271 18.5666L11.5445 9.53403L14.4058 14.6238C14.2436 14.7861 14.1182 14.9867 14.0548 15.2168C13.956 15.5722 14.0017 15.9424 14.1787 16.2625C14.3601 16.584 14.6551 16.8141 15.0061 16.9115C15.13 16.9454 15.2554 16.9646 15.3793 16.9646C15.6138 16.9646 15.8439 16.9041 16.0518 16.7876C16.7126 16.4144 16.9471 15.5752 16.5769 14.9144C16.3955 14.5929 16.1005 14.3628 15.7494 14.2654C15.5194 14.2005 15.2848 14.205 15.0621 14.2581L12.2008 9.16824L19.8762 13.9265L21.3482 19.4015L21.3497 19.4012ZM15.3806 14.9692C15.4366 14.9692 15.4942 14.9766 15.5502 14.9913C15.7095 15.037 15.8408 15.1388 15.9234 15.2863C16.09 15.5842 15.9838 15.9618 15.6859 16.1314C15.5428 16.2111 15.3732 16.2332 15.2139 16.1875C15.0546 16.1418 14.9234 16.04 14.8408 15.8925C14.7611 15.7494 14.739 15.5798 14.7847 15.4205C14.8305 15.2612 14.9322 15.13 15.0797 15.0474C15.1741 14.9943 15.2759 14.9677 15.3821 14.9677L15.3806 14.9692Z" fill="#006FC9"/>
<path d="M23.2181 23.2419L22.7123 21.0059C22.6857 20.8894 22.6061 20.795 22.4969 20.7449C22.3878 20.6962 22.2624 20.7036 22.1577 20.7596L16.286 24.0635C16.1798 24.1195 16.1119 24.2257 16.0972 24.3422C16.0824 24.4587 16.1237 24.5797 16.2107 24.6638L17.8568 26.2567C17.929 26.329 18.0234 26.3629 18.1208 26.3629C18.1857 26.3629 18.2491 26.3481 18.3051 26.3142L23.0396 23.649C23.1871 23.5664 23.2579 23.3997 23.224 23.2375L23.2181 23.2419ZM18.1741 25.5222L17.0944 24.4765L22.0856 21.6667L22.4175 23.1313L18.1743 25.5178L18.1741 25.5222Z" fill="#006FC9"/>
</svg>
