<svg width="50" height="36" viewBox="0 0 50 36" fill="none" xmlns="http://www.w3.org/2000/svg">
<path d="M19.0844 32.3723C19.082 32.2435 19.1325 32.1171 19.2215 32.0272C19.3128 31.9349 19.4354 31.8839 19.5652 31.8863H30.4618C30.7262 31.8863 30.9426 32.105 30.9426 32.3723C30.9426 32.6395 30.7262 32.8582 30.4618 32.8582H19.5652C19.2984 32.8582 19.0844 32.6395 19.0844 32.3723ZM45.738 2.87688V28.7956H46.4375H46.4351C48.4038 28.7956 50 30.409 50 32.399C50 34.389 48.4038 36 46.4351 36H3.56492C1.59618 36 0 34.3891 0 32.399C0 30.409 1.59618 28.7956 3.56492 28.7956H4.26443V2.87688H4.26203C4.26203 2.1139 4.56251 1.38258 5.09618 0.84316C5.62985 0.303736 6.35341 0 7.10818 0H42.8916C44.4637 0 45.738 1.28779 45.738 2.87688ZM5.22597 28.7956H44.7767V2.87688C44.7767 2.37149 44.5772 1.88798 44.2239 1.53075C43.8705 1.17352 43.3921 0.971896 42.8921 0.971896H7.10872C6.06786 0.971896 5.2241 1.82476 5.2241 2.87686L5.22597 28.7956ZM3.56493 29.7675C2.12745 29.7675 0.961543 30.946 0.961543 32.399C0.961543 33.852 2.12739 35.0281 3.56493 35.0281H46.4351C47.8726 35.0281 49.0385 33.8521 49.0385 32.399C49.0385 30.946 47.8726 29.7675 46.4351 29.7675H3.56493ZM43.1157 3.33128V26.8714C43.1157 27.1386 42.8994 27.3573 42.6349 27.3573H7.3777C7.11327 27.3573 6.89693 27.1386 6.89693 26.8714V3.30453C6.90174 3.03725 7.11327 2.82343 7.3777 2.81857H42.6349C42.8994 2.82343 43.1133 3.03725 43.1157 3.30453V3.33128ZM24.5268 3.81724H7.86093L7.85852 26.4118H24.5244L24.5268 3.88255C24.5268 3.85096 24.5316 3.8218 24.5388 3.79022L24.5268 3.81724ZM42.1422 3.81724H25.4739C25.4787 3.84639 25.4787 3.87798 25.4739 3.90714V26.4122H42.1397L42.1422 3.81724ZM13.128 15.6041C13.2194 15.6915 13.3419 15.7426 13.4694 15.745C13.5968 15.745 13.7169 15.694 13.8083 15.6041C13.8996 15.5142 13.9525 15.3902 13.9525 15.259C13.9525 15.1303 13.8996 15.0063 13.8083 14.9164L11.4237 12.5061L13.8083 10.0957C13.8996 10.0058 13.9525 9.88189 13.9525 9.75311C13.9525 9.6219 13.8996 9.49797 13.8083 9.40807C13.6208 9.21855 13.3155 9.21855 13.128 9.40807L10.4044 12.1562C10.2169 12.3457 10.2169 12.6543 10.4044 12.8439L13.128 15.6041ZM18.7001 15.6041C18.7915 15.6915 18.9117 15.7426 19.0391 15.745C19.1665 15.745 19.2891 15.694 19.378 15.6041L22.104 12.8487C22.2915 12.6591 22.2915 12.353 22.104 12.1634L19.378 9.40804C19.1905 9.23066 18.8948 9.23552 18.7122 9.42018C18.5271 9.60485 18.5223 9.90371 18.7001 10.0956L21.0848 12.506L18.7001 14.9164C18.5126 15.1059 18.5126 15.4145 18.7001 15.6041ZM15.0703 17.2101C15.1112 17.2174 15.1521 17.2174 15.1929 17.2101C15.4117 17.2077 15.6016 17.0571 15.6545 16.8408L17.7819 8.36567C17.8155 8.24175 17.7963 8.10811 17.7314 7.99634C17.6665 7.887 17.5607 7.80681 17.4357 7.77523C17.1809 7.70962 16.9189 7.86756 16.854 8.12512L14.7434 16.6196C14.6785 16.8747 14.8228 17.1348 15.0703 17.2101ZM19.8155 19.9315H12.7004C12.4336 19.9315 12.2197 20.1502 12.2197 20.4175C12.2197 20.6848 12.4336 20.9034 12.7004 20.9034H19.8155C20.0799 20.9034 20.2963 20.6848 20.2963 20.4175C20.2963 20.1502 20.0799 19.9315 19.8155 19.9315ZM19.8155 22.128H12.7004C12.4336 22.128 12.2197 22.3467 12.2197 22.614C12.2197 22.8813 12.4336 23.1 12.7004 23.1H19.8155C20.0799 23.1 20.2963 22.8813 20.2963 22.614C20.2963 22.3467 20.0799 22.128 19.8155 22.128ZM28.2051 21.1561H39.4887C39.7532 21.1561 39.9695 20.9374 39.9695 20.6702C39.9695 20.4029 39.7532 20.1842 39.4887 20.1842H28.2051C27.9406 20.1842 27.7243 20.4029 27.7243 20.6702C27.7243 20.9374 27.9406 21.1561 28.2051 21.1561ZM28.2051 23.3526H39.4887C39.7532 23.3526 39.9695 23.1339 39.9695 22.8667C39.9695 22.5994 39.7532 22.3807 39.4887 22.3807H28.2051C27.9406 22.3807 27.7243 22.5994 27.7243 22.8667C27.7243 23.1339 27.9406 23.3526 28.2051 23.3526ZM27.7243 10.3945V6.46795C27.7243 6.19825 27.9406 5.98199 28.2051 5.98199H39.4887C39.7532 5.98199 39.9695 6.19825 39.9695 6.46795V10.4066C39.9695 10.6739 39.7532 10.8926 39.4887 10.8926H28.2051C27.943 10.8902 27.7315 10.6715 27.7315 10.4066L27.7243 10.3945ZM28.6858 9.90855H39.0058L39.0082 6.97332H28.6931L28.6858 9.90855ZM27.7315 17.3387V13.4073C27.7315 13.1376 27.9478 12.9213 28.2123 12.9213H32.1089C32.3733 12.9237 32.5872 13.14 32.5896 13.4073V17.3387C32.5872 17.606 32.3733 17.8222 32.1089 17.8247H28.205C27.943 17.8222 27.7315 17.606 27.7315 17.3387ZM28.693 16.8527H31.6281V13.8932H28.693V16.8527ZM39.9743 13.4V17.3387C39.9743 17.6084 39.7603 17.8246 39.4935 17.8246H35.5969C35.3324 17.8222 35.1185 17.6059 35.1161 17.3387V13.4072C35.1185 13.14 35.3324 12.9237 35.5969 12.9213H39.4935C39.7603 12.9213 39.9743 13.1375 39.9743 13.4072V13.4ZM39.0127 13.8859H36.0776V16.8527H39.0127V13.8859Z" fill="#006FC9"/>
</svg>
