<svg width="30" height="30" viewBox="0 0 30 30" fill="none" xmlns="http://www.w3.org/2000/svg">
<path d="M29.9395 14.5794C29.8188 14.2887 29.5311 14.1014 29.2068 14.1014H28.2373C28.1592 11.9369 27.5128 9.81501 26.3646 7.95504C25.1891 6.05595 23.5189 4.47274 21.5338 3.37687C21.5327 3.37687 21.5327 3.37573 21.5315 3.37573C21.3421 3.27233 21.1326 3.2482 20.923 3.30564C20.9195 3.30679 20.9159 3.30794 20.9124 3.30909C20.7064 3.37113 20.5442 3.49981 20.4412 3.68476L19.834 4.78998C19.6339 5.15877 19.7689 5.61029 20.1417 5.81823C21.6854 6.6753 22.9839 7.91034 23.8979 9.38906C24.7751 10.8079 25.277 12.4337 25.3539 14.1028L24.4046 14.1017C24.0826 14.1017 23.7961 14.2889 23.6742 14.575C23.5499 14.8634 23.6162 15.192 23.8446 15.4137L26.2465 17.7448C26.4015 17.8953 26.604 17.97 26.8064 17.97C27.01 17.97 27.2124 17.8953 27.3663 17.7448L29.7682 15.4137C29.9954 15.1943 30.0617 14.868 29.9398 14.5796L29.9395 14.5794ZM26.8049 17.0035L24.7523 15.0113H25.5051C25.7206 15.0113 25.923 14.9286 26.0733 14.7793C26.226 14.6276 26.3054 14.4277 26.2971 14.2198C26.2379 12.3483 25.6874 10.5157 24.7026 8.92221C23.7295 7.34824 22.3576 6.0282 20.7288 5.09757L21.1999 4.24049C22.9886 5.25609 24.4955 6.70025 25.5622 8.42484C26.6524 10.1895 27.2549 12.208 27.3059 14.2645C27.3177 14.6838 27.6657 15.0124 28.0978 15.0124H28.8589L26.8049 17.0035ZM26.5906 20.2949C26.5267 20.095 26.3882 19.9319 26.2035 19.8388L25.0695 19.2517C24.6931 19.0553 24.216 19.1885 24.0077 19.547C23.1234 21.044 21.8509 22.3043 20.3264 23.1925C18.8621 24.045 17.1872 24.5321 15.4696 24.6056V23.6842C15.4696 23.3717 15.2766 23.0914 14.9759 22.9708C14.68 22.8547 14.3426 22.9202 14.1165 23.1397L11.7147 25.4708C11.4058 25.7706 11.4058 26.2589 11.7147 26.5587L14.1165 28.8887C14.2693 29.0369 14.4717 29.115 14.6765 29.115C14.7783 29.115 14.8813 29.0955 14.9783 29.0564C15.2766 28.9369 15.4684 28.6577 15.4684 28.3441V27.4032C17.6986 27.3273 19.8849 26.7001 21.8013 25.5856C23.7569 24.4471 25.3881 22.826 26.5172 20.8992C26.6238 20.7189 26.651 20.5075 26.5918 20.3053C26.593 20.3018 26.5918 20.2984 26.5906 20.2949ZM21.3205 24.8054C19.5022 25.8636 17.4225 26.4483 15.3024 26.4977C14.8775 26.5092 14.5318 26.855 14.5318 27.2663V28.0051L12.4792 26.0141L14.5318 24.0219V24.7503C14.5318 24.9594 14.6158 25.1536 14.7697 25.2995C14.9248 25.4488 15.1307 25.5258 15.3486 25.5189C17.2745 25.4638 19.1626 24.9284 20.8081 23.9714C22.4287 23.0282 23.7888 21.6977 24.7501 20.1159L25.632 20.572C24.5832 22.3114 23.0964 23.7728 21.3206 24.8057L21.3205 24.8054ZM3.79872 9.27479L4.93748 9.86416C5.05704 9.92505 5.18489 9.95377 5.31037 9.95377C5.585 9.95377 5.85015 9.81476 5.99694 9.5666C6.87885 8.06963 8.15255 6.80814 9.67826 5.92019C11.1402 5.06888 12.8153 4.58174 14.5351 4.50706V5.43075C14.5351 5.74095 14.7257 6.02013 15.024 6.14077C15.3211 6.26025 15.6608 6.19477 15.8881 5.97418L18.2899 3.6431C18.5989 3.34325 18.5989 2.85496 18.2899 2.55512L15.8858 0.225181C15.6585 0.00459603 15.3199 -0.0608912 15.0204 0.0597422C14.7245 0.180376 14.5339 0.458413 14.5339 0.768614V1.70954C12.3002 1.78652 10.1125 2.41379 8.20098 3.52707C6.24189 4.66905 4.61057 6.29012 3.48265 8.21671C3.37612 8.40053 3.35126 8.60388 3.41045 8.80952C3.46963 9.01172 3.60815 9.17714 3.79872 9.27479ZM8.6816 4.30692C10.4951 3.25111 12.575 2.66518 14.6984 2.61462C15.1305 2.60313 15.4691 2.26536 15.4691 1.84602L15.4703 1.10729L17.5229 3.09944L15.4703 5.09158V4.36089C15.4703 4.15179 15.385 3.95534 15.2311 3.80943C15.23 3.80828 15.2276 3.80713 15.2264 3.80483C15.0666 3.65777 14.8677 3.58425 14.6535 3.59114C12.7252 3.64744 10.837 4.18281 9.19513 5.13868C7.57221 6.08419 6.21207 7.41461 5.2532 8.99538L4.37129 8.53813C5.41417 6.80562 6.90233 5.34455 8.6816 4.30692ZM9.85942 23.2966C8.31819 22.4407 7.01961 21.2057 6.10325 19.7237C5.22492 18.3014 4.72299 16.677 4.64723 15.01H5.5966C5.91739 15.01 6.20504 14.825 6.32935 14.5378C6.33053 14.5355 6.33171 14.5332 6.3329 14.5309C6.45364 14.2391 6.38616 13.9197 6.1577 13.6968L3.75705 11.3669C3.4481 11.067 2.945 11.067 2.63605 11.3669L0.234219 13.698C0.00575484 13.9197 -0.0617169 14.2391 0.0590231 14.532C0.0602071 14.5343 0.0613907 14.5366 0.0625744 14.5389C0.186869 14.8262 0.474526 15.0111 0.795324 15.0111H1.76481C1.84293 17.1768 2.48925 19.2987 3.6375 21.1575C4.81178 23.0578 6.48204 24.641 8.46613 25.7345C8.58687 25.8023 8.72063 25.8368 8.85796 25.8368C8.93135 25.8368 9.00593 25.8264 9.08051 25.8069C9.29003 25.7483 9.46049 25.6127 9.55991 25.4266L10.1636 24.3283C10.3661 23.9618 10.2287 23.4988 9.85942 23.2966ZM8.80242 24.8731C7.01379 23.8586 5.50808 22.4145 4.44138 20.6899C3.35113 18.9264 2.74863 16.9091 2.69654 14.8512C2.6847 14.4307 2.33668 14.1009 1.90461 14.1009H1.14346L3.19607 12.1088L5.24749 14.1009H4.49581C4.28036 14.1009 4.07794 14.1837 3.92761 14.333C3.92642 14.3342 3.92524 14.3353 3.92406 14.3376C3.77254 14.4927 3.69559 14.6857 3.70388 14.8925C3.7607 16.7618 4.31232 18.5942 5.29838 20.1913C6.27259 21.7664 7.64339 23.0865 9.27092 24.0171L8.80242 24.8731ZM13.2935 20.6373L13.5787 21.4909C13.69 21.8263 14.0108 22.0527 14.3754 22.0527H15.6278C15.9924 22.0527 16.312 21.8275 16.4233 21.492L16.7098 20.6384C17.2389 20.4983 17.7479 20.2949 18.2238 20.0307L19.0489 20.4385C19.3732 20.5971 19.7638 20.5373 20.0195 20.288L20.905 19.4287C21.1607 19.1805 21.2234 18.8025 21.0589 18.4843L20.6386 17.6858C20.9121 17.2217 21.124 16.7277 21.266 16.2153L22.1432 15.9384C22.49 15.8292 22.7232 15.519 22.7232 15.1652V13.9508C22.7232 13.597 22.49 13.2856 22.1443 13.1765L21.266 12.8996C21.1228 12.3883 20.9109 11.8932 20.6374 11.4302L21.0589 10.6294C21.2222 10.3146 21.1607 9.93547 20.9038 9.68733L20.0183 8.82796C19.7615 8.57865 19.3708 8.5189 19.0453 8.6786L18.2214 9.08645C17.7432 8.81991 17.2342 8.6154 16.7074 8.4764L16.4221 7.62509C16.3096 7.28848 15.99 7.06213 15.6254 7.06213H14.373C14.0085 7.06213 13.6888 7.28846 13.5776 7.62394L13.2923 8.4764C12.7643 8.61542 12.2541 8.82107 11.7783 9.08645L10.9508 8.67631C10.6265 8.51891 10.237 8.57981 9.98133 8.82796L9.09588 9.68733C8.83901 9.93664 8.77745 10.3158 8.94199 10.6317L9.36222 11.4313C9.08877 11.8955 8.87687 12.3895 8.73365 12.9008L7.85769 13.1776C7.50968 13.2856 7.27528 13.597 7.27528 13.952V15.1663C7.27528 15.5213 7.50966 15.8315 7.85414 15.9384L8.73247 16.2164C8.87571 16.73 9.0876 17.224 9.35985 17.6858L8.93845 18.4878C8.77627 18.8026 8.83901 19.1805 9.0947 19.4287L9.98015 20.2881C10.2358 20.5362 10.6253 20.5971 10.952 20.4374L11.7759 20.0307C12.2529 20.2938 12.7631 20.4971 13.2935 20.6373ZM10.5945 19.5941L9.8109 18.8335L10.224 18.0488C10.3554 17.7984 10.346 17.5158 10.2004 17.2722C9.94704 16.8517 9.75408 16.4002 9.62744 15.9303C9.55404 15.6626 9.34689 15.4501 9.07581 15.365L8.21524 15.0928V14.0186L9.07703 13.7463C9.35284 13.659 9.55407 13.4533 9.62747 13.1799C9.75413 12.7135 9.9459 12.2631 10.2004 11.8403C10.3436 11.6013 10.3531 11.3106 10.2229 11.0614L9.81093 10.2778L10.5946 9.51727L11.4031 9.91823C11.6599 10.0446 11.9511 10.0366 12.2045 9.89525C12.6389 9.64939 13.1029 9.46211 13.5859 9.3392C13.8664 9.26682 14.0795 9.07151 14.1683 8.80497L14.4489 7.96857H15.5556L15.8362 8.80497C15.9262 9.07266 16.138 9.26797 16.4198 9.3392C16.9004 9.46098 17.3644 9.64826 17.8024 9.8964C18.0534 10.0366 18.3446 10.0435 18.6026 9.91708L19.4099 9.51726L20.1936 10.2778L19.7804 11.0625C19.6514 11.3095 19.6597 11.6002 19.8041 11.8403C20.0574 12.2619 20.2504 12.7123 20.377 13.1787C20.4516 13.4522 20.6517 13.659 20.9275 13.7451L21.7893 14.0174V15.0916L20.9275 15.3639C20.6528 15.4501 20.4516 15.6557 20.377 15.9303C20.2504 16.3991 20.0574 16.8506 19.8041 17.271C19.6585 17.5135 19.6502 17.7961 19.7816 18.0477L20.1936 18.8312L19.4099 19.5918L18.6062 19.1954C18.3469 19.0633 18.0522 19.0713 17.8 19.2161C17.3692 19.4608 16.9051 19.6469 16.421 19.7698C16.1404 19.8411 15.9273 20.0375 15.8374 20.3064L15.558 21.1416H14.45L14.1707 20.3064C14.0831 20.0421 13.8653 19.8422 13.5871 19.7698C13.1005 19.6458 12.6365 19.4596 12.2104 19.2184C11.9618 19.0736 11.6587 19.0656 11.4054 19.1931L10.5945 19.5941ZM12.0588 17.4514C12.0789 17.4744 12.1014 17.4951 12.1263 17.5134C12.878 18.2016 13.8889 18.6255 15.0016 18.6255C16.1144 18.6255 17.1253 18.2028 17.877 17.5134C17.9018 17.4951 17.9243 17.4732 17.9444 17.4503C18.7151 16.7115 19.1933 15.6879 19.1933 14.5562C19.1933 12.3125 17.3123 10.4869 15.0004 10.4869C12.6885 10.4869 10.8076 12.3124 10.8076 14.5562C10.8088 15.6879 11.2882 16.7126 12.0588 17.4514ZM12.9502 17.0079C13.1609 16.5243 13.6569 16.1922 14.2121 16.1922H15.79C16.3452 16.1922 16.84 16.5231 17.0519 17.0079C16.492 17.4503 15.7782 17.7156 15.0016 17.7156C14.2251 17.7156 13.5113 17.4502 12.9502 17.0079ZM15.0016 14.7986C14.5447 14.7986 14.173 14.4379 14.173 13.9944C14.173 13.551 14.5447 13.1902 15.0016 13.1902C15.4585 13.1902 15.8302 13.551 15.8302 13.9944C15.8302 14.4379 15.4585 14.7986 15.0016 14.7986ZM15.0016 11.3969C16.7962 11.3969 18.2569 12.8146 18.2569 14.5563C18.2569 15.1985 18.058 15.7971 17.7171 16.2957C17.3596 15.7707 16.7843 15.4042 16.132 15.3088C16.5203 14.994 16.7677 14.5218 16.7677 13.9933C16.7677 13.0478 15.9758 12.2804 15.0028 12.2804C14.0297 12.2804 13.2378 13.049 13.2378 13.9933C13.2378 14.5218 13.4852 14.994 13.8735 15.3088C13.2212 15.4053 12.6447 15.7707 12.2884 16.2957C11.9475 15.796 11.7487 15.1985 11.7487 14.5563C11.7463 12.8146 13.206 11.3969 15.0016 11.3969Z" fill="#006FC9"/>
</svg>
