<svg width="43" height="43" viewBox="0 0 43 43" fill="none" xmlns="http://www.w3.org/2000/svg">
<path d="M30.9851 40.5884L29.6575 41.9258C22.8203 48.8799 -5.78963 20.0602 1.04755 13.106L2.37516 11.7686L10.8055 20.2608C9.94253 23.8716 19.0367 32.9655 22.5548 32.0963L30.9851 40.5884Z" fill="#006FC9"/>
<path d="M31.9143 39.6523L32.5117 39.0505C33.5074 38.0475 33.5074 36.4427 32.5117 35.4397L27.8651 30.759C26.8694 29.756 25.2762 29.756 24.2805 30.759L23.6831 31.3608L31.9143 39.6523Z" fill="#006FC9"/>
<path d="M11.6022 19.1909L12.1997 18.5891C13.1954 17.5861 13.1954 15.9813 12.1997 14.9783L7.55304 10.2975C6.55733 9.29454 4.9642 9.29454 3.96849 10.2975L3.30469 10.8325L11.6022 19.1909Z" fill="#006FC9"/>
<path d="M29.6574 26.8806C22.2892 26.8806 16.3813 20.8626 16.3813 13.4403C16.3813 6.01805 22.3556 0 29.6574 0C37.0257 0 42.9999 6.01805 42.9999 13.4403C42.9999 20.8626 37.0257 26.8806 29.6574 26.8806ZM29.6574 1.40421C23.0194 1.40421 17.709 6.82046 17.709 13.5072C17.709 20.1939 23.0194 25.5433 29.6574 25.5433C36.2955 25.5433 41.6723 20.127 41.6723 13.4403C41.6723 6.75359 36.2955 1.40421 29.6574 1.40421Z" fill="#006FC9"/>
<path d="M38.5525 13.5072C38.5525 13.106 38.818 12.8385 39.2163 12.8385H40.2784C40.212 11.3674 39.8137 9.96321 39.2163 8.7596L38.287 9.29454C37.955 9.49514 37.5568 9.3614 37.3576 9.02707C37.1585 8.69273 37.2912 8.29153 37.6231 8.09092L38.5525 7.55599C37.7559 6.35238 36.7602 5.34937 35.5654 4.54696L35.0343 5.4831C34.8352 5.81744 34.4369 5.8843 34.105 5.75057C33.7731 5.54997 33.7067 5.14876 33.8395 4.81443L34.3705 3.87829C33.1093 3.27648 31.7817 2.87528 30.3213 2.80841V3.87829C30.3213 4.27949 30.0558 4.54696 29.6575 4.54696C29.2592 4.54696 28.9937 4.27949 28.9937 3.87829V2.80841C27.5333 2.87528 26.1393 3.27648 24.9445 3.87829L25.4755 4.81443C25.6747 5.14876 25.5419 5.54997 25.21 5.75057C24.8781 5.95117 24.4798 5.81744 24.2807 5.4831L23.7496 4.54696C22.5548 5.34937 21.5591 6.35238 20.7625 7.55599L21.6918 8.09092C22.0237 8.29153 22.0901 8.69273 21.9574 9.02707C21.7582 9.3614 21.3599 9.42827 21.028 9.29454L20.0987 8.7596C19.5013 10.0301 19.103 11.3674 19.0366 12.8385H20.0987C20.497 12.8385 20.7625 13.106 20.7625 13.5072C20.7625 13.9084 20.497 14.1758 20.0987 14.1758H19.0366C19.103 15.6469 19.5013 17.0511 20.0987 18.2547L21.028 17.7198C21.3599 17.5192 21.7582 17.6529 21.9574 17.9873C22.1565 18.3216 22.0237 18.7228 21.6918 18.9234L20.7625 19.4584C21.5591 20.662 22.5548 21.665 23.7496 22.4674L24.2807 21.5312C24.4798 21.1969 24.8781 21.13 25.21 21.2638C25.5419 21.4644 25.6083 21.8656 25.4755 22.1999L24.9445 23.1361C26.2057 23.7379 27.5333 24.1391 28.9937 24.2059V23.1361C28.9937 22.7349 29.2592 22.4674 29.6575 22.4674C30.0558 22.4674 30.3213 22.7349 30.3213 23.1361V24.2059C31.7817 24.1391 33.1757 23.7379 34.3705 23.1361L33.8395 22.1999C33.6403 21.8656 33.7731 21.4644 34.105 21.2638C34.4369 21.0632 34.8352 21.1969 35.0343 21.5312L35.5654 22.4674C36.7602 21.665 37.7559 20.662 38.5525 19.4584L37.6231 18.8566C37.2912 18.656 37.2249 18.2547 37.3576 17.9204C37.4904 17.5861 37.955 17.5192 38.287 17.6529L39.2163 18.1879C39.8137 16.9174 40.212 15.5801 40.2784 14.109H39.2163C38.8844 14.1758 38.5525 13.8415 38.5525 13.5072ZM33.3084 14.1758H29.6575C29.2592 14.1758 28.9937 13.9084 28.9937 13.5072V8.7596C28.9937 8.35839 29.2592 8.09092 29.6575 8.09092C30.0558 8.09092 30.3213 8.35839 30.3213 8.7596V12.8385H33.3084C33.7067 12.8385 33.9722 13.106 33.9722 13.5072C33.9722 13.8415 33.6403 14.1758 33.3084 14.1758Z" fill="#006FC9"/>
</svg>
