<svg width="48" height="54" viewBox="0 0 48 54" fill="none" xmlns="http://www.w3.org/2000/svg">
<path d="M19.8862 18.915V20.2617H28.1152V18.915C28.1152 16.6865 26.2688 14.8724 24.0007 14.8724C21.7326 14.8724 19.8862 16.6865 19.8862 18.915Z" fill="#006FC9"/>
<path d="M24.0008 24.3044C22.6765 24.3044 21.6016 25.3605 21.6016 26.6618C21.6016 27.4627 22.0079 28.1676 22.6302 28.5921V31.0405C22.6302 31.7833 23.2422 32.3872 24.0008 32.3872C24.7594 32.3872 25.3714 31.7833 25.3714 31.0405V28.5921C25.9937 28.1651 26.4 27.4627 26.4 26.6618C26.4 25.3605 25.3251 24.3044 24.0008 24.3044Z" fill="#006FC9"/>
<path d="M44.3288 6.6584C37.1281 5.9509 30.5351 3.77802 24.7308 0.202765C24.2936 -0.0675883 23.7047 -0.0675883 23.2675 0.202765C17.4661 3.77796 10.8728 5.9509 3.67214 6.6584C1.5789 6.86559 0 8.59131 0 10.6732V20.2818C0 35.0831 9.44813 48.5979 23.3853 53.8585C23.5782 53.952 23.789 54 23.9999 54C24.167 54 24.3368 53.9697 24.4962 53.909C38.5545 48.5778 48 35.0476 48 20.2437V10.6727C48 8.59067 46.4211 6.86501 44.3279 6.65783L44.3288 6.6584ZM44.5731 19.2262C44.5731 32.3949 36.7273 44.5462 24.5847 50.18C24.3995 50.2659 24.1989 50.3089 23.9984 50.3089C23.7978 50.3089 23.5998 50.2659 23.4146 50.18C11.272 44.5607 3.42886 32.4253 3.42886 19.2663V11.181C3.42886 10.5114 3.93031 9.94291 4.60408 9.84692C11.3084 8.89182 17.6163 6.87302 23.3529 3.84866C23.7566 3.63389 24.2427 3.63389 24.6515 3.84866C30.386 6.8756 36.6941 8.89441 43.4003 9.84692C44.074 9.94294 44.5755 10.5114 44.5755 11.181V19.2236L44.5731 19.2262Z" fill="#006FC9"/>
<path d="M6.17236 12.3382V19.2689C6.17236 31.1769 13.1492 42.1756 23.9982 47.4666C34.8525 42.1606 41.8319 31.1472 41.8319 19.2262V12.3388C35.4957 11.3181 29.5063 9.37759 24.0035 6.56287C18.4978 9.37759 12.5086 11.3181 6.175 12.3388L6.17236 12.3382ZM30.8591 18.9151V20.3325C32.4226 20.6458 33.603 22.0052 33.603 23.6324V33.0644C33.603 34.9215 32.0652 36.4324 30.1752 36.4324H17.8318C15.9417 36.4324 14.4039 34.9215 14.4039 33.0644V23.6324C14.4039 22.0052 15.5843 20.6459 17.1478 20.3325V18.9151C17.1478 15.2009 20.2234 12.1765 24.0061 12.1765C27.7863 12.1765 30.8644 15.1984 30.8644 18.9151H30.8591Z" fill="#006FC9"/>
</svg>
