<svg width="48" height="46" viewBox="0 0 48 46" fill="none" xmlns="http://www.w3.org/2000/svg">
<path d="M47.0785 0H0.921546C0.412906 0 0 0.410535 0 0.916277V4.73603C0 5.24177 0.412896 5.65231 0.921546 5.65231H47.0765C47.5871 5.65231 48 5.24178 48 4.73603V0.916277C48 0.410545 47.5872 0 47.0785 0ZM7.3428 2.52071H6.84413C6.56289 2.52071 6.3335 2.29264 6.3335 2.013C6.3335 1.73336 6.56289 1.50528 6.84413 1.50528H7.3428C7.62405 1.50528 7.85344 1.73336 7.85344 2.013C7.85344 2.29462 7.62405 2.52071 7.3428 2.52071ZM13.0854 2.52071H9.30952C9.02827 2.52071 8.79888 2.29264 8.79888 2.013C8.79888 1.73336 9.02827 1.50528 9.30952 1.50528H13.0854C13.3667 1.50528 13.5961 1.73336 13.5961 2.013C13.5961 2.29462 13.3667 2.52071 13.0854 2.52071Z" fill="#006FC9"/>
<path d="M38.1804 44.9846H34.8214L25.7315 35.9488V34.4098H22.2688V35.9528L13.1851 44.9846H9.82607C9.54482 44.9846 9.31543 45.2126 9.31543 45.4923C9.31543 45.7719 9.54482 46 9.82607 46H38.1822C38.4635 46 38.6929 45.7719 38.6929 45.4923C38.6909 45.2146 38.4616 44.9846 38.1804 44.9846ZM22.269 44.9846H17.7191L22.269 40.4668V44.9846ZM25.7317 44.9846V40.4608L30.2875 44.9846H25.7317Z" fill="#006FC9"/>
<path d="M2.67115 29.0987C2.67115 31.4707 4.606 33.3944 6.99563 33.3944H41.0086C43.3983 33.3944 45.3331 31.4706 45.3331 29.0987L45.3351 6.66776H2.6709L2.67115 29.0987ZM19.2929 25.5149C16.1214 25.5149 13.4726 23.2956 12.8124 20.3408L12.3895 20.9655C12.2918 21.1123 12.1282 21.1896 11.9667 21.1896C11.8689 21.1896 11.7732 21.1638 11.6854 21.1024C11.45 20.9497 11.3902 20.6303 11.5418 20.4023L12.7366 18.6352C12.7466 18.6193 12.7665 18.6094 12.7825 18.5896L12.8323 18.538C12.8682 18.5122 12.8982 18.4924 12.9341 18.4725C12.954 18.4626 12.9799 18.4527 13.0059 18.4428C13.0418 18.4329 13.0777 18.4269 13.1176 18.423C13.1335 18.423 13.1475 18.413 13.1634 18.413C13.1794 18.413 13.1934 18.423 13.2093 18.423C13.2392 18.4289 13.2711 18.4329 13.3011 18.4428C13.341 18.4527 13.3769 18.4686 13.4088 18.4825C13.4188 18.4924 13.4347 18.4924 13.4447 18.4983L15.216 19.6863C15.4514 19.843 15.5112 20.1583 15.3536 20.3923C15.2 20.6204 14.8789 20.6858 14.6435 20.5292L13.7699 19.9401C14.2546 22.5303 16.5425 24.4997 19.2894 24.4997C19.5706 24.4997 19.8 24.7277 19.8 25.0074C19.804 25.287 19.5721 25.5149 19.2929 25.5149ZM29.5613 11.4654C29.5613 10.8109 30.1018 10.2714 30.7661 10.2714H39.1614C39.8197 10.2714 40.3623 10.8089 40.3623 11.4654V14.1467C40.3623 14.8072 39.8217 15.3407 39.1614 15.3407H30.7661C30.1018 15.3407 29.5613 14.8072 29.5613 14.1467V11.4654ZM27.9835 18.0616H41.9382C42.2194 18.0616 42.4488 18.2897 42.4488 18.5694C42.4488 18.849 42.2194 19.0771 41.9382 19.0771H27.9835C27.7023 19.0771 27.4729 18.849 27.4729 18.5694C27.4729 18.2897 27.7023 18.0616 27.9835 18.0616ZM27.9835 21.1833H41.9382C42.2194 21.1833 42.4488 21.4074 42.4488 21.691C42.4488 21.9706 42.2194 22.1987 41.9382 22.1987H27.9835C27.7023 22.1987 27.4729 21.9706 27.4729 21.691C27.4729 21.4074 27.7023 21.1833 27.9835 21.1833ZM27.9835 24.301H35.8882C36.1694 24.301 36.3988 24.529 36.3988 24.8087C36.3988 25.0883 36.1694 25.3164 35.8882 25.3164H27.9835C27.7023 25.3164 27.4729 25.0883 27.4729 24.8087C27.4729 24.529 27.7023 24.301 27.9835 24.301ZM24.429 25.011C24.429 25.8796 23.7249 26.5797 22.8452 26.5797C21.9716 26.5797 21.2614 25.8796 21.2614 25.011C21.2614 24.1383 21.9715 23.4323 22.8452 23.4323C23.7249 23.4323 24.429 24.1383 24.429 25.011ZM20.4257 10.9477C21.3034 10.9477 22.0095 11.6537 22.0095 12.5224C22.0095 13.3951 21.3054 14.0972 20.4257 14.0972C19.5521 14.0972 18.8419 13.3971 18.8419 12.5224C18.8419 11.6538 19.552 10.9477 20.4257 10.9477ZM15.1039 12.5323L14.3579 11.7906C14.1584 11.5923 14.1584 11.2671 14.3579 11.0687C14.5574 10.8704 14.8785 10.8704 15.078 11.0687L16.6558 12.6374C16.8552 12.8358 16.8552 13.1551 16.6558 13.3534L15.078 14.9222C14.9802 15.0193 14.8486 15.0689 14.7209 15.0689C14.5873 15.0689 14.4556 15.0174 14.3579 14.9222C14.1584 14.7238 14.1584 14.4045 14.3579 14.2062L14.9962 13.5656C11.1265 14.0277 8.11282 17.312 8.11282 21.2824C8.11282 21.562 7.88742 21.7901 7.60218 21.7901C7.32094 21.7901 7.09155 21.562 7.09155 21.2824C7.09354 16.7149 10.616 12.9527 15.1039 12.5323ZM6.17948 23.4741C5.98001 23.2758 5.98001 22.9565 6.17948 22.7582C6.37895 22.5559 6.70605 22.5559 6.90555 22.7582L7.60569 23.4543L8.3098 22.7582C8.50927 22.5559 8.8304 22.5559 9.03588 22.7582C9.23535 22.9565 9.23535 23.2758 9.03588 23.4741L8.33176 24.1742L9.03588 24.8704C9.23535 25.0687 9.23535 25.3939 9.03588 25.5923C8.93415 25.6895 8.80051 25.7391 8.67285 25.7391C8.5392 25.7391 8.41154 25.6875 8.30981 25.5923L7.6057 24.8922L6.90556 25.5923C6.80384 25.6895 6.67618 25.7391 6.54253 25.7391C6.40889 25.7391 6.28123 25.6875 6.1795 25.5923C5.98004 25.394 5.98004 25.0687 6.1795 24.8704L6.88362 24.1742L6.17948 23.4741Z" fill="#006FC9"/>
<path d="M30.764 14.3271H39.1594C39.2591 14.3271 39.3389 14.2478 39.3389 14.1486V11.4693C39.3389 11.3701 39.2591 11.2908 39.1594 11.2908L30.764 11.2888C30.6643 11.2888 30.5845 11.3681 30.5845 11.4673V14.1467C30.5845 14.2458 30.6643 14.3271 30.764 14.3271ZM33.76 11.8798H35.0087C35.2899 11.8798 35.5193 12.1079 35.5193 12.3875C35.5193 12.6671 35.2899 12.8952 35.0087 12.8952H33.76C33.4787 12.8952 33.2494 12.6671 33.2494 12.3875C33.2494 12.1059 33.4787 11.8798 33.76 11.8798ZM31.905 11.8798H32.1523C32.4336 11.8798 32.6629 12.1079 32.6629 12.3875C32.6629 12.6671 32.4336 12.8952 32.1523 12.8952H31.905C31.6237 12.8952 31.3943 12.6671 31.3943 12.3875C31.3943 12.1059 31.6237 11.8798 31.905 11.8798Z" fill="#006FC9"/>
</svg>
