<svg width="36" height="36" viewBox="0 0 36 36" fill="none" xmlns="http://www.w3.org/2000/svg">
<path d="M20.7344 18.3512C20.7104 18.8762 20.5394 19.3832 20.2379 19.8137C19.9354 20.2583 19.5002 20.5959 18.9944 20.7782C18.4936 20.982 17.9425 21.0281 17.4149 20.9102C16.8847 20.7975 16.4007 20.5278 16.0259 20.1362C15.6549 19.7266 15.411 19.218 15.3239 18.6722C15.2266 18.1435 15.293 17.5977 15.5144 17.1077C15.7304 16.6172 16.0844 16.1987 16.5374 15.9077C16.9979 15.6227 17.5304 15.4712 18.0734 15.4697C18.7889 15.5087 19.4624 15.8177 19.9604 16.3322C20.2179 16.5998 20.4191 16.9164 20.5521 17.2632C20.685 17.61 20.747 17.98 20.7344 18.3512Z" fill="white"/>
<path d="M25.8975 12.0032C25.727 11.5815 25.4734 11.1985 25.1518 10.8769C24.8302 10.5553 24.4471 10.3016 24.0255 10.1312C23.6007 9.96662 23.1504 9.87778 22.695 9.86865H13.452C12.5377 9.87221 11.6619 10.237 11.0153 10.8835C10.3688 11.53 10.004 12.4059 10.0005 13.3202V22.7387C10.0018 23.193 10.0929 23.6426 10.2684 24.0617C10.444 24.4808 10.7006 24.861 11.0235 25.1807C11.6698 25.8219 12.5416 26.1843 13.452 26.1902H22.695C23.3758 26.1858 24.0404 25.9818 24.6064 25.6034C25.1725 25.2251 25.6151 24.6891 25.8795 24.0617C26.0547 23.6425 26.1455 23.1929 26.1465 22.7387V13.3337C26.1417 12.879 26.0574 12.4287 25.8975 12.0032ZM22.242 20.1647C22.0226 20.7126 21.6939 21.2102 21.276 21.6272C20.856 22.0517 20.3595 22.3922 19.8135 22.6367C19.222 22.8847 18.586 23.009 17.9446 23.0018C17.3033 22.9946 16.6702 22.856 16.0845 22.5947C15.1423 22.1705 14.3695 21.4428 13.8896 20.5278C13.4097 19.6128 13.2503 18.5634 13.437 17.5472C13.6157 16.6499 14.0472 15.8224 14.6805 15.1622C15.3254 14.5157 16.1459 14.0728 17.0402 13.8883C17.9346 13.7038 18.8633 13.7858 19.7115 14.1242C20.562 14.4692 21.2865 15.0662 21.7875 15.8357C22.2938 16.5776 22.5688 17.453 22.578 18.3512C22.599 18.9737 22.4835 19.5917 22.242 20.1647ZM23.85 12.9392C23.8641 13.0561 23.8533 13.1746 23.8182 13.287C23.7831 13.3994 23.7245 13.5031 23.6464 13.5912C23.5683 13.6793 23.4724 13.7498 23.365 13.7981C23.2576 13.8464 23.1412 13.8714 23.0235 13.8714C22.9057 13.8714 22.7893 13.8464 22.682 13.7981C22.5746 13.7498 22.4787 13.6793 22.4005 13.5912C22.3224 13.5031 22.2639 13.3994 22.2288 13.287C22.1937 13.1746 22.1829 13.0561 22.197 12.9392C22.1794 12.8204 22.1876 12.6992 22.2211 12.5839C22.2546 12.4686 22.3125 12.3619 22.3909 12.271C22.4694 12.1801 22.5665 12.1072 22.6756 12.0572C22.7848 12.0072 22.9034 11.9813 23.0235 11.9813C23.1435 11.9813 23.2622 12.0072 23.3713 12.0572C23.4805 12.1072 23.5776 12.1801 23.656 12.271C23.7345 12.3619 23.7924 12.4686 23.8259 12.5839C23.8593 12.6992 23.8676 12.8204 23.85 12.9392Z" fill="white"/>
<path d="M25.3125 3.375H10.6875C8.7481 3.375 6.88814 4.14542 5.51678 5.51678C4.14542 6.88814 3.375 8.7481 3.375 10.6875V25.3125C3.375 26.2728 3.56414 27.2237 3.93163 28.1109C4.29912 28.9981 4.83775 29.8042 5.51678 30.4832C6.88814 31.8546 8.7481 32.625 10.6875 32.625H25.3125C26.2728 32.625 27.2237 32.4359 28.1109 32.0684C28.9981 31.7009 29.8042 31.1622 30.4832 30.4832C31.1622 29.8042 31.7009 28.9981 32.0684 28.1109C32.4359 27.2237 32.625 26.2728 32.625 25.3125V10.6875C32.625 9.72721 32.4359 8.77632 32.0684 7.88913C31.7009 7.00193 31.1622 6.19581 30.4832 5.51678C29.8042 4.83775 28.9981 4.29912 28.1109 3.93163C27.2237 3.56414 26.2728 3.375 25.3125 3.375ZM28.413 22.593C28.428 23.358 28.2825 24.1215 27.9885 24.8295C27.3951 26.2504 26.2654 27.3801 24.8445 27.9735C24.135 28.2675 23.3745 28.4115 22.6065 28.398H13.6125C12.8456 28.409 12.0844 28.2651 11.3745 27.975C10.6712 27.6793 10.0308 27.2522 9.4875 26.7165C8.94945 26.1755 8.52243 25.5345 8.2305 24.8295C7.92086 24.1241 7.76148 23.3619 7.7625 22.5915V13.527C7.75198 12.76 7.89636 11.9988 8.187 11.289C8.76714 9.8621 9.88664 8.72158 11.3025 8.115C12.038 7.82904 12.8238 7.69485 13.6125 7.7205H22.68C23.4402 7.71353 24.1941 7.8587 24.8974 8.14748C25.6007 8.43625 26.2391 8.8628 26.775 9.402C27.3105 9.945 27.7365 10.587 28.032 11.289C28.3245 11.9985 28.47 12.759 28.4565 13.527L28.413 22.593Z" fill="white"/>
</svg>
