<svg width="24" height="36" viewBox="0 0 24 36" fill="none" xmlns="http://www.w3.org/2000/svg">
<path d="M18.7484 28.8313C18.7484 29.2936 18.3695 29.6679 17.9057 29.6679L6.39507 29.6712C5.29434 29.6712 5.29434 27.9946 6.39507 27.9946H17.9091C18.3729 27.9946 18.7484 28.369 18.7484 28.8313ZM15.6618 34.3267H8.64586C8.18205 34.3267 7.80317 34.701 7.80317 35.1633C7.80317 35.6256 8.18205 36 8.64586 36H15.6618C16.1256 36 16.5045 35.6256 16.5045 35.1633C16.5045 34.7043 16.1288 34.3267 15.6618 34.3267ZM17.909 31.159H6.39499C5.29426 31.159 5.29426 32.8356 6.39499 32.8356H17.909C18.3728 32.8356 18.7517 32.4612 18.7517 31.9989C18.7484 31.5366 18.3728 31.159 17.909 31.159ZM24.301 12.1137C24.301 15.0795 23.2231 17.9314 21.2471 20.1451C20.0256 21.5189 19.405 23.15 19.405 24.9861C19.405 25.8195 18.7288 26.4999 17.8861 26.4999L6.41815 26.5032C5.58198 26.5032 4.90586 25.8228 4.90586 24.9894C4.90586 23.15 4.28527 21.5222 3.05392 20.1484C1.0876 17.9313 0 15.0795 0 12.1137C0 5.43664 5.44811 0 12.1503 0C18.8527 0.00325533 24.301 5.43672 24.301 12.1137ZM10.6707 4.10508C10.5368 3.66233 10.073 3.40514 9.62225 3.53861C6.18937 4.54455 3.69401 7.4811 3.25301 11.0199C3.19749 11.4789 3.52085 11.8989 3.98466 11.9542C4.43867 12.0096 4.8633 11.6873 4.92208 11.225C5.27484 8.35036 7.30975 5.96403 10.0959 5.14686C10.5433 5.01338 10.7948 4.54783 10.6707 4.10508ZM36.54 16.8047C36.54 17.267 36.1709 17.6414 35.6973 17.6414H29.4358V20.1351H35.6973C36.1709 20.1351 36.54 20.5095 36.54 20.9718V22.7331L41.0931 18.885L36.54 15.0402V16.8047ZM73.919 24.2241C73.3834 25.5524 72.6583 26.8025 71.7698 27.9288C71.4236 28.3683 70.8161 28.4823 70.3294 28.2023C67.1382 26.3695 63.1469 28.6678 63.1469 32.3368C63.1469 32.8968 62.7452 33.3623 62.1932 33.4404C60.7756 33.6423 59.3123 33.6423 57.8948 33.4404C57.3428 33.3623 56.9411 32.8968 56.9411 32.3368C56.9411 28.658 52.9464 26.3727 49.7586 28.2023C49.2719 28.4823 48.6644 28.3683 48.3181 27.9288C47.4297 26.8024 46.7046 25.5555 46.1689 24.2241C45.9631 23.7032 46.1624 23.1237 46.6491 22.8437C48.1287 21.9941 49.0498 20.4118 49.0498 18.7092C49.0498 17.0098 48.1287 15.4244 46.6491 14.5747C46.1624 14.2948 45.9631 13.7153 46.1689 13.1944C46.7046 11.8629 47.4297 10.6193 48.3181 9.48963C48.6643 9.05014 49.2718 8.93619 49.7586 9.21617C52.9595 11.0555 56.9411 8.74737 56.9411 5.08166C56.9411 4.52171 57.3428 4.05614 57.8948 3.97805C59.3123 3.77621 60.7756 3.77621 62.1932 3.97805C62.7452 4.05944 63.1469 4.52172 63.1469 5.08166C63.1469 8.74737 67.1317 11.0524 70.3294 9.21617C70.8161 8.93619 71.4236 9.05014 71.7698 9.48963C72.6583 10.6161 73.3834 11.863 73.919 13.1944C74.1248 13.7153 73.9256 14.2948 73.4389 14.5747C70.2478 16.3946 70.238 21.0142 73.4389 22.8406C73.9288 23.1238 74.1248 23.7032 73.919 24.2241ZM66.2498 18.7124C66.2498 15.3006 63.4702 12.5236 60.0439 12.5236C56.6175 12.5236 53.838 15.3006 53.838 18.7124C53.838 22.1243 56.6175 24.9012 60.0439 24.9012C63.4702 24.9012 66.2498 22.1243 66.2498 18.7124Z" fill="white"/>
</svg>
