<svg width="58" height="59" viewBox="0 0 58 59" fill="none" xmlns="http://www.w3.org/2000/svg">
<path d="M36.6579 48.7634H21.3419C20.9025 48.7634 20.5259 49.1357 20.5259 49.5699V53.2923C20.5259 53.7266 20.9025 54.0989 21.3419 54.0989H23.1622C23.6016 56.8907 26.0497 59 28.9999 59C31.9501 59 34.3354 56.8907 34.8376 54.0989H36.6579C37.0973 54.0989 37.4739 53.7266 37.4739 53.2923V49.5699C37.4112 49.1357 37.0973 48.7634 36.6579 48.7634Z" fill="white"/>
<path d="M21.5302 46.468H28.0583V12.0979C23.225 12.3461 18.7683 14.5175 15.6925 18.3019C13.8722 20.5353 12.6796 23.2031 12.3657 25.9949C11.8635 30.2756 13.0562 34.3702 15.8809 37.6584C17.8895 40.0779 19.2705 42.3734 20.1493 44.793L20.4631 45.7236C20.5886 46.1578 21.028 46.468 21.5302 46.468Z" fill="white"/>
<path d="M45.1318 25.8087L41.4911 25.3124C41.1773 24.5059 41.0517 24.2577 40.7379 23.4512L42.9349 20.5353C43.3743 19.9149 43.3115 19.1084 42.8093 18.55L39.9846 15.7582C39.4197 15.1999 38.6037 15.1378 37.976 15.6342L35.0258 17.8055C34.2098 17.4953 33.9587 17.3713 33.1427 17.0611L32.6405 13.4628C32.5149 12.7183 31.8872 12.1599 31.134 12.1599H30.0669V23.0789C33.9587 23.6373 36.7833 27.6699 35.1513 31.8886C34.5236 33.4396 33.2682 34.7425 31.6989 35.3008C31.134 35.4869 30.6318 35.611 30.1297 35.6731V46.5921H31.1968C31.95 46.5921 32.6405 46.0337 32.7033 45.2893L33.2054 41.6909C34.0214 41.3807 34.2725 41.2567 35.0885 40.9465L38.0388 43.1179C38.6665 43.5521 39.4825 43.4901 40.0474 42.9938L42.8721 40.202C43.437 39.6436 43.4998 38.8371 42.9976 38.2167L40.8007 35.3008C41.1773 34.4943 41.2401 34.2461 41.5539 33.4396L45.1946 32.8813C45.9478 32.7572 46.5128 32.1368 46.5128 31.3923V27.4217C46.45 26.5532 45.8851 25.9328 45.1318 25.8087Z" fill="white"/>
<path d="M29.0002 8.0652C29.879 8.0652 30.6322 7.32071 30.6322 6.45216V1.61304C30.6322 0.744479 29.879 0 29.0002 0C28.1214 0 27.3682 0.744479 27.3682 1.61304V6.45216C27.3682 7.32071 28.1214 8.0652 29.0002 8.0652Z" fill="white"/>
<path d="M16.3202 10.2367C16.6341 10.733 17.1362 11.0432 17.7639 11.0432C18.0778 11.0432 18.3289 10.9811 18.58 10.795C18.9566 10.6089 19.2077 10.2367 19.3332 9.80238C19.4588 9.3681 19.396 8.93382 19.1449 8.56158L16.6969 4.40491C16.383 3.90859 15.8808 3.59839 15.2531 3.59839C14.9393 3.59839 14.6882 3.66043 14.4371 3.84655C14.0605 4.03267 13.8094 4.40491 13.6839 4.83919C13.5583 5.27347 13.6211 5.70775 13.8722 6.07999L16.3202 10.2367Z" fill="white"/>
<path d="M10.2944 16.1303L6.08878 13.7108C5.8377 13.5867 5.58661 13.5247 5.27276 13.5247C4.70783 13.5247 4.14289 13.8349 3.82904 14.3312C3.64073 14.7034 3.57796 15.1377 3.64073 15.572C3.76627 16.0063 4.01735 16.3165 4.39397 16.5646L8.5996 18.9842C8.85068 19.1083 9.10177 19.2323 9.41562 19.2323C9.98055 19.2323 10.5455 18.9221 10.8593 18.4258C11.0477 18.0536 11.1104 17.6193 11.0477 17.185C10.9849 16.6887 10.671 16.3785 10.2944 16.1303Z" fill="white"/>
<path d="M8.0974 28.6624C8.0974 27.7938 7.34416 27.0493 6.46537 27.0493H1.63203C0.753247 27.0493 0 27.7938 0 28.6624C0 29.5309 0.753247 30.2754 1.63203 30.2754H6.52814C7.40693 30.2754 8.0974 29.593 8.0974 28.6624Z" fill="white"/>
<path d="M9.47829 38.2166C9.16443 38.2166 8.91335 38.2786 8.66227 38.4647L4.45664 40.8843C4.08002 41.0704 3.82894 41.4426 3.7034 41.8769C3.57785 42.3112 3.64063 42.7455 3.89171 43.1177C4.20556 43.614 4.70772 43.9242 5.33543 43.9242C5.64928 43.9242 5.90037 43.8622 6.15145 43.6761L10.3571 41.2565C10.7337 41.0704 10.9848 40.6982 11.1103 40.2639C11.2359 39.8296 11.1731 39.3953 10.922 39.0231C10.6082 38.5268 10.106 38.2166 9.47829 38.2166Z" fill="white"/>
<path d="M53.5434 40.8223L49.3378 38.4027C49.0867 38.2786 48.8356 38.1545 48.5218 38.1545C47.9568 38.1545 47.3919 38.4647 47.0781 38.9611C46.8898 39.3333 46.827 39.7676 46.8897 40.2019C46.9525 40.6361 47.2664 40.9463 47.643 41.1945L51.8486 43.6141C52.0997 43.7381 52.3508 43.8622 52.6646 43.8622C53.2296 43.8622 53.7945 43.552 54.1084 43.0557C54.2967 42.6835 54.3594 42.2492 54.2967 41.8149C54.1711 41.3806 53.9201 41.0084 53.5434 40.8223Z" fill="white"/>
<path d="M56.368 27.0493H51.4719C50.5931 27.0493 49.8398 27.7938 49.8398 28.6624C49.8398 29.5309 50.5931 30.2754 51.4719 30.2754H56.368C57.2468 30.2754 58 29.5309 58 28.6624C58 27.7938 57.3095 27.0493 56.368 27.0493Z" fill="white"/>
<path d="M48.5217 19.1703C48.8355 19.1703 49.0866 19.1083 49.3377 18.9222L53.5433 16.5026C53.92 16.3165 54.171 15.9442 54.2966 15.51C54.4221 15.0757 54.3593 14.6414 54.1083 14.2692C53.7944 13.7728 53.2922 13.4626 52.7273 13.4626C52.4135 13.4626 52.1624 13.5247 51.9113 13.7108L47.7057 16.1304C47.329 16.3165 47.078 16.6887 46.9524 17.123C46.8269 17.5573 46.8896 17.9916 47.1407 18.3638C47.3918 18.8601 47.894 19.1703 48.5217 19.1703Z" fill="white"/>
<path d="M39.4198 10.7951C39.6709 10.9191 39.922 10.9812 40.2358 10.9812C40.8008 10.9812 41.3657 10.671 41.6796 10.1747L44.1276 6.01798C44.3159 5.64574 44.3787 5.21146 44.3159 4.77718C44.1904 4.3429 43.9393 4.0327 43.5627 3.78454C43.3116 3.66046 43.0605 3.53638 42.7467 3.53638C42.1817 3.53638 41.6168 3.84658 41.3029 4.3429L38.8549 8.49957C38.4155 9.36813 38.6666 10.3608 39.4198 10.7951Z" fill="white"/>
</svg>
