<svg width="45" height="43" viewBox="0 0 45 43" fill="none" xmlns="http://www.w3.org/2000/svg">
<path d="M42.2449 0H2.68446C1.20094 0 0 1.19055 0 2.66124V6.443H44.8587V2.59121C44.9294 1.19055 43.7284 0 42.2449 0ZM27.4804 4.90228C26.7033 4.90228 26.0675 4.27199 26.0675 3.50163C26.0675 2.73127 26.7033 2.10098 27.4804 2.10098C28.2575 2.10098 28.8932 2.73127 28.8932 3.50163C28.8932 4.27199 28.2575 4.90228 27.4804 4.90228ZM32.4961 4.90228C31.719 4.90228 31.0832 4.27199 31.0832 3.50163C31.0832 2.73127 31.719 2.10098 32.4961 2.10098C33.2732 2.10098 33.909 2.73127 33.909 3.50163C33.909 4.27199 33.2732 4.90228 32.4961 4.90228ZM37.4411 4.90228C36.6641 4.90228 36.0283 4.27199 36.0283 3.50163C36.0283 2.73127 36.6641 2.10098 37.4411 2.10098C38.2182 2.10098 38.854 2.73127 38.854 3.50163C38.854 4.27199 38.2182 4.90228 37.4411 4.90228Z" fill="white"/>
<path d="M22.9594 25.0016C23.9484 25.2817 24.7255 26.1921 24.7255 27.2426C24.7255 28.5032 23.7364 29.5537 22.4649 29.5537C21.1933 29.5537 20.2043 28.5032 20.2043 27.2426C20.2043 26.1221 20.9107 25.2117 21.9704 25.0016V18.4885L16.1069 29.9739C18.1556 30.3941 19.4978 32.425 19.2153 34.456H25.7851C25.5732 32.425 26.9154 30.3941 28.8934 29.9739L23.03 18.4885V25.0016H22.9594Z" fill="white"/>
<path d="M0.0708008 7.42334V40.3387C0.0708008 41.8093 1.27174 42.9999 2.75526 42.9999H42.3157C43.7992 42.9999 45.0002 41.8093 45.0002 40.3387V7.42334H0.0708008ZM30.165 30.7442C30.0943 30.8843 29.8824 30.9543 29.7411 30.9543C27.8338 30.9543 26.6328 32.7051 26.8447 34.4559H28.2576C28.5402 34.4559 28.8228 34.666 28.8228 35.0162V38.3777C28.8228 38.6579 28.6108 38.938 28.2576 38.938H16.6721C16.3895 38.938 16.1069 38.7279 16.1069 38.3777V35.0162C16.1069 34.736 16.3188 34.4559 16.6721 34.4559H18.0849C18.3675 32.7051 17.0959 30.9543 15.1885 30.9543C14.9766 30.9543 14.8353 30.8843 14.7647 30.6742C14.694 30.5341 14.694 30.324 14.7647 30.1839L21.9703 16.0373C22.041 15.8973 22.2529 15.7572 22.3942 15.7572C22.6061 15.7572 22.7474 15.8973 22.8181 16.0373L30.0943 30.1839C30.2356 30.394 30.2356 30.5341 30.165 30.7442ZM37.0881 14.5667C36.1697 14.5667 35.3926 13.9364 35.11 13.096H27.4099C31.2953 14.8468 34.0504 18.5585 34.4743 22.9005C35.3926 23.1106 36.0284 23.881 36.0284 24.8615C36.0284 25.982 35.11 26.8924 33.9797 26.8924C32.8494 26.8924 31.9311 25.982 31.9311 24.8615C31.9311 23.951 32.5669 23.1807 33.4146 22.9706C32.9907 18.0683 29.2466 14.1465 24.4429 13.3061C24.1603 14.0764 23.3832 14.6367 22.5355 14.6367C21.6878 14.6367 20.9107 14.0764 20.6281 13.3061C15.7537 14.1465 12.0802 18.0683 11.6564 22.9706C12.5041 23.2507 13.1399 23.951 13.1399 24.8615C13.1399 25.982 12.2215 26.8924 11.0912 26.8924C9.96091 26.8924 9.04254 25.982 9.04254 24.8615C9.04254 23.951 9.67834 23.1106 10.5967 22.9005C10.9499 18.4885 13.705 14.7768 17.6611 13.096H9.81962C9.60769 13.9364 8.83061 14.5667 7.8416 14.5667C6.7113 14.5667 5.79294 13.6562 5.79294 12.5357C5.79294 11.4152 6.7113 10.5048 7.8416 10.5048C8.75997 10.5048 9.53705 11.1351 9.81962 11.9755H20.4868C20.6987 11.1351 21.4758 10.5048 22.4648 10.5048C23.3832 10.5048 24.1603 11.1351 24.4429 11.9755H35.11C35.322 11.1351 36.0991 10.5048 37.0881 10.5048C38.2184 10.5048 39.1367 11.4152 39.1367 12.5357C39.0661 13.6562 38.1477 14.5667 37.0881 14.5667Z" fill="white"/>
<path d="M11.0207 23.8811C10.4556 23.8811 10.0317 24.3013 10.0317 24.8616C10.0317 25.4218 10.4556 25.842 11.0207 25.842C11.5859 25.842 12.0098 25.4218 12.0098 24.8616C12.0098 24.3013 11.5153 23.8811 11.0207 23.8811Z" fill="white"/>
<path d="M17.2373 37.8174H27.7632V35.5063C25.1494 35.5063 19.8511 35.5063 17.2373 35.5063V37.8174Z" fill="white"/>
<path d="M7.84155 11.5552C7.2764 11.5552 6.85254 11.9754 6.85254 12.5356C6.85254 13.0959 7.2764 13.5161 7.84155 13.5161C8.4067 13.5161 8.83056 13.0959 8.83056 12.5356C8.83056 11.9754 8.4067 11.5552 7.84155 11.5552Z" fill="white"/>
<path d="M37.0881 11.5552C36.523 11.5552 36.0991 11.9754 36.0991 12.5356C36.0991 13.0959 36.523 13.5161 37.0881 13.5161C37.6533 13.5161 38.0771 13.0959 38.0771 12.5356C38.0065 11.9754 37.5826 11.5552 37.0881 11.5552Z" fill="white"/>
<path d="M22.4646 11.5552C21.8994 11.5552 21.4756 11.9754 21.4756 12.5356C21.4756 13.0959 21.8994 13.5161 22.4646 13.5161C23.0297 13.5161 23.4536 13.0959 23.4536 12.5356C23.4536 11.9754 23.0297 11.5552 22.4646 11.5552Z" fill="white"/>
<path d="M22.4646 28.5732C23.1279 28.5732 23.6656 28.0088 23.6656 27.3126C23.6656 26.6164 23.1279 26.052 22.4646 26.052C21.8014 26.052 21.2637 26.6164 21.2637 27.3126C21.2637 28.0088 21.8014 28.5732 22.4646 28.5732Z" fill="white"/>
<path d="M32.9199 24.8616C32.9199 25.4218 33.3438 25.842 33.9089 25.842C34.4741 25.842 34.8979 25.4218 34.8979 24.8616C34.8979 24.3013 34.4741 23.8811 33.9089 23.8811C33.4144 23.8811 32.9199 24.3013 32.9199 24.8616Z" fill="white"/>
</svg>
