<svg width="54" height="54" viewBox="0 0 54 54" fill="none" xmlns="http://www.w3.org/2000/svg">
<path fill-rule="evenodd" clip-rule="evenodd" d="M9.59207 4.51634C10.0847 4.65382 10.5566 4.85087 11.003 5.10292C11.1464 5.19228 11.3315 5.19228 11.4749 5.10292L12.2497 4.56904H12.252C12.4325 4.43385 12.6892 4.45676 12.8442 4.62174L13.9567 5.73074C14.1233 5.88197 14.1464 6.13631 14.0099 6.31732L13.471 7.08493C13.3808 7.227 13.3808 7.41031 13.471 7.55466C13.7254 7.9923 13.9244 8.46205 14.0631 8.95009C14.1071 9.11277 14.2436 9.23422 14.4124 9.26171L15.3422 9.43127C15.555 9.46793 15.71 9.65124 15.71 9.86434V11.4775C15.7077 11.6905 15.5527 11.8739 15.3422 11.9128L14.4124 12.0778V12.0755C14.2435 12.103 14.1048 12.229 14.0631 12.394C13.9244 12.8821 13.7254 13.3495 13.471 13.7894C13.3785 13.9315 13.3785 14.1125 13.471 14.2523L14.0099 15.0267C14.1348 15.2009 14.1117 15.4369 13.9567 15.5835L12.8072 16.7567C12.6522 16.9194 12.3978 16.9423 12.215 16.8094L11.4402 16.2687V16.271C11.2945 16.1793 11.1117 16.1793 10.966 16.271C10.5219 16.5207 10.0477 16.7178 9.55737 16.8575C9.39315 16.8988 9.27056 17.0317 9.2428 17.1967L9.07164 18.1223V18.1246C9.03694 18.3354 8.84959 18.489 8.63448 18.4821H7.04081C6.82801 18.4844 6.64297 18.3332 6.60827 18.1246L6.43711 17.1989V17.1967C6.40936 17.0317 6.28676 16.8988 6.12254 16.8575C5.62987 16.7178 5.1534 16.5207 4.70699 16.271C4.56589 16.177 4.38085 16.177 4.23976 16.271L3.45796 16.8048C3.28217 16.924 3.04625 16.9034 2.8959 16.7521L1.74171 15.579C1.58905 15.43 1.56592 15.194 1.68851 15.0222L2.23439 14.2477H2.23207C2.32459 14.1056 2.32459 13.9246 2.23207 13.7825C1.97995 13.3426 1.78103 12.8752 1.63994 12.3871C1.60293 12.2221 1.46646 12.0961 1.29761 12.0709L0.363168 11.9059H0.360854C0.150369 11.867 2.5942e-05 11.6837 2.5942e-05 11.4729V9.84145C-0.00228753 9.62836 0.150375 9.44505 0.360854 9.40839L1.2953 9.23883L1.29761 9.23654C1.46415 9.21133 1.60062 9.08989 1.63994 8.92721C1.78103 8.43915 1.97995 7.97172 2.23207 7.52949C2.32459 7.38742 2.32459 7.20412 2.23207 7.06205L1.6862 6.29444L1.68851 6.29215C1.55436 6.11114 1.57748 5.86137 1.74171 5.70557L2.92598 4.56677V4.56906C3.07401 4.41554 3.31225 4.39262 3.48804 4.51636L4.26984 5.05024C4.41093 5.1396 4.59366 5.1396 4.73707 5.05024C5.18348 4.80049 5.65997 4.60343 6.15262 4.46366C6.2914 4.41783 6.40012 4.30555 6.43712 4.16349L6.60829 3.24237C6.64298 3.03386 6.82571 2.87805 7.04082 2.87805H8.66919C8.88661 2.87576 9.07166 3.03157 9.10635 3.24237L9.27983 4.16349C9.30527 4.33076 9.42786 4.46595 9.59208 4.50948L9.59207 4.51634ZM44.5884 4.21617C46.6955 4.21388 48.5922 5.48097 49.381 7.41488C50.172 9.35109 49.6932 11.5668 48.1759 13.015C47.748 13.4137 47.4542 13.9384 47.3408 14.5112H46.027V11.0742H46.4596C47.0864 11.0765 47.6507 10.703 47.8913 10.1301C48.1319 9.555 47.9977 8.89508 47.5536 8.45743C47.2645 8.16871 46.8713 8.00603 46.4619 8.00603C46.0524 8.00603 45.6592 8.16871 45.3701 8.45743C45.0763 8.74384 44.9121 9.13564 44.9144 9.54355V9.97203L44.2575 9.96974V9.54126V9.54355C44.2529 8.69804 43.5636 8.01291 42.7101 8.00605C42.3007 8.00605 41.9051 8.16873 41.616 8.45744C41.1765 8.89738 41.047 9.55501 41.2875 10.1256C41.5258 10.6961 42.0879 11.0696 42.71 11.0742H43.1426V14.4998H41.8287C41.7154 13.9269 41.424 13.4022 40.9937 13.0035C39.4764 11.5553 38.9976 9.33732 39.7886 7.40112C40.5796 5.46491 42.4787 4.20011 44.5881 4.20469L44.5884 4.21617ZM44.9145 14.4996V11.0741H44.2576V14.4996H44.9145ZM43.1381 9.97187V9.54339C43.1381 9.42882 43.0942 9.31655 43.0132 9.23635C42.9322 9.15386 42.8212 9.10803 42.7056 9.10803C42.465 9.11032 42.2707 9.3028 42.2661 9.54339C42.2661 9.65796 42.3124 9.76565 42.3956 9.84814C42.4789 9.92834 42.5899 9.97187 42.7056 9.96958L43.1381 9.97187ZM46.0224 9.97187H46.455L46.4527 9.96958C46.5683 9.97187 46.6793 9.92834 46.7626 9.84814C46.8459 9.76566 46.8921 9.65796 46.8921 9.54339C46.8875 9.3028 46.6932 9.11033 46.4527 9.10803C46.337 9.10803 46.226 9.15386 46.145 9.23635C46.0641 9.31655 46.0201 9.42882 46.0201 9.54339V9.97188L46.0224 9.97187ZM41.7873 15.5948H47.2715C47.6185 15.5994 47.9006 15.879 47.9029 16.2227C47.9053 16.5412 47.667 16.8092 47.3478 16.8459V17.515C47.3455 18.3994 46.6354 19.1258 45.7426 19.1556L45.5761 19.7422C45.5067 20.0057 45.2592 20.1867 44.9839 20.1775H44.1559C43.8806 20.1867 43.6355 20.0057 43.5638 19.7422L43.3972 19.1556C42.5021 19.1281 41.7897 18.4017 41.7873 17.515V16.8505C41.4381 16.8505 41.1536 16.5709 41.1536 16.2227C41.1536 15.8767 41.4381 15.5948 41.7873 15.5948ZM10.0478 42.9122C9.94368 43.2719 9.95293 43.6569 10.0778 44.0097C10.2143 44.3832 10.4456 44.7155 10.7463 44.9767C10.8041 45.8795 11.1164 46.7479 11.6483 47.4834C12.2405 48.2281 13.2235 48.6566 14.8102 48.6566H16.2027H16.2004C16.5196 48.6543 16.8249 48.7826 17.0469 49.0071C17.2713 49.2271 17.3962 49.5273 17.3962 49.8412V53.4478C17.3962 53.7525 17.646 54 17.9537 54H34.3208C34.6285 54 34.876 53.7525 34.876 53.4478V45.7236C34.869 44.7475 35.0587 43.7805 35.4334 42.8777C35.8289 41.991 36.4002 41.1936 37.1149 40.5314C40.9291 36.8904 42.65 31.6018 41.7017 26.4398C40.7556 21.2797 37.263 16.9283 32.3987 14.8524C27.5367 12.7764 21.9463 13.2461 17.5077 16.108C13.069 18.9699 10.3695 23.8416 10.3162 29.0862L6.36554 36.6479C6.20132 36.9596 6.13192 37.3101 6.16431 37.6584C6.20132 38.0044 6.33547 38.3344 6.55521 38.6071C6.77264 38.8889 7.05945 39.1112 7.38325 39.2578C7.71401 39.4068 8.07025 39.4847 8.43334 39.4824H10.0918H10.0895C10.0594 39.5465 10.027 39.6084 9.99002 39.6703L9.89518 39.8238V39.8215C9.67776 40.1767 9.55979 40.58 9.55054 40.9947C9.55054 41.2971 9.62687 41.595 9.77722 41.8586C9.89981 42.0762 10.0756 42.2641 10.2861 42.4039C10.1797 42.5574 10.0987 42.727 10.0478 42.908L10.0478 42.9122ZM32.2409 33.5796C32.345 33.4765 32.4884 33.4192 32.6365 33.4192C32.7822 33.4192 32.9256 33.4765 33.0297 33.5796C33.1338 33.6827 33.1939 33.8225 33.1939 33.9668C33.1939 34.1135 33.1338 34.2532 33.0297 34.3541L31.9333 35.4402L33.0297 36.5263C33.2471 36.7417 33.2471 37.09 33.0297 37.3054C32.8123 37.5207 32.4584 37.5207 32.241 37.3054L31.1284 36.2192L30.0505 37.3054C29.9488 37.4108 29.8077 37.468 29.6596 37.468C29.5116 37.468 29.3728 37.4108 29.2687 37.3054C29.1646 37.2023 29.1068 37.0625 29.1068 36.9158C29.1068 36.7692 29.1646 36.6294 29.2687 36.5263L30.3651 35.4402L29.2687 34.3541C29.0536 34.141 29.0536 33.795 29.2687 33.5796C29.4838 33.3665 29.8354 33.3665 30.0505 33.5796L31.1284 34.6657L32.2248 33.5796H32.2409ZM21.6844 22.6409C21.7862 22.5355 21.9272 22.4782 22.0753 22.4782C22.221 22.4782 22.3621 22.5355 22.4662 22.6409C22.5703 22.744 22.6281 22.8838 22.6281 23.0304C22.6281 23.1771 22.5703 23.3169 22.4662 23.42L21.3698 24.5061L22.4662 25.5922C22.6813 25.8053 22.6813 26.1513 22.4662 26.3667C22.2488 26.5798 21.8995 26.5798 21.6844 26.3667L20.588 25.2806L19.4916 26.3667H19.4939C19.3875 26.4698 19.2464 26.5271 19.0984 26.5271C18.9504 26.5271 18.8093 26.4698 18.7052 26.3667C18.5988 26.2636 18.541 26.1238 18.541 25.9795C18.541 25.8328 18.5988 25.693 18.7052 25.5922L19.8016 24.5061L18.6936 23.42C18.4762 23.2046 18.4762 22.8563 18.6936 22.6409C18.9111 22.4255 19.2626 22.4255 19.48 22.6409L20.5764 23.727L21.6728 22.6409H21.6844ZM18.8116 34.1093C19.3482 34.65 19.3482 35.5161 18.8116 36.0569C18.5502 36.3135 18.1963 36.4579 17.8285 36.4602C17.4608 36.4602 17.1068 36.3158 16.8455 36.0569C16.5841 35.798 16.4361 35.4474 16.4361 35.0831C16.4361 34.7164 16.5841 34.3658 16.8455 34.1092C17.1068 33.8503 17.4607 33.7036 17.8285 33.7036C18.1963 33.7059 18.5502 33.8526 18.8116 34.1093ZM19.9959 33.8274C21.49 33.2798 22.908 32.5511 24.2171 31.6575C25.6928 30.6402 26.9927 29.3937 28.066 27.9661L26.6088 28.0784H26.6111C26.3174 28.0807 26.0745 27.8562 26.0537 27.5675C26.0305 27.281 26.2387 27.0244 26.5278 26.9809L29.1577 26.7815C29.4631 26.7632 29.7268 26.99 29.7499 27.2925L29.9442 29.8909C29.9673 30.0421 29.9257 30.1956 29.8285 30.3171C29.7314 30.4362 29.588 30.5096 29.4353 30.521C29.2803 30.5325 29.13 30.4798 29.0167 30.3767C28.9033 30.2713 28.8386 30.1269 28.8362 29.9734L28.7599 28.8827C27.6497 30.2965 26.3335 31.5361 24.8509 32.5603C23.4492 33.5249 21.9318 34.3132 20.3335 34.9066C20.4353 36.1027 19.6558 37.198 18.4854 37.505C17.315 37.8144 16.0891 37.2461 15.5779 36.1577C15.0668 35.0716 15.416 33.777 16.4083 33.0873C17.3983 32.3976 18.7467 32.5121 19.6049 33.3577C19.7575 33.5066 19.8894 33.6739 19.9958 33.8572L19.9959 33.8274ZM32.195 21.5091C33.3885 21.5114 34.4155 22.3478 34.6468 23.5095C34.8781 24.6712 34.2513 25.8306 33.1456 26.2843C32.0423 26.7357 30.7701 26.3531 30.1063 25.3678C29.4425 24.3848 29.5743 23.0741 30.4186 22.2355C30.8881 21.7658 31.5265 21.5045 32.195 21.5091ZM33.1781 23.01C33.4348 23.2712 33.5782 23.6195 33.5805 23.9838C33.5828 24.3504 33.4371 24.701 33.1757 24.9577C32.9167 25.2166 32.5628 25.3632 32.1951 25.3632C31.4271 25.3586 30.8072 24.7446 30.8026 23.9838C30.8026 23.6195 30.9506 23.2689 31.212 23.0123C31.4711 22.7534 31.825 22.6113 32.1951 22.6113C32.5628 22.6136 32.9143 22.7556 33.1781 23.01ZM51.7124 9.87569C51.5552 9.89173 51.3979 9.84132 51.2822 9.73821C51.1643 9.6328 51.0972 9.48387 51.0972 9.32805C51.0972 9.17224 51.1643 9.0233 51.2822 8.9179C51.3979 8.81479 51.5552 8.76438 51.7124 8.78042H53.3871C53.5443 8.76438 53.6993 8.81479 53.8173 8.9179C53.9352 9.0233 54 9.17224 54 9.32805C54 9.48386 53.9352 9.6328 53.8173 9.73821C53.6993 9.84132 53.5443 9.89173 53.3871 9.87569H51.7124ZM39.1527 13.9291L37.9684 15.1023C37.7464 15.3177 37.744 15.6706 37.9615 15.8882C38.1789 16.1082 38.5351 16.1105 38.7548 15.8951L39.9391 14.7219C40.1565 14.5065 40.1565 14.1582 39.9391 13.9429C39.7217 13.7252 39.3701 13.7252 39.1527 13.9429L39.1527 13.9291ZM37.4595 8.77819V8.78048C37.6145 8.76444 37.7718 8.81485 37.8898 8.91796C38.0054 9.02337 38.0725 9.1723 38.0725 9.32812C38.0725 9.48393 38.0054 9.63287 37.8898 9.73827C37.7718 9.84138 37.6145 9.89179 37.4595 9.87575H35.7826C35.6253 9.89179 35.4704 9.84138 35.3524 9.73827C35.2367 9.63287 35.1697 9.48393 35.1697 9.32812C35.1697 9.1723 35.2367 9.02337 35.3524 8.91796C35.4704 8.81485 35.6253 8.76444 35.7826 8.78048L37.4595 8.77819ZM39.9414 3.94571L38.7571 2.77254H38.7548C38.5305 2.55715 38.1743 2.56402 37.9568 2.78399C37.7394 3.00626 37.744 3.36141 37.9684 3.57683L39.1526 4.75C39.3701 4.96539 39.7216 4.96539 39.9391 4.75C40.1565 4.53461 40.1565 4.18632 39.9391 3.97095L39.9414 3.94571ZM45.1387 2.26842C45.1549 2.42423 45.104 2.57776 44.9976 2.69462C44.8936 2.81148 44.7432 2.87792 44.5859 2.87792C44.4263 2.87792 44.2783 2.81148 44.1719 2.69462C44.0655 2.57776 44.0146 2.42423 44.0308 2.26842V0.609499C44.0146 0.45369 44.0655 0.297874 44.1719 0.183308C44.2783 0.0664484 44.4263 0 44.5859 0C44.7432 0 44.8936 0.0664484 44.9976 0.183308C45.104 0.297874 45.1549 0.45369 45.1387 0.609499V2.26842ZM50.0169 4.74998L51.2012 3.57681C51.4186 3.36142 51.4186 3.01313 51.2012 2.79776C50.9838 2.58008 50.6322 2.58008 50.4148 2.79776L49.2305 3.97093C49.0131 4.18632 49.0131 4.53461 49.2305 4.74998C49.4479 4.96537 49.7995 4.96537 50.0169 4.74998ZM49.2305 14.722L50.4148 15.8951C50.6322 16.1105 50.9838 16.1105 51.2012 15.8951C51.4186 15.6797 51.4186 15.3315 51.2012 15.1161L50.0169 13.9429C49.7995 13.7252 49.4479 13.7252 49.2305 13.9429C49.0131 14.1583 49.0131 14.5066 49.2305 14.722ZM7.85752 7.20837C6.45351 7.20837 5.1883 8.04472 4.65165 9.33017C4.11503 10.6133 4.41109 12.0935 5.40336 13.0765C6.39566 14.0595 7.88985 14.3528 9.18514 13.8212C10.4827 13.2896 11.327 12.0362 11.327 10.6454C11.327 8.74581 9.77503 7.20837 7.85752 7.20837Z" fill="white"/>
</svg>
