<svg width="27" height="18" viewBox="0 0 27 18" fill="none" xmlns="http://www.w3.org/2000/svg">
<path fill-rule="evenodd" clip-rule="evenodd" d="M17.5286 2.20502H9.47138V14.8638H17.5286V2.20502ZM9.31807 1.89593H17.6819C17.7226 1.89593 17.7616 1.91221 17.7903 1.9412C17.8191 1.97018 17.8352 2.00949 17.8352 2.05048V15.0184C17.8352 15.0594 17.8191 15.0987 17.7903 15.1277C17.7616 15.1566 17.7226 15.1729 17.6819 15.1729H9.31807C9.27741 15.1729 9.23842 15.1566 9.20967 15.1277C9.18091 15.0987 9.16476 15.0594 9.16476 15.0184V2.05086C9.16476 2.00988 9.18091 1.97057 9.20967 1.94158C9.23842 1.9126 9.27741 1.89593 9.31807 1.89593ZM11.3632 0.318796V0.502705C11.3635 0.629673 11.4137 0.751354 11.5028 0.841135C11.5918 0.930916 11.7125 0.98149 11.8385 0.981796H15.1615C15.2875 0.98149 15.4082 0.930916 15.4972 0.841135C15.5863 0.751354 15.6365 0.629673 15.6368 0.502705V0.318796H11.3632ZM15.9426 0.318796H17.3328C17.6531 0.320016 17.96 0.448823 18.1866 0.677151C18.4132 0.905478 18.5411 1.21482 18.5424 1.53777V16.4618C18.5411 16.7848 18.4132 17.0941 18.1866 17.3225C17.96 17.5508 17.6531 17.6796 17.3328 17.6808H9.66724C9.34693 17.6795 9.04012 17.5506 8.81363 17.3223C8.58714 17.094 8.45931 16.7847 8.458 16.4618V1.53816C8.45931 1.21527 8.58714 0.90599 8.81363 0.677674C9.04012 0.449357 9.34693 0.320504 9.66724 0.319182H11.0558V0.503091C11.0562 0.711866 11.1385 0.91201 11.2849 1.05967C11.4314 1.20734 11.6299 1.29048 11.837 1.29089H15.16C15.3671 1.29048 15.5656 1.20734 15.712 1.05967C15.8584 0.91201 15.9408 0.711866 15.9411 0.503091V0.319182L15.9426 0.318796ZM4.50081 0H1.74966C1.28615 0.00173036 0.842111 0.188109 0.514358 0.518502C0.186606 0.848895 0.00171653 1.29651 0 1.76375V4.53707C0.00151578 5.00437 0.18634 5.4521 0.514137 5.78254C0.841933 6.11298 1.28608 6.29929 1.74966 6.30082H4.50081C4.96441 6.29939 5.40862 6.11311 5.73644 5.78265C6.06426 5.45219 6.24905 5.00441 6.25047 4.53707V1.76414C6.24905 1.29676 6.06427 0.848936 5.73646 0.518416C5.40866 0.187896 4.96445 0.00152853 4.50081 0ZM3.92053 2.34909C4.10453 2.5345 4.21905 2.77849 4.2446 3.03948C4.27014 3.30048 4.20513 3.56232 4.06063 3.78041C3.91613 3.9985 3.70109 4.15933 3.45214 4.23551C3.2032 4.31169 2.93575 4.2985 2.69537 4.19818C2.45499 4.09787 2.25655 3.91664 2.13386 3.68538C2.01118 3.45411 1.97183 3.18712 2.02253 2.92989C2.07323 2.67266 2.21084 2.4411 2.41191 2.27468C2.61298 2.10826 2.86507 2.01727 3.12523 2.0172C3.27294 2.01702 3.41924 2.04625 3.55571 2.1032C3.69219 2.16015 3.81617 2.24372 3.92053 2.34909ZM3.12523 1.27693C3.5551 1.27701 3.97165 1.42734 4.3039 1.70229C4.63615 1.97725 4.86355 2.35983 4.94736 2.78485C5.03117 3.20987 4.96619 3.65103 4.76351 4.03317C4.56083 4.41532 4.23298 4.7148 3.83582 4.88059C3.43866 5.04639 2.99675 5.06824 2.5854 4.94243C2.17405 4.81661 1.81869 4.55091 1.57988 4.1906C1.34107 3.83029 1.23358 3.39766 1.27572 2.96641C1.31786 2.53516 1.50702 2.13199 1.81098 1.82557C1.98335 1.6513 2.1882 1.51311 2.41376 1.41895C2.63931 1.32479 2.88111 1.27653 3.12523 1.27693ZM5.05733 0.35275C5.201 0.353207 5.34133 0.396493 5.46065 0.477163C5.57997 0.557832 5.67296 0.67228 5.7279 0.806101C5.78285 0.939922 5.7973 1.08714 5.76943 1.22922C5.74156 1.3713 5.67263 1.50189 5.5713 1.60457C5.43481 1.74165 5.25 1.81861 5.05733 1.81861C4.86466 1.81861 4.67984 1.74165 4.54335 1.60457V1.60225C4.47582 1.53431 4.42223 1.45362 4.38567 1.36478C4.34911 1.27594 4.33029 1.1807 4.33029 1.08452C4.33029 0.988343 4.34911 0.893107 4.38567 0.804268C4.42223 0.715429 4.47582 0.634732 4.54335 0.566796C4.55255 0.557523 4.56252 0.548637 4.57248 0.540137C4.70571 0.41906 4.87872 0.352027 5.05809 0.351977L5.05733 0.35275ZM24.0798 6.3012V3.7767C24.0798 3.73572 24.096 3.69641 24.1247 3.66742C24.1535 3.63844 24.1925 3.62216 24.2331 3.62216H24.8732V2.7173H24.2331H24.2301C24.1898 2.71618 24.1516 2.69914 24.1237 2.66986C24.0958 2.64058 24.0805 2.60141 24.081 2.56082C24.0859 2.3581 24.1689 2.16529 24.3126 2.02332C24.4562 1.88135 24.649 1.8014 24.8502 1.80045H25.2994V0.894432H24.8498C24.4121 0.895373 23.9922 1.06928 23.6803 1.37881C23.3683 1.68835 23.1892 2.10884 23.1814 2.55V2.56198C23.1814 2.60297 23.1653 2.64227 23.1365 2.67126C23.1078 2.70024 23.0688 2.71652 23.0281 2.71652H22.4505V3.62177H23.0289C23.049 3.62177 23.0689 3.62577 23.0875 3.63354C23.1061 3.6413 23.123 3.65269 23.1373 3.66704C23.1515 3.68139 23.1628 3.69843 23.1705 3.71718C23.1782 3.73593 23.1822 3.75602 23.1822 3.77632V6.30082L24.0798 6.3012ZM22.8759 6.3012H22.5555C22.0773 6.29948 21.6191 6.10727 21.2808 5.76648C20.9425 5.42568 20.7516 4.96392 20.7495 4.48182V1.82132C20.751 1.33888 20.9418 0.876623 21.2801 0.535412C21.6185 0.194201 22.0769 0.00173189 22.5555 0H25.1936C25.6722 0.00162953 26.1307 0.194 26.4691 0.535139C26.8075 0.876277 26.9984 1.33849 27 1.82093V4.48182C26.9983 4.96419 26.8074 5.42631 26.469 5.76736C26.1306 6.10842 25.6721 6.30073 25.1936 6.30236H24.3864V3.93086H25.0265C25.0466 3.93086 25.0666 3.92687 25.0852 3.9191C25.1038 3.91133 25.1207 3.89995 25.1349 3.8856C25.1492 3.87125 25.1604 3.85421 25.1681 3.83546C25.1759 3.81671 25.1798 3.79661 25.1798 3.77632V2.56314C25.1798 2.54284 25.1759 2.52274 25.1681 2.50399C25.1604 2.48524 25.1492 2.46821 25.1349 2.45386C25.1207 2.43951 25.1038 2.42812 25.0852 2.42036C25.0666 2.41259 25.0466 2.40859 25.0265 2.40859H24.4163C24.4408 2.34589 24.4781 2.28913 24.5259 2.24207C24.6123 2.15637 24.7286 2.10823 24.8498 2.108H25.4519C25.4926 2.108 25.5316 2.09172 25.5604 2.06273C25.5891 2.03375 25.6053 1.99444 25.6053 1.95345V0.740273C25.6053 0.719977 25.6013 0.699881 25.5936 0.681131C25.5859 0.662381 25.5746 0.645344 25.5604 0.630993C25.5461 0.616642 25.5292 0.605258 25.5106 0.597491C25.492 0.589725 25.4721 0.585728 25.4519 0.585728H24.8498C24.3554 0.586954 23.8794 0.77469 23.5154 1.11198C23.1515 1.44928 22.9259 1.91169 22.8832 2.4082H22.2976C22.2569 2.4082 22.2179 2.42449 22.1892 2.45347C22.1604 2.48245 22.1443 2.52176 22.1443 2.56275V3.77632C22.1443 3.81731 22.1604 3.85662 22.1892 3.8856C22.2179 3.91458 22.2569 3.93086 22.2976 3.93086H22.8759V6.3012ZM25.1936 11.6988H22.5555C22.0773 11.7005 21.6191 11.8927 21.2808 12.2335C20.9425 12.5743 20.7516 13.0361 20.7495 13.5182V16.1775C20.7507 16.6602 20.9413 17.1227 21.2797 17.4642C21.6181 17.8056 22.0767 17.9983 22.5555 18H25.1936C25.6722 17.9984 26.1307 17.806 26.4691 17.4649C26.8075 17.1237 26.9984 16.6615 27 16.1791V13.5182C26.9983 13.0358 26.8074 12.5737 26.469 12.2326C26.1306 11.8916 25.6721 11.6993 25.1936 11.6976V11.6988ZM23.0856 15.9372C23.0778 15.9427 23.0689 15.9463 23.0595 15.9476C23.0494 15.947 23.0395 15.944 23.0308 15.9388C23.0225 15.9343 23.0154 15.928 23.0101 15.9202C23.006 15.9115 23.0042 15.902 23.0047 15.8924V13.806C23.0035 13.7965 23.0053 13.7868 23.01 13.7784C23.0147 13.77 23.022 13.7635 23.0308 13.7597C23.0395 13.7542 23.0494 13.7512 23.0595 13.7508C23.069 13.7518 23.078 13.7554 23.0856 13.7612L24.7222 14.8044C24.7297 14.8086 24.736 14.8148 24.7406 14.8222C24.7442 14.8307 24.7458 14.84 24.7452 14.8492C24.7457 14.8583 24.7442 14.8675 24.7406 14.8759C24.7362 14.8835 24.7298 14.8897 24.7222 14.894L23.0856 15.9372ZM25.1124 15.5184L23.4758 16.5616C23.357 16.6378 23.2201 16.6804 23.0794 16.6849C22.9387 16.6894 22.7994 16.6556 22.6761 16.5871C22.5528 16.5187 22.4501 16.418 22.3787 16.2957C22.3073 16.1733 22.2699 16.0339 22.2704 15.892V13.8056C22.2699 13.6637 22.3073 13.5243 22.3787 13.402C22.4501 13.2797 22.5528 13.179 22.6761 13.1105C22.7994 13.042 22.9387 13.0082 23.0794 13.0127C23.2201 13.0172 23.357 13.0598 23.4758 13.1361L25.1124 14.1792C25.2253 14.2499 25.3186 14.3485 25.3832 14.4656C25.4479 14.5828 25.4818 14.7146 25.4818 14.8486C25.4818 14.9827 25.4479 15.1145 25.3832 15.2316C25.3186 15.3488 25.2253 15.4477 25.1124 15.5184ZM4.50081 10.7988H1.74966C1.28608 10.8003 0.841933 10.9866 0.514137 11.3171C0.18634 11.6475 0.00151578 12.0952 0 12.5625V15.3359C0.0016156 15.8032 0.18646 16.2509 0.514224 16.5814C0.841987 16.9118 1.28608 17.0983 1.74966 17.1H4.50081C4.96438 17.0985 5.40853 16.9122 5.73633 16.5817C6.06413 16.2513 6.24895 15.8036 6.25047 15.3363V12.5625C6.24905 12.0952 6.06426 11.6474 5.73644 11.317C5.40862 10.9865 4.96441 10.8002 4.50081 10.7988ZM3.12523 11.2408C3.74695 11.2407 4.34946 11.4579 4.8301 11.8555C5.31074 12.253 5.63976 12.8062 5.76111 13.4209C5.88245 14.0356 5.78861 14.6736 5.49556 15.2264C5.20252 15.7791 4.72841 16.2123 4.15403 16.4522C3.57965 16.692 2.94053 16.7237 2.34559 16.5417C1.75065 16.3598 1.23669 15.9756 0.891303 15.4544C0.545914 14.9333 0.390465 14.3076 0.451444 13.6839C0.512423 13.0602 0.786057 12.4771 1.22572 12.034C1.47494 11.7822 1.77103 11.5825 2.097 11.4464C2.42297 11.3103 2.7724 11.2404 3.12523 11.2408ZM2.04708 15.0557V15.7338C2.0473 15.8685 2.07333 16.002 2.12373 16.1268C1.61892 15.8892 1.21223 15.4814 0.973904 14.9738C1.10133 15.0278 1.23813 15.0556 1.37634 15.0557H2.04708ZM3.89754 15.0557V15.7338C3.89792 15.8443 3.87369 15.9535 3.82663 16.0533C3.78368 16.1434 3.7235 16.224 3.64956 16.2906C3.30427 16.3684 2.9462 16.3684 2.60091 16.2906C2.52697 16.2241 2.46691 16.1435 2.42422 16.0533C2.37703 15.9536 2.35267 15.8444 2.35293 15.7338V15.0557H3.89754ZM5.27733 14.9738C5.03893 15.4813 4.63225 15.8889 4.1275 16.1264C4.17794 16.0017 4.20397 15.8684 4.20416 15.7338V15.0557H4.87489C5.0131 15.0556 5.1499 15.0278 5.27733 14.9738ZM2.04554 13.1904V14.7474H1.37443C1.25996 14.748 1.14694 14.7215 1.04443 14.6702C0.950844 14.6227 0.868189 14.556 0.801814 14.4743C0.763691 14.3022 0.744539 14.1263 0.744705 13.95C0.744637 13.792 0.759914 13.6344 0.790315 13.4794C0.856746 13.3936 0.940823 13.3234 1.03676 13.2735C1.14116 13.2192 1.25696 13.1909 1.37443 13.1912L2.04554 13.1904ZM3.896 13.1904V14.7474H2.35293V13.1904H3.896ZM5.45862 13.4786C5.52413 13.807 5.52113 14.1456 5.4498 14.4727C5.38334 14.5543 5.30071 14.6211 5.20719 14.6686C5.10465 14.7199 4.99165 14.7464 4.87719 14.7459H4.20377V13.1888H4.87489C4.99236 13.1886 5.10816 13.2168 5.21255 13.2711C5.30844 13.3209 5.39241 13.3912 5.45862 13.4771V13.4786ZM4.20224 12.8817V12.2036C4.20222 12.051 4.16899 11.9003 4.10489 11.762C4.63634 12.0053 5.06122 12.4361 5.29956 12.9732C5.16599 12.9129 5.02127 12.8817 4.87489 12.8817H4.20224ZM2.3514 12.8817V12.2036C2.35121 12.0796 2.38191 11.9575 2.4407 11.8485C2.49559 11.7474 2.57267 11.6601 2.66607 11.5935C2.96833 11.5343 3.27907 11.5343 3.58133 11.5935C3.67493 11.66 3.75216 11.7473 3.80708 11.8485C3.86575 11.9575 3.89633 12.0796 3.896 12.2036V12.8817H2.3514ZM0.948225 12.9732C1.18623 12.4359 1.61122 12.005 2.1429 11.762C2.07879 11.9003 2.04556 12.051 2.04554 12.2036V12.8817H1.37443C1.22805 12.8817 1.08333 12.9129 0.949758 12.9732H0.948225ZM14.1615 15.9685H12.8385C12.7234 15.978 12.616 16.0308 12.5378 16.1164C12.4595 16.202 12.4161 16.3141 12.4161 16.4305C12.4161 16.547 12.4595 16.6591 12.5378 16.7447C12.616 16.8303 12.7234 16.8831 12.8385 16.8926H14.1615C14.2766 16.8831 14.384 16.8303 14.4622 16.7447C14.5405 16.6591 14.5839 16.547 14.5839 16.4305C14.5839 16.3141 14.5405 16.202 14.4622 16.1164C14.384 16.0308 14.2766 15.978 14.1615 15.9685ZM12.8385 15.6594C12.645 15.6732 12.464 15.7604 12.3318 15.9034C12.1996 16.0464 12.1261 16.2347 12.1261 16.4302C12.1261 16.6256 12.1996 16.8139 12.3318 16.9569C12.464 17.0999 12.645 17.1871 12.8385 17.201H14.1615C14.355 17.1871 14.536 17.0999 14.6682 16.9569C14.8004 16.8139 14.8739 16.6256 14.8739 16.4302C14.8739 16.2347 14.8004 16.0464 14.6682 15.9034C14.536 15.7604 14.355 15.6732 14.1615 15.6594H12.8385Z" fill="white"/>
</svg>
