<svg width="26" height="26" viewBox="0 0 26 26" fill="none" xmlns="http://www.w3.org/2000/svg">
<path d="M18.4166 19.5001C18.9912 19.5001 19.5423 19.7284 19.9486 20.1347C20.355 20.541 20.5833 21.0921 20.5833 21.6667C20.5833 22.2414 20.355 22.7925 19.9486 23.1988C19.5423 23.6051 18.9912 23.8334 18.4166 23.8334C17.8419 23.8334 17.2908 23.6051 16.8845 23.1988C16.4782 22.7925 16.2499 22.2414 16.2499 21.6667C16.2499 20.4642 17.2141 19.5001 18.4166 19.5001ZM1.08325 2.16675H4.62575L5.64408 4.33341H21.6666C21.9539 4.33341 22.2295 4.44755 22.4326 4.65072C22.6358 4.85388 22.7499 5.12943 22.7499 5.41675C22.7499 5.60091 22.6957 5.78508 22.6199 5.95841L18.7416 12.9676C18.3732 13.6284 17.6583 14.0834 16.8458 14.0834H8.77492L7.79992 15.8492L7.76742 15.9792C7.76742 16.0511 7.79595 16.12 7.84674 16.1708C7.89753 16.2215 7.96642 16.2501 8.03825 16.2501H20.5833V18.4167H7.58325C7.00862 18.4167 6.45752 18.1885 6.05119 17.7821C5.64486 17.3758 5.41658 16.8247 5.41658 16.2501C5.41658 15.8709 5.51408 15.5134 5.67658 15.2101L7.14992 12.5559L3.24992 4.33341H1.08325V2.16675ZM7.58325 19.5001C8.15789 19.5001 8.70899 19.7284 9.11532 20.1347C9.52164 20.541 9.74992 21.0921 9.74992 21.6667C9.74992 22.2414 9.52164 22.7925 9.11532 23.1988C8.70899 23.6051 8.15789 23.8334 7.58325 23.8334C7.00862 23.8334 6.45752 23.6051 6.05119 23.1988C5.64486 22.7925 5.41658 22.2414 5.41658 21.6667C5.41658 20.4642 6.38075 19.5001 7.58325 19.5001ZM17.3333 11.9167L20.3449 6.50008H6.65158L9.20825 11.9167H17.3333Z" fill="white"/>
</svg>
