<svg width="23" height="17" viewBox="0 0 23 17" fill="none" xmlns="http://www.w3.org/2000/svg">
<path fill-rule="evenodd" clip-rule="evenodd" d="M10.0406 2.66494H17.8911C18.4997 2.65518 18.9885 2.17718 18.9885 1.59096C18.9885 1.00387 18.4997 0.525855 17.8911 0.516978H10.0406C9.43113 0.525846 8.94224 1.00385 8.94224 1.59096C8.94224 2.17716 9.43111 2.65518 10.0406 2.66494ZM10.0406 1.18303L17.8911 1.18214C18.125 1.18214 18.3146 1.36483 18.3146 1.59098C18.3146 1.81624 18.125 1.99894 17.8911 1.99894H10.0406C9.80675 1.99894 9.61709 1.81624 9.61709 1.59098C9.61709 1.36483 9.80674 1.18214 10.0406 1.18214V1.18303ZM4.39799 2.6747C4.84542 2.67381 5.2496 2.41398 5.42083 2.0149C5.59207 1.6167 5.49724 1.15732 5.18054 0.852238C4.86291 0.54715 4.38693 0.4567 3.97264 0.621662C3.55927 0.786616 3.28952 1.17594 3.28952 1.60785C3.29044 2.19673 3.78576 2.67382 4.39799 2.6747ZM4.39799 1.20607C4.56647 1.20607 4.71838 1.30362 4.78282 1.4544C4.84726 1.60428 4.81136 1.77722 4.69167 1.89162C4.57291 2.00602 4.39339 2.04061 4.23778 1.97853C4.08219 1.91645 3.97999 1.77012 3.97999 1.60783C3.98091 1.38612 4.16783 1.20607 4.39799 1.20607ZM1.73188 2.6747C2.18023 2.6747 2.58441 2.41398 2.75567 2.01578C2.92691 1.6167 2.83208 1.15821 2.51538 0.853123C2.19866 0.54715 1.72177 0.4567 1.3084 0.621662C0.894106 0.786616 0.624361 1.17594 0.624361 1.60785C0.625282 2.19673 1.12058 2.67382 1.73188 2.6747ZM1.73188 1.20607C1.90036 1.20607 2.0532 1.30362 2.11763 1.45349C2.18208 1.60337 2.14617 1.77631 2.02741 1.8916C1.90773 2.006 1.72912 2.04059 1.5726 1.97851C1.41701 1.91643 1.31575 1.7701 1.31575 1.60781C1.31575 1.3861 1.50172 1.20607 1.73188 1.20607ZM7.06433 2.6747C7.51176 2.67381 7.91594 2.41398 8.08717 2.0149C8.25841 1.6167 8.16358 1.15732 7.84596 0.852238C7.52924 0.54715 7.05327 0.4567 6.63898 0.621662C6.22561 0.786616 5.95586 1.17594 5.95586 1.60785C5.95678 2.19673 6.4521 2.67382 7.06433 2.6747ZM7.06433 1.20607C7.23281 1.20607 7.38472 1.30362 7.44916 1.4544C7.5136 1.60428 7.4777 1.77722 7.35801 1.89162C7.23925 2.00602 7.05973 2.04061 6.90412 1.97853C6.74853 1.91645 6.64633 1.77012 6.64633 1.60783C6.64725 1.38612 6.83325 1.20607 7.06433 1.20607ZM12.775 11.4058C12.775 11.5893 12.6204 11.7383 12.4289 11.7383H2.28226C2.18835 11.741 2.09813 11.7064 2.03092 11.6443C1.96464 11.5814 1.92689 11.4953 1.92689 11.4058C1.92689 11.3153 1.96464 11.2293 2.03092 11.1672C2.09813 11.1042 2.18836 11.0705 2.28226 11.0723H12.4289C12.5209 11.0723 12.6084 11.1078 12.6738 11.1698C12.7382 11.2328 12.775 11.3171 12.775 11.4058ZM12.207 13.6034C12.207 13.7878 12.0523 13.9368 11.8618 13.9368H2.28221C2.18831 13.9395 2.09808 13.9049 2.03088 13.8428C1.96459 13.7799 1.92684 13.6938 1.92684 13.6043C1.92684 13.5138 1.96459 13.4278 2.03088 13.3648C2.09809 13.3027 2.18831 13.2682 2.28221 13.2708H11.8608C12.0514 13.2708 12.207 13.4198 12.207 13.6034ZM1.45844 0H19.0679C19.8735 0.000886792 20.5262 0.628769 20.5271 1.40477V3.18201H9.42628e-05V1.40477C0.0010151 0.628769 0.653775 0.00088543 1.45844 0ZM0.000117836 14.9744C0.00103867 15.7504 0.653775 16.3783 1.45844 16.3792H15.6355L15.3382 16.0928C15.154 15.9163 15.1108 15.6449 15.2305 15.4223L15.4008 15.1039C15.2019 14.7802 15.0518 14.4308 14.9561 14.0663L14.6035 13.959L14.6026 13.9599C14.354 13.8854 14.1855 13.6628 14.1864 13.4118V12.7609C14.1855 12.5099 14.354 12.2882 14.6017 12.2137L14.957 12.1046C15.0528 11.7401 15.2029 11.3907 15.4017 11.067L15.2314 10.7522C15.1099 10.5296 15.1531 10.2573 15.3382 10.0808L15.8169 9.61876C16.0001 9.44139 16.2818 9.39971 16.5129 9.515L16.8434 9.67995C17.1785 9.4875 17.5413 9.34294 17.9197 9.25072L18.0311 8.91106C18.1084 8.6716 18.3395 8.50844 18.6 8.50932H19.2776C19.5373 8.50932 19.7674 8.67073 19.8457 8.90929L19.9589 9.25072V9.25161C20.1578 9.30038 20.353 9.36424 20.5426 9.44139C20.5316 9.40858 20.5261 9.37488 20.5261 9.34029V3.84722H0L0.000117836 14.9744ZM23 13.3462L22.5231 13.4916V13.4925C22.4034 13.5297 22.3141 13.6264 22.2892 13.7444C22.2027 14.1594 22.0324 14.555 21.7893 14.907C21.7193 15.0081 21.712 15.1376 21.7709 15.2449L22.0011 15.6706L21.6199 16.0369L21.1762 15.8152C21.0648 15.7593 20.9303 15.7664 20.8263 15.8329C20.4599 16.0679 20.0493 16.232 19.6184 16.3154C19.4941 16.3393 19.3938 16.4262 19.356 16.5424L19.2069 17H18.6692L18.5182 16.5397C18.4805 16.4244 18.3801 16.3384 18.2568 16.3145C17.825 16.2311 17.4153 16.0671 17.0489 15.8329C16.9439 15.7655 16.8095 15.7593 16.6981 15.8152L16.2562 16.0369L15.8759 15.6697L16.1061 15.2405C16.1632 15.1332 16.1558 15.0046 16.0868 14.9044C15.8428 14.5514 15.6734 14.1559 15.5868 13.7408C15.562 13.6211 15.4718 13.5244 15.3512 13.4881L14.8779 13.3453V12.8274L15.3548 12.6811C15.4745 12.6447 15.5638 12.548 15.5887 12.4301C15.6752 12.0141 15.8455 11.6195 16.0895 11.2665C16.1586 11.1654 16.1659 11.0359 16.1079 10.9286L15.8778 10.5038L16.2589 10.1376L16.7045 10.3584H16.7036C16.815 10.4134 16.9485 10.4063 17.0534 10.3398C17.4199 10.1047 17.8305 9.94157 18.2613 9.8582C18.3847 9.83425 18.486 9.74734 18.5237 9.63117L18.6738 9.17356H19.2124L19.3643 9.63294L19.3625 9.63382C19.4011 9.74911 19.5015 9.83514 19.6249 9.85908C20.0548 9.94245 20.4636 10.1065 20.8282 10.3406C20.9331 10.408 21.0675 10.4151 21.1789 10.3593L21.6199 10.1376L22.0011 10.5038L21.7718 10.9331C21.7138 11.0404 21.7212 11.169 21.7912 11.2701C22.0333 11.6221 22.2027 12.0177 22.2893 12.4318C22.3141 12.5516 22.4043 12.6482 22.5249 12.6846L23 12.8283V13.3471L23 13.3462ZM17.1759 11.3889C17.8885 10.7025 18.9601 10.4976 19.8917 10.8692C20.8225 11.2408 21.4292 12.1161 21.4292 13.0863C21.4292 14.0574 20.8225 14.9327 19.8917 15.3043C18.96 15.6759 17.8884 15.471 17.1759 14.7846C16.2037 13.8463 16.2037 12.3272 17.1759 11.3889ZM20.2141 14.3147C19.6986 14.8104 18.9243 14.9585 18.2513 14.6898C17.5783 14.4211 17.1401 13.7888 17.1401 13.0873C17.1401 12.3858 17.5783 11.7535 18.2513 11.4847C18.9243 11.216 19.6986 11.3641 20.2141 11.8599C20.9166 12.5383 20.9166 13.6364 20.2141 14.3147ZM3.21891 7.43536H3.21799C3.15354 7.37328 3.11672 7.28814 3.11672 7.20034C3.11672 7.11165 3.15354 7.0274 3.21799 6.96531L4.91567 5.32997C4.98012 5.26257 5.06942 5.22266 5.16425 5.22089C5.25816 5.21823 5.35023 5.2537 5.41651 5.31844C5.48372 5.38318 5.51963 5.47098 5.51686 5.56232C5.51502 5.65366 5.47359 5.73969 5.40362 5.8L3.95082 7.19946L5.29867 8.49958C5.36496 8.56166 5.40362 8.6468 5.40455 8.73638C5.40547 8.82595 5.36864 8.91109 5.30327 8.97495C5.23699 9.03791 5.14768 9.0725 5.05561 9.07161C4.96263 9.07073 4.87424 9.03437 4.80979 8.96963L3.21706 7.43538L3.21891 7.43536ZM9.27397 5.80002C9.13956 5.67054 9.13956 5.45947 9.27397 5.32999C9.40931 5.19962 9.6275 5.19962 9.76284 5.32999L11.4605 6.96533H11.4596C11.525 7.02741 11.5609 7.11166 11.5609 7.20036C11.5609 7.28816 11.525 7.3733 11.4596 7.43538L9.86687 8.96874C9.72969 9.08492 9.52347 9.07872 9.39457 8.95456C9.26567 8.83039 9.25832 8.63174 9.37892 8.4996L10.7277 7.20036L9.27397 5.80002ZM5.95501 8.96168L8.00807 5.0188C8.0495 4.93987 8.12131 4.87956 8.20785 4.85207C8.29531 4.82458 8.39014 4.83078 8.47208 4.87069C8.6424 4.95317 8.71145 5.15271 8.62583 5.31677L6.57186 9.25965C6.51293 9.37228 6.39417 9.44412 6.26252 9.44412C6.20912 9.44412 6.15664 9.4317 6.10877 9.40864C6.02683 9.36874 5.96422 9.29956 5.93568 9.21531C5.90622 9.13195 5.91358 9.04062 5.95501 8.96168Z" fill="white"/>
</svg>
