<svg width="22" height="22" viewBox="0 0 22 22" fill="none" xmlns="http://www.w3.org/2000/svg">
<path d="M20.955 5.24222H1.05187V2.10034H0V19.9066H1.05187V6.28722H20.955V19.9066H22V2.10034H20.955V5.24222ZM1.05187 19.9066H20.955V20.9516H1.05187V19.9066Z" fill="white"/>
<path d="M17.8131 13.6229H18.8581V16.7647H17.8131V13.6229ZM16.7612 16.7647H17.8131V17.8097H16.7612V16.7647ZM16.7612 12.571H17.8131V13.6229H16.7612V12.571ZM13.6193 17.8097H16.7612V18.8616H13.6193V17.8097ZM16.7612 12.571V11.526H15.7162V7.33911H3.14185V13.6229H5.23872V12.571H4.19372V8.38411H14.6712V11.526H13.6193V12.571H16.7612ZM12.5743 16.7647H13.6193V17.8097H12.5743V16.7647Z" fill="white"/>
<path d="M12.5743 12.571H13.6193V13.6228H12.5743V12.571ZM11.5224 13.6228H12.5743V16.7647H11.5224V13.6228ZM6.28363 3.14534H7.33551V4.19034H6.28363V3.14534ZM4.19363 14.6678V15.7197H3.14176V16.7647H10.4774V13.6228H9.43238V12.571H8.38051V11.526H7.33551V12.571H6.28363V13.6228H5.23863V14.6678H4.19363ZM4.19363 3.14534H5.23863V4.19034H4.19363V3.14534ZM2.09676 3.14534H3.14176V4.19034H2.09676V3.14534ZM1.05176 1.04846H20.9549V2.10034H1.05176V1.04846Z" fill="white"/>
</svg>
