<svg width="24" height="24" viewBox="0 0 24 24" fill="none" xmlns="http://www.w3.org/2000/svg">
<path d="M7.82498 13.3864L7.1215 12.6868L9.48938 9.03319L11.8649 12.6945L11.1742 13.3864L9.64486 12.3651C9.60297 12.3371 9.55375 12.3222 9.5034 12.3222C9.45305 12.3222 9.40382 12.3371 9.36194 12.3651L7.82498 13.3864ZM13.8352 15.7481L12.1453 13.1362L11.3806 13.9021C11.3559 13.9247 11.3274 13.9428 11.2965 13.9557C11.2714 13.9657 11.2446 13.9709 11.2175 13.9711H11.1895H11.1487C11.1297 13.9652 11.1117 13.9566 11.0952 13.9455C11.0952 13.9455 11.0952 13.9455 11.0773 13.9455L9.50977 12.9038L7.92183 13.9277C7.87299 13.9604 7.81433 13.9753 7.7558 13.9697C7.69727 13.9641 7.64247 13.9384 7.60068 13.897L6.83602 13.1311L3.52251 18.2374H15.441L15.3339 18.0715L13.8352 15.7481ZM17.9592 15.3702L17.9108 15.4187C17.8904 15.4394 17.8662 15.4559 17.8394 15.4672C17.8182 15.4767 17.796 15.4836 17.7732 15.4877H17.7579C17.6987 15.4941 17.6392 15.4797 17.5896 15.4468L16.5701 14.7702L15.9839 15.1609L15.5531 15.4468C15.5293 15.4615 15.5036 15.4727 15.4766 15.48H15.4537H15.4129C15.3918 15.4836 15.3703 15.4836 15.3492 15.48H15.3263C15.2959 15.4676 15.2682 15.4493 15.2447 15.4264L14.7859 14.9694L14.3679 15.6153L16.0654 18.2349H20.4647L18.3568 14.9745L17.9592 15.3702ZM2.83942 4.19234C3.06112 4.19284 3.278 4.12751 3.46265 4.0046C3.6473 3.88169 3.79144 3.70672 3.87687 3.50179C3.96229 3.29685 3.98516 3.07116 3.94258 2.85321C3.90001 2.63527 3.7939 2.43485 3.63767 2.27728C3.48144 2.11971 3.28209 2.01207 3.06481 1.96794C2.84753 1.92381 2.62207 1.94518 2.41691 2.02935C2.21174 2.11352 2.03609 2.25671 1.91213 2.44083C1.78818 2.62496 1.72148 2.84175 1.72048 3.06383C1.7198 3.21157 1.74823 3.358 1.80413 3.49472C1.86003 3.63144 1.94231 3.75577 2.04625 3.8606C2.15018 3.96542 2.27374 4.04868 2.40985 4.10561C2.54595 4.16253 2.69193 4.19201 2.83942 4.19234ZM23.9949 1.12851V22.8715C23.9949 23.1695 23.8773 23.4554 23.6676 23.6668C23.458 23.8782 23.1734 23.998 22.876 24H1.12404C0.825695 23.9993 0.539796 23.8801 0.32907 23.6686C0.118343 23.457 -7.63572e-07 23.1703 0 22.8715V1.12851C-7.63572e-07 0.829653 0.118343 0.542998 0.32907 0.331435C0.539796 0.119871 0.825695 0.000676149 1.12404 0H22.876C23.1743 0.000676149 23.4602 0.119871 23.6709 0.331435C23.8817 0.542998 24 0.829653 24 1.12851H23.9949ZM14.2201 2.40511C14.2201 2.47282 14.2469 2.53776 14.2947 2.58564C14.3425 2.63353 14.4073 2.66043 14.4749 2.66043H16.0935C16.1611 2.66043 16.2259 2.63353 16.2737 2.58564C16.3215 2.53776 16.3483 2.47282 16.3483 2.40511C16.3483 2.33739 16.3215 2.27245 16.2737 2.22457C16.2259 2.17669 16.1611 2.14979 16.0935 2.14979H14.48C14.4142 2.14973 14.3508 2.17523 14.3033 2.22092C14.2558 2.26662 14.2278 2.32896 14.2251 2.39489L14.2201 2.40511ZM5.51572 2.40511C5.51572 2.47282 5.54257 2.53776 5.59037 2.58564C5.63817 2.63353 5.703 2.66043 5.7706 2.66043H12.8564C12.924 2.66043 12.9888 2.63353 13.0366 2.58564C13.0844 2.53776 13.1113 2.47282 13.1113 2.40511C13.1113 2.33739 13.0844 2.27245 13.0366 2.22457C12.9888 2.17669 12.924 2.14979 12.8564 2.14979H5.7757C5.70983 2.14973 5.6465 2.17523 5.59898 2.22092C5.55146 2.26662 5.52345 2.32896 5.52082 2.39489L5.51572 2.40511ZM5.51572 4.02128C5.51572 4.08899 5.54257 4.15393 5.59037 4.20181C5.63817 4.2497 5.703 4.2766 5.7706 4.2766H12.3186C12.3862 4.2766 12.451 4.2497 12.4988 4.20181C12.5466 4.15393 12.5735 4.08899 12.5735 4.02128C12.5735 3.95356 12.5466 3.88862 12.4988 3.84074C12.451 3.79286 12.3862 3.76596 12.3186 3.76596H5.7757C5.70983 3.7659 5.6465 3.7914 5.59898 3.83709C5.55146 3.88279 5.52345 3.94513 5.52082 4.01106L5.51572 4.02128ZM1.21071 3.06383C1.21071 3.38712 1.30644 3.70315 1.4858 3.97192C1.66516 4.24069 1.92008 4.45013 2.2183 4.57373C2.51653 4.69733 2.84465 4.72954 3.16115 4.66629C3.47766 4.60303 3.76832 4.44715 3.99635 4.21837C4.22439 3.98959 4.37955 3.69819 4.4422 3.38105C4.50486 3.06391 4.47219 2.73527 4.34833 2.43674C4.22447 2.1382 4.01499 1.88317 3.7464 1.70393C3.4778 1.52469 3.16216 1.42928 2.83942 1.42979C2.40723 1.43046 1.99296 1.60292 1.68759 1.90929C1.38222 2.21566 1.2107 2.6309 1.21071 3.06383ZM8.75021 22.5447C8.75021 22.477 8.72336 22.412 8.67556 22.3641C8.62776 22.3163 8.56293 22.2894 8.49533 22.2894H1.95242C1.88482 22.2894 1.81999 22.3163 1.77219 22.3641C1.72439 22.412 1.69754 22.477 1.69754 22.5447C1.69754 22.6124 1.72439 22.6773 1.77219 22.7252C1.81999 22.7731 1.88482 22.8 1.95242 22.8H8.49533C8.56293 22.8 8.62776 22.7731 8.67556 22.7252C8.72336 22.6773 8.75021 22.6124 8.75021 22.5447ZM12.5302 20.8519C12.5302 20.7842 12.5033 20.7193 12.4555 20.6714C12.4077 20.6235 12.3429 20.5966 12.2753 20.5966H1.95242C1.88482 20.5966 1.81999 20.6235 1.77219 20.6714C1.72439 20.7193 1.69754 20.7842 1.69754 20.8519C1.69754 20.9196 1.72439 20.9846 1.77219 21.0325C1.81999 21.0803 1.88482 21.1072 1.95242 21.1072H12.2753C12.3429 21.1072 12.4077 21.0803 12.4555 21.0325C12.5033 20.9846 12.5302 20.9196 12.5302 20.8519ZM22.7689 6.42638C22.7689 6.35867 22.7421 6.29373 22.6942 6.24585C22.6464 6.19796 22.5816 6.17106 22.514 6.17106H1.76381C1.69621 6.17106 1.63138 6.19796 1.58358 6.24585C1.53577 6.29373 1.50892 6.35867 1.50892 6.42638V18.5209C1.50892 18.5886 1.53577 18.6535 1.58358 18.7014C1.63138 18.7493 1.69621 18.7762 1.76381 18.7762H22.514C22.5816 18.7762 22.6464 18.7493 22.6942 18.7014C22.7421 18.6535 22.7689 18.5886 22.7689 18.5209V6.42638ZM15.678 14.7523L16.4274 14.2417C16.469 14.2142 16.5177 14.1996 16.5675 14.1996C16.6174 14.1996 16.6661 14.2142 16.7077 14.2417L17.6992 14.8979L18.0739 14.5226L16.5624 12.1991L15.0586 14.5251L15.446 14.9081L15.678 14.7523ZM2.01869 18.2655H2.90059L6.58114 12.5821L9.27528 8.42553C9.29807 8.38994 9.32933 8.36057 9.36626 8.34007C9.40319 8.31957 9.44462 8.30858 9.48683 8.30809C9.53034 8.30729 9.57332 8.31767 9.61169 8.33823C9.65006 8.35878 9.68254 8.38884 9.70603 8.42553L12.4053 12.5898V12.6204L12.5149 12.7889L14.0442 15.1379L14.5081 14.423L16.3432 11.5915C16.3666 11.556 16.3984 11.5269 16.4358 11.5069C16.4731 11.4868 16.5149 11.4764 16.5573 11.4766C16.6 11.4767 16.6419 11.4875 16.6793 11.508C16.7168 11.5285 16.7484 11.5581 16.7715 11.594L18.627 14.4281V14.4434L18.7035 14.5609L21.0994 18.2655H22.2591V6.6817H2.01869V18.2655Z" fill="white"/>
</svg>
