<svg width="28" height="14" viewBox="0 0 28 14" fill="none" xmlns="http://www.w3.org/2000/svg">
<path d="M13.6348 7.00002C13.6348 8.85674 12.9176 10.636 11.638 11.9499C10.3597 13.2623 8.62518 14 6.81811 14C5.00963 14 3.27521 13.2623 1.99687 11.9499C0.718569 10.6361 0 8.8567 0 7.00002C0 5.14333 0.718535 3.36403 1.99687 2.05017C3.27518 0.737773 5.00966 3.50769e-05 6.81811 3.50769e-05C8.62525 3.50769e-05 10.3596 0.737738 11.638 2.05017C12.9176 3.36396 13.6348 5.14333 13.6348 7.00002ZM21.1702 0C20.7611 0.00276316 20.3534 0.0414454 19.9511 0.118809C20.3171 0.460035 20.6615 0.823372 20.9845 1.20879C22.2601 2.84861 22.9558 4.88616 22.9558 6.98479C22.9558 9.08465 22.2601 11.1209 20.9845 12.7622C20.6602 13.1601 20.3103 13.5345 19.9362 13.8812C21.8214 14.2418 23.7685 13.7693 25.2969 12.5812C26.8269 11.3918 27.797 9.59721 27.972 7.63705C28.1455 5.67532 27.5077 3.73015 26.2133 2.27696C24.9188 0.823621 23.0888 -0.00249683 21.1698 0.000261727L21.1702 0ZM13.9941 0C13.5851 0.00276316 13.176 0.0414454 12.7737 0.118809C13.1397 0.460035 13.4855 0.823372 13.8071 1.20879C15.084 2.84861 15.7797 4.88616 15.7797 6.98479C15.7797 9.08465 15.0841 11.1209 13.8071 12.7622C13.4841 13.1601 13.1343 13.5345 12.7602 13.8812C14.6454 14.2418 16.5911 13.7693 18.1209 12.5812C19.6495 11.3918 20.621 9.59721 20.7946 7.63705C20.9695 5.67532 20.3317 3.73015 19.0372 2.27696C17.7427 0.823762 15.9114 -0.00249683 13.9938 0.000261727L13.9941 0Z" fill="white"/>
</svg>
