<svg width="24" height="24" viewBox="0 0 24 24" fill="none" xmlns="http://www.w3.org/2000/svg">
<path fill-rule="evenodd" clip-rule="evenodd" d="M5.28981 21.2764C5.36481 21.3242 5.44263 21.372 5.52138 21.4198C6.27892 21.8829 7.18181 22.3685 7.9693 22.7857C8.75684 23.2029 9.4272 23.5498 10.1444 23.7617C10.8617 23.9736 11.6239 24.0495 12.3243 23.9679C13.0246 23.8873 13.6622 23.6492 15.0403 22.9517C16.4185 22.2532 18.5363 21.0963 20.1274 20.141C21.7184 19.1866 22.7834 18.4338 23.3647 17.8263C23.9461 17.2188 24.0435 16.7557 23.9854 16.3798C23.9273 16.0038 23.7144 15.7141 23.3816 15.506C23.0497 15.2979 22.5978 15.1704 21.9725 15.2744C21.348 15.3785 20.5492 15.7141 19.7908 16.0619C19.1495 16.3554 18.5382 16.6573 17.9306 16.961C17.715 17.0679 17.565 17.231 17.4759 17.4551C17.1675 18.2295 16.6359 18.7442 15.8624 19.0676C15.3467 19.2832 14.7364 19.3854 14.1063 19.4407C13.4772 19.496 12.8294 19.5045 12.5134 19.3282C12.1975 19.151 12.2125 18.7892 12.6156 18.6457C13.0188 18.5023 13.811 18.5782 14.4551 18.5398C15.0992 18.5004 15.5952 18.3476 15.9937 18.1085C16.3921 17.8695 16.694 17.5441 16.7803 17.1879C16.8665 16.8316 16.7371 16.4444 16.4212 16.2026C16.1052 15.9607 15.6017 15.8669 14.9089 15.8744C14.216 15.8819 13.3347 15.9935 12.6503 15.7957C11.9659 15.5979 11.4793 15.0926 10.8127 14.6332C10.1461 14.1738 9.29946 13.7613 8.07411 13.6572C7.35687 13.5963 6.51027 13.6422 5.61011 13.7313C5.22102 13.7697 4.92852 14.095 4.93132 14.485C4.9407 16.421 4.98664 18.7038 4.93507 20.6173C4.92851 20.8911 5.05602 21.1301 5.28761 21.2754L5.28981 21.2764ZM22.3535 4.82689C22.2447 4.50533 22.1144 4.19314 21.9653 3.8922C21.8622 3.68314 21.6437 3.57064 21.414 3.6072C20.7099 3.71876 19.9636 3.50313 19.4217 2.96032C18.8789 2.41751 18.6632 1.67125 18.7748 0.967179C18.8114 0.73749 18.6988 0.519048 18.4898 0.415919C18.1888 0.266856 17.8766 0.137469 17.555 0.0287243C17.3347 -0.0462762 17.1003 0.0287243 16.9634 0.217164C16.5444 0.794656 15.8637 1.16968 15.0968 1.16968C14.3289 1.16968 13.6482 0.79468 13.2301 0.218124C13.0932 0.0287483 12.8588 -0.0453258 12.6375 0.0296843C12.316 0.138434 12.0038 0.268748 11.7028 0.416879C11.4947 0.520005 11.3812 0.738433 11.4178 0.968139C11.5284 1.67221 11.3128 2.41847 10.7709 2.96128C10.228 3.50409 9.48266 3.71973 8.77762 3.60816C8.54791 3.5716 8.32946 3.6841 8.22632 3.89316C8.07819 4.1941 7.94786 4.50629 7.83911 4.82785C7.7641 5.04816 7.83911 5.28253 8.02756 5.42036C8.60508 5.83943 8.97917 6.51911 8.97917 7.28693C8.97917 8.05474 8.60415 8.73538 8.02756 9.15349C7.83817 9.29037 7.76409 9.52475 7.83911 9.74505C7.94786 10.0676 8.07818 10.3788 8.22632 10.6797C8.32946 10.8888 8.5479 11.0013 8.77855 10.9647C9.48266 10.8532 10.229 11.0688 10.7709 11.6116C11.3128 12.1544 11.5284 12.9007 11.4178 13.6048C11.3812 13.8354 11.4937 14.0529 11.7028 14.156C12.0038 14.3051 12.316 14.4345 12.6375 14.5441C12.8588 14.6182 13.0932 14.5441 13.2301 14.3557C13.6492 13.7792 14.3289 13.4041 15.0968 13.4041C15.8637 13.4041 16.5444 13.7792 16.9634 14.3557C17.1003 14.5441 17.3347 14.6192 17.555 14.5441C17.8776 14.4354 18.1898 14.3051 18.4898 14.156C18.6988 14.0529 18.8123 13.8345 18.7748 13.6048C18.6632 12.9007 18.8789 12.1544 19.4217 11.6116C19.9645 11.0688 20.7109 10.8532 21.414 10.9647C21.6437 11.0013 21.8622 10.8888 21.9653 10.6797C22.1144 10.3788 22.2447 10.0666 22.3535 9.74411C22.4285 9.5238 22.3535 9.28943 22.165 9.15256C21.5884 8.73349 21.2134 8.0538 21.2134 7.28599C21.2134 6.51818 21.5884 5.83849 22.166 5.41943C22.3544 5.28255 22.4294 5.04817 22.3544 4.82691L22.3535 4.82689ZM14.8914 9.235C14.6757 9.45062 14.3242 9.45062 14.1076 9.235L12.2381 7.3656C12.0224 7.14997 12.0224 6.7984 12.2381 6.58185L12.2925 6.52747C12.5081 6.31185 12.8606 6.31185 13.0763 6.52747L14.371 7.82216C14.4413 7.89248 14.5576 7.89248 14.6288 7.82216L17.1152 5.33599C17.3308 5.12036 17.6833 5.12036 17.899 5.33599L17.9533 5.39036C18.169 5.60599 18.169 5.95849 17.9533 6.17411L14.8922 9.23509L14.8914 9.235ZM15.0948 3.27239C17.3112 3.27239 19.1077 5.06866 19.1077 7.28498C19.1077 9.5013 17.3113 11.2976 15.0948 11.2976C12.8784 11.2976 11.082 9.5013 11.082 7.28498C11.082 5.06866 12.8784 3.27239 15.0948 3.27239ZM1.12882 12.5444H3.04707C3.66866 12.5444 4.17682 13.0525 4.17682 13.6741V20.8873C4.17682 21.5079 3.66866 22.0161 3.04707 22.0161H1.12882C0.508161 22.0161 0 21.5079 0 20.8873V13.6741C0 13.0525 0.508161 12.5444 1.12882 12.5444ZM2.08794 19.5157C2.49859 19.5157 2.83237 19.8485 2.83237 20.2601C2.83237 20.6707 2.49955 21.0035 2.08794 21.0035C1.6773 21.0035 1.34445 20.6707 1.34445 20.2601C1.34445 19.8495 1.67728 19.5157 2.08794 19.5157Z" fill="white"/>
</svg>
