<svg width="22" height="22" viewBox="0 0 22 22" fill="none" xmlns="http://www.w3.org/2000/svg">
<path d="M19.9032 10.4775H20.955V15.7163H19.9032V10.4775ZM18.8582 16.7681H19.9032V15.7163H18.8582V10.4775H19.9032V9.4325H18.8582V7.33563H17.8063V9.4325H4.1938V7.33563H3.14192V9.4325H2.09692V10.4775H3.14192V15.7163H2.09692V16.7681H3.14192V17.8131H4.1938V10.4775H17.8063V17.8131H18.8582V16.7681ZM17.8063 0H18.8582V1.05187H17.8063V0ZM16.7613 17.8131H17.8063V18.8581H16.7613V17.8131Z" fill="white"/>
<path d="M16.7612 5.23875H17.8062V7.33563H16.7612V5.23875ZM16.7612 1.05187H17.8062V2.09687H16.7612V1.05187ZM15.7162 4.19375H16.7612V5.23875H15.7162V4.19375ZM15.7162 2.09687H16.7612V3.14875H15.7162V2.09687ZM14.6643 20.955H15.7162V19.91H16.7612V18.8581H14.6643V20.955ZM13.6193 3.14875H15.7162V4.19375H13.6193V3.14875ZM12.5743 20.955H14.6643V22H12.5743V20.955ZM9.42555 18.8581V20.955H10.4774V19.91H11.5224V20.955H12.5743V18.8581H9.42555ZM8.38055 2.09687H13.6193V3.14875H8.38055V2.09687ZM7.33555 20.955H9.42555V22H7.33555V20.955ZM15.7162 8.38062V6.29062H14.6643V5.23875H7.33555V6.29062H6.28367V8.38062H15.7162ZM12.5743 6.29062H13.6193V7.33563H12.5743V6.29062ZM8.38055 6.29062H9.42555V7.33563H8.38055V6.29062ZM6.28367 3.14875H8.38055V4.19375H6.28367V3.14875ZM5.23867 18.8581V19.91H6.28367V20.955H7.33555V18.8581H5.23867ZM5.23867 4.19375H6.28367V5.23875H5.23867V4.19375ZM5.23867 2.09687H6.28367V3.14875H5.23867V2.09687ZM4.19367 17.8131H5.23867V18.8581H4.19367V17.8131ZM4.19367 5.23875H5.23867V7.33563H4.19367V5.23875ZM4.19367 1.05187H5.23867V2.09687H4.19367V1.05187ZM3.1418 0H4.19367V1.05187H3.1418V0ZM1.04492 10.4775H2.0968V15.7163H1.04492V10.4775Z" fill="white"/>
</svg>
