<svg width="24" height="22" viewBox="0 0 24 22" fill="none" xmlns="http://www.w3.org/2000/svg">
<path d="M22.2105 8.64552H20.9175C20.8738 7.56138 20.642 6.51034 20.2246 5.51172C19.7745 4.43586 19.1307 3.47035 18.3123 2.64276C17.4912 1.81241 16.5365 1.16138 15.4753 0.708965C14.3733 0.237241 13.2057 0 12 0C10.7943 0 9.62673 0.24 8.52466 0.708965C7.46079 1.16414 6.50602 1.81517 5.68766 2.64276C4.86656 3.4731 4.22278 4.43862 3.7754 5.51172C3.35804 6.50759 3.12616 7.56138 3.08252 8.64552H1.7895C0.802 8.64552 0 9.45655 0 10.4552V13.2414C0 14.24 0.802 15.051 1.7895 15.051H3.34167C3.48352 15.051 3.60082 14.9352 3.60082 14.789V8.90483C3.60082 8.88276 3.59809 8.86069 3.59263 8.84138C3.63901 6.63724 4.50921 4.57379 6.05319 3.01241C7.64083 1.4069 9.75494 0.521379 12 0.521379C14.2451 0.521379 16.3592 1.4069 17.9468 3.01241C19.4935 4.57655 20.361 6.64 20.4074 8.84138C20.4019 8.86069 20.3992 8.88276 20.3992 8.90483V14.789C20.3992 14.9324 20.5138 15.051 20.6583 15.051H21.4767V16.1572C21.4767 18.5241 19.5726 20.4524 17.2294 20.4524H13.7459V20.2317C13.7459 19.7876 13.3885 19.4262 12.9493 19.4262H11.0507C10.6115 19.4262 10.2541 19.7876 10.2541 20.2317V21.1945C10.2541 21.6386 10.6115 22 11.0507 22H12.9493C13.3885 22 13.7459 21.6386 13.7459 21.1945V20.9738H17.2294C19.8563 20.9738 21.995 18.811 21.995 16.1545V15.0483H22.2105C23.198 15.0483 24 14.2372 24 13.2386V10.4524C24 9.45379 23.198 8.64276 22.2105 8.64276V8.64552Z" fill="white"/>
<path d="M11.7817 17.8979C11.8308 17.9724 11.9099 18.0138 11.9972 18.0138C12.0845 18.0138 12.1636 17.9697 12.2127 17.8979L13.4321 16.0359C14.5559 15.7269 15.5707 15.051 16.2991 14.1214C17.0711 13.1338 17.4775 11.9476 17.4775 10.6869C17.4775 7.63035 15.0197 5.14484 11.9972 5.14484C8.97468 5.14484 6.51685 7.63035 6.51685 10.6869C6.51685 11.9476 6.9233 13.1366 7.6953 14.1214C8.42364 15.051 9.43842 15.7297 10.5623 16.0359L11.7817 17.8979ZM14.5941 11.3324C14.3159 11.3324 14.0922 11.1035 14.0922 10.8248C14.0922 10.5462 14.3186 10.3173 14.5941 10.3173C14.8697 10.3173 15.0961 10.5462 15.0961 10.8248C15.0961 11.1035 14.8697 11.3324 14.5941 11.3324ZM12.4991 10.8248C12.4991 11.1062 12.2727 11.3324 11.9972 11.3324C11.7217 11.3324 11.4952 11.1035 11.4952 10.8248C11.4952 10.5462 11.7217 10.3173 11.9972 10.3173C12.2727 10.3173 12.4991 10.5462 12.4991 10.8248ZM9.40023 10.3173C9.67847 10.3173 9.90216 10.5462 9.90216 10.8248C9.90216 11.1035 9.67575 11.3324 9.40023 11.3324C9.12471 11.3324 8.8983 11.1035 8.8983 10.8248C8.8983 10.5462 9.12471 10.3173 9.40023 10.3173Z" fill="white"/>
</svg>
