<svg width="22" height="24" viewBox="0 0 22 24" fill="none" xmlns="http://www.w3.org/2000/svg">
<path fill-rule="evenodd" clip-rule="evenodd" d="M6.74886 0H7.17318V0.795298C7.17318 1.54283 7.77952 2.15236 8.52312 2.15236H13.4766C14.2202 2.15236 14.8265 1.54283 14.8265 0.795298V0H15.2509C16.0898 0 16.7764 0.689984 16.7764 1.53361V12.3826H15.3528C14.8493 12.3826 14.4397 12.7943 14.4397 13.3005V18.1184C14.4397 18.6245 14.8493 19.0363 15.3528 19.0363H16.7764V22.4664C16.7764 23.3097 16.0901 24 15.2509 24H6.74886C5.90994 24 5.2233 23.31 5.2233 22.4664V9.99108H6.64688C7.1504 9.99108 7.55999 9.57961 7.55999 9.07315V4.25528C7.55999 3.7491 7.15067 3.33734 6.64688 3.33734H5.2233V1.53333C5.2233 0.689984 5.90994 0 6.74886 0ZM13.1993 10.9551C13.1843 10.8557 13.1379 10.7693 13.0717 10.7048L13.1509 11.2333C13.1954 11.152 13.2146 11.0554 13.1993 10.9551ZM7.76534 12.534C7.89011 12.6267 8.03572 12.6915 8.19217 12.7211L8.18633 12.6817L7.89706 10.7515C7.75617 10.8263 7.63585 10.9316 7.54332 11.0576C7.38437 11.2741 7.30768 11.5523 7.35102 11.8415C7.3941 12.13 7.54943 12.3736 7.76534 12.534ZM10.3724 13.1994L12.5557 14.038C12.643 14.0715 12.7419 14.0863 12.8422 14.0824C12.9345 14.079 13.03 14.0592 13.119 14.0234C13.2232 13.9818 13.309 13.9218 13.3705 13.8514C13.4655 13.7424 13.5074 13.6125 13.4866 13.4737L13.2718 12.0409C13.4338 11.9596 13.5722 11.8409 13.6775 11.6976C13.8476 11.4663 13.9312 11.1716 13.8898 10.8671C13.8887 10.8562 13.887 10.8456 13.8851 10.8353C13.8353 10.5322 13.6695 10.2763 13.4402 10.1062C13.2971 10 13.1298 9.92739 12.9509 9.8975L12.7363 8.46502C12.7155 8.3259 12.6371 8.21444 12.5146 8.13818C12.4337 8.0879 12.334 8.05578 12.2236 8.04684C12.1289 8.0393 12.0322 8.04879 11.9424 8.07282C11.8474 8.09824 11.7571 8.14237 11.6815 8.20187L9.77691 9.69973L8.12964 9.94918L8.12853 9.94946C7.6528 10.0215 7.25071 10.281 6.98534 10.6422C6.71941 11.0043 6.59075 11.4674 6.66244 11.9454C6.73413 12.4236 6.99228 12.8278 7.35158 13.0946C7.71171 13.362 8.17244 13.4913 8.64789 13.4192L8.88798 13.3829L9.46902 15.083C9.50932 15.2006 9.59518 15.2906 9.70161 15.3411C9.79664 15.3861 9.9103 15.3995 10.0195 15.3702L10.553 15.2277C10.5655 15.2249 10.578 15.2213 10.5905 15.2171C10.6942 15.1813 10.7781 15.1101 10.8309 15.0213C10.8895 14.9227 10.9095 14.8051 10.8787 14.688C10.8745 14.6724 10.8718 14.6626 10.8701 14.6576L10.3724 13.1994ZM8.5762 10.5886L8.88881 12.675L10.2815 12.4641C10.3388 12.4555 10.3991 12.4611 10.4569 12.4834L12.7672 13.3706L12.3581 10.6406L12.3042 10.2805L12.0786 8.77453L10.1526 10.2894C10.1031 10.3352 10.0401 10.3671 9.96865 10.378L8.5762 10.5886ZM9.66159 13.2728L9.5899 13.2823L10.0534 14.6383L10.122 14.6198L9.66159 13.2728ZM14.3733 10.3554L14.8371 9.84052C14.9655 9.69777 14.9546 9.47737 14.8126 9.34831C14.6707 9.21925 14.4514 9.23015 14.323 9.37289L13.8592 9.88773C13.7309 10.0305 13.7417 10.2509 13.8837 10.3799C14.0257 10.509 14.2449 10.4981 14.3733 10.3554ZM14.1535 11.8401L14.7485 12.1934C14.9138 12.2915 15.1269 12.2365 15.2245 12.0705C15.322 11.9043 15.2673 11.6901 15.1022 11.592L14.5073 11.2386C14.3419 11.1406 14.1288 11.1956 14.0312 11.3616C13.9334 11.5275 13.9882 11.7417 14.1535 11.8401ZM14.5264 11.1392L15.2097 11.0358C15.3998 11.0071 15.5307 10.8291 15.5021 10.6381C15.4734 10.447 15.2964 10.3154 15.1064 10.3442L14.4231 10.4475C14.233 10.4763 14.1021 10.6543 14.1307 10.8453C14.1591 11.0361 14.3364 11.168 14.5264 11.1392ZM9.62797 22.1971H12.372C12.5643 22.1971 12.7202 22.0404 12.7202 21.8471C12.7202 21.6538 12.5643 21.4971 12.372 21.4971H9.62797C9.43568 21.4971 9.27979 21.6538 9.27979 21.8471C9.27979 22.0404 9.43568 22.1971 9.62797 22.1971ZM7.77007 0.0382703V0.795298C7.77007 1.2118 8.10908 1.55233 8.52312 1.55233H13.4766C13.8909 1.55233 14.2297 1.21152 14.2297 0.795298V0.0382703H7.77007ZM0.324841 3.93738C0.150889 3.93738 0.00889218 4.07985 0.0086143 4.255L0 10.7744L1.43636 9.39133H6.64688C6.82111 9.39133 6.96311 9.24858 6.96311 9.07343V4.25528C6.96311 4.08013 6.82111 3.93738 6.64688 3.93738H0.324841ZM3.2398 8.59072C3.37568 8.72732 3.59604 8.72732 3.7322 8.59072L5.11243 7.20321L5.11187 7.20265C5.11826 7.19623 5.12438 7.1898 5.13021 7.18282C5.52258 6.7233 5.54509 6.18835 5.35613 5.75173C5.27943 5.57491 5.16745 5.4154 5.03101 5.28439C4.8929 5.15198 4.7284 5.04806 4.54833 4.98493C4.21404 4.8676 3.83668 4.88743 3.486 5.1179C3.13531 4.88743 2.75795 4.8676 2.42367 4.98493C2.2436 5.04806 2.07909 5.15198 1.94099 5.28439C1.80455 5.41512 1.69256 5.57491 1.61615 5.75145C1.43025 6.18109 1.44914 6.70626 1.82428 7.16103C1.83484 7.17556 1.84679 7.18952 1.85985 7.20293L3.2398 8.59072ZM2.35586 6.71212C2.17441 6.48809 2.16385 6.23528 2.25249 6.03052C2.29167 5.93973 2.34947 5.8576 2.4195 5.79028C2.48813 5.72436 2.56761 5.67351 2.65208 5.6439C2.82937 5.58161 3.04334 5.61793 3.2398 5.81542C3.37568 5.95202 3.59604 5.95202 3.7322 5.81542C3.92866 5.61793 4.14263 5.58161 4.31992 5.6439C4.40439 5.67351 4.48386 5.72436 4.5525 5.79028C4.6228 5.8576 4.68033 5.93973 4.71951 6.03052C4.80815 6.23528 4.79759 6.48837 4.61613 6.71212L3.486 7.84822L2.35586 6.71212ZM21.6749 12.9823H15.3528C15.1786 12.9823 15.0366 13.1251 15.0366 13.3002V18.1181C15.0366 18.2932 15.1786 18.436 15.3528 18.436H20.5636L22 19.819L21.9911 13.2997C21.9908 13.1248 21.8488 12.9823 21.6749 12.9823ZM18.8452 13.7564C18.8127 13.6519 18.7316 13.5645 18.6202 13.5284C18.4376 13.4695 18.2422 13.5706 18.1836 13.7542L17.8085 14.9224L16.6119 14.9201C16.496 14.9118 16.3782 14.962 16.3051 15.0637C16.1926 15.2199 16.2271 15.4386 16.3827 15.5517L17.3722 16.2716L16.9926 17.4387L16.9934 17.439C16.9604 17.5415 16.9748 17.658 17.0429 17.7519C17.1554 17.9075 17.3725 17.9418 17.527 17.8284L18.5143 17.1043L19.4805 17.8128C19.5694 17.8885 19.6942 17.9178 19.8131 17.879C19.9957 17.8192 20.0954 17.6223 20.0362 17.4387L19.6558 16.2711L20.6453 15.5512L20.6448 15.5506C20.7315 15.4872 20.7882 15.3844 20.7882 15.2682C20.7882 15.0757 20.6328 14.9196 20.4414 14.9196L19.2195 14.9218L18.8452 13.7564ZM18.6363 15.3777C18.6852 15.5311 18.83 15.6269 18.9828 15.6196L19.3663 15.6188L19.0428 15.854C18.9139 15.9481 18.868 16.1146 18.9205 16.2579L19.0409 16.6275L18.718 16.3909C18.5913 16.2982 18.4231 16.3043 18.3045 16.3951L17.9871 16.6278L18.1116 16.2454C18.1594 16.0976 18.1039 15.9409 17.9852 15.8543L17.6617 15.6191L18.0611 15.6199C18.2156 15.6199 18.3464 15.5182 18.3915 15.3777L18.5143 14.9964L18.6363 15.3777Z" fill="white"/>
</svg>
