<svg width="24" height="21" viewBox="0 0 24 21" fill="none" xmlns="http://www.w3.org/2000/svg">
<path d="M23.8592 0.633223C23.7693 0.553223 23.6491 0.513223 23.5305 0.529434L11.4865 1.92501L0.493474 0.00627616C0.370947 -0.0151975 0.245263 0.0191183 0.150105 0.0986972C0.0549474 0.178908 0 0.296802 0 0.421223V18.316C0 18.5254 0.154105 18.7031 0.361474 18.7326L11.4141 20.3115C11.4339 20.3145 11.4537 20.316 11.4737 20.316C11.4914 20.316 11.5091 20.3149 11.5267 20.3126L22.5453 18.9099C22.7556 18.8829 22.9133 18.704 22.9133 18.4922V7.64059L23.8766 6.67743C23.9556 6.59849 24 6.49133 24 6.37975V0.947539C24 0.827539 23.9486 0.713013 23.8592 0.633223ZM4.18484 3.13849C4.14358 3.33722 3.96842 3.47385 3.77305 3.47385C3.74463 3.47385 3.71579 3.47091 3.68695 3.46501L1.51432 3.01322C1.28674 2.96586 1.14042 2.74312 1.18779 2.51533C1.23495 2.28754 1.45811 2.14122 1.68568 2.1888L3.85832 2.64059C4.08589 2.68796 4.23221 2.9107 4.18484 3.13849ZM11.8947 19.3686C11.8947 19.601 11.7061 19.7896 11.4737 19.7896C11.2413 19.7896 11.0526 19.601 11.0526 19.3686V3.0528C11.0526 2.82038 11.2413 2.63175 11.4737 2.63175C11.7061 2.63175 11.8947 2.82038 11.8947 3.0528V19.3686ZM21.5789 17.3686H12.9474V4.03554H21.5789V17.3686Z" fill="white"/>
</svg>
