<svg width="25" height="25" viewBox="0 0 25 25" fill="none" xmlns="http://www.w3.org/2000/svg">
<path d="M0 16.0312V24.5803C0.000180051 24.642 0.0247798 24.7012 0.0684257 24.7448C0.112072 24.7885 0.171216 24.8131 0.232941 24.8133H2.32478C2.35546 24.8136 2.38588 24.8077 2.41428 24.7961C2.44268 24.7845 2.46848 24.7674 2.49017 24.7457C2.51186 24.724 2.52901 24.6982 2.54061 24.6698C2.55221 24.6414 2.55803 24.611 2.55773 24.5803V15.7983H0.232941C0.171216 15.7985 0.112072 15.8231 0.0684257 15.8667C0.0247798 15.9103 0.000180051 15.9695 0 16.0312ZM1.28119 22.6701C1.43437 22.673 1.58031 22.7359 1.68762 22.8452C1.79494 22.9545 1.85506 23.1016 1.85505 23.2548C1.85505 23.408 1.79492 23.5551 1.6876 23.6645C1.58028 23.7738 1.43434 23.8367 1.28116 23.8395C1.12798 23.8367 0.982045 23.7738 0.87473 23.6645C0.767416 23.5551 0.707297 23.408 0.707301 23.2548C0.707305 23.1016 0.767432 22.9545 0.874752 22.8452C0.982072 22.7358 1.12801 22.673 1.28119 22.6701Z" fill="white"/>
<path d="M1.39776 23.2525C1.39637 23.222 1.38324 23.1931 1.36111 23.172C1.33898 23.1508 1.30956 23.139 1.27896 23.139C1.24836 23.139 1.21893 23.1508 1.19681 23.172C1.17468 23.1931 1.16155 23.222 1.16016 23.2525C1.16014 23.383 1.39776 23.383 1.39776 23.2525Z" fill="white"/>
<path d="M4.69623 15.7983H3.02368V23.6206H4.69623C4.83512 23.621 4.9708 23.5788 5.08493 23.4996C5.19907 23.4205 5.28618 23.3082 5.33449 23.178C5.3638 23.1021 5.37956 23.0217 5.38107 22.9404V16.6182C5.39697 16.5183 5.39127 16.4161 5.36436 16.3185C5.33745 16.2209 5.28996 16.1302 5.22507 16.0526C5.16019 15.9749 5.07942 15.912 4.9882 15.8681C4.89698 15.8243 4.79742 15.8004 4.69623 15.7983Z" fill="white"/>
<path d="M15.1694 8.76338C13.2781 8.76443 10.464 8.76261 8.59106 8.76338L6.96045 11.6892H13.5435L15.1694 8.76338Z" fill="white"/>
<path d="M7.8316 4.44461L9.91877 3.82963C9.71877 3.67123 9.54298 3.48446 9.39698 3.27524C9.36928 3.23567 9.35462 3.18844 9.35506 3.14014L9.3597 0.465942C8.68855 0.854526 8.17082 1.46135 7.89276 2.18532C7.61471 2.90928 7.59312 3.70666 7.8316 4.44461Z" fill="white"/>
<path d="M10.1563 6.69018C10.4156 6.70945 10.3494 7.03279 10.3473 7.20732L10.3147 8.2975H11.8009C11.7956 8.08233 11.7715 7.1236 11.7636 6.93246C11.7634 6.87833 11.7811 6.82565 11.814 6.78266C11.8468 6.73966 11.893 6.70878 11.9453 6.69485C12.6473 6.50791 13.2708 6.10095 13.7246 5.53367C14.1783 4.96639 14.4383 4.26865 14.4664 3.54278C14.4946 2.81692 14.2894 2.10114 13.8809 1.50044C13.4725 0.899744 12.8823 0.445737 12.1969 0.205017L12.1876 3.11218C12.1885 3.16493 12.1703 3.21623 12.1364 3.2566C11.6057 3.89756 11.1435 4.19648 10.5663 4.12317L7.99927 4.88255C8.20905 5.3203 8.51007 5.70809 8.88212 6.01987C9.25418 6.33165 9.68864 6.56021 10.1563 6.69018ZM9.81156 4.76139L12.4671 4.31882C12.4971 4.31356 12.5279 4.31436 12.5576 4.32116C12.5873 4.32796 12.6154 4.34063 12.6401 4.35843C12.6648 4.37622 12.6858 4.39878 12.7017 4.42478C12.7176 4.45078 12.7281 4.47969 12.7327 4.50982L12.8818 5.39966C12.8907 5.46007 12.8757 5.52158 12.8401 5.57116C12.8044 5.62073 12.7509 5.65447 12.6907 5.66522L10.0352 6.10782C9.97345 6.11731 9.91047 6.10209 9.8599 6.06546C9.80932 6.02884 9.77521 5.97375 9.76498 5.91215L9.61589 5.02695C9.61113 4.99665 9.61242 4.9657 9.6197 4.93589C9.62698 4.90609 9.6401 4.87803 9.65829 4.85333C9.67649 4.82863 9.69941 4.80779 9.72571 4.79201C9.75202 4.77623 9.7812 4.76582 9.81156 4.76139Z" fill="white"/>
<path d="M12.3833 5.24574L12.3132 4.8172L10.1143 5.18059L10.1843 5.60914L12.3833 5.24574Z" fill="white"/>
<path d="M22.5442 8.76342C21.6394 8.76435 19.851 8.7627 18.9615 8.76342C18.9735 8.75431 18.9312 8.76708 18.9196 8.76342H15.9612L17.5965 11.6892H24.1748L22.5442 8.76342Z" fill="white"/>
<path d="M15.4023 6.7368L15.8775 7.54744C15.9334 7.64243 16.0211 7.71461 16.1251 7.75126C16.2291 7.7879 16.3427 7.78666 16.4458 7.74775L17.4242 7.39366C17.7651 7.6923 18.1629 7.91891 18.5936 8.05988L18.6402 8.29749C19.2081 8.29778 20.2294 8.29728 20.7973 8.29749L20.8438 8.06454C21.2632 7.9228 21.6521 7.70309 21.9899 7.41698L22.9636 7.77572C23.0669 7.81586 23.181 7.81823 23.2858 7.78244C23.3907 7.74664 23.4795 7.67496 23.5367 7.58006L24.0165 6.77871C24.0755 6.68434 24.099 6.57205 24.0828 6.46194C24.0666 6.35184 24.0117 6.25109 23.928 6.17773L23.15 5.48819C23.2634 4.98006 23.2602 4.45283 23.1407 3.9461L23.9141 3.25193C23.9967 3.17874 24.0505 3.07851 24.0659 2.96922C24.0812 2.85993 24.0571 2.74874 23.9979 2.65561L23.5087 1.8496C23.4494 1.7571 23.3602 1.6877 23.2559 1.65295C23.1517 1.6182 23.0386 1.62019 22.9357 1.6586L21.9666 2.03597C21.6344 1.75881 21.2537 1.54557 20.8438 1.40703L20.6528 0.391369C20.6351 0.281896 20.579 0.182328 20.4944 0.110587C20.4099 0.0388462 20.3025 -0.000356035 20.1916 3.62868e-05H19.2505C19.1396 -0.00134605 19.0318 0.0368062 18.9464 0.107661C18.861 0.178516 18.8037 0.277445 18.7846 0.386733L18.5936 1.41166C18.1639 1.55178 17.7675 1.77854 17.4289 2.07791L16.4505 1.71917C16.346 1.68142 16.2317 1.68124 16.1271 1.71865C16.0226 1.75606 15.9343 1.82873 15.8775 1.92416L15.4023 2.73014C15.3462 2.82608 15.3253 2.93855 15.3432 3.04823C15.361 3.15791 15.4165 3.25794 15.5001 3.33115L16.2828 4.01133C16.1803 4.4873 16.1803 4.97964 16.2828 5.4556L15.4954 6.14045C15.4132 6.21362 15.3589 6.31312 15.3419 6.42191C15.3249 6.5307 15.3462 6.64201 15.4023 6.7368ZM16.7673 5.48356C16.7742 5.51893 16.7742 5.55532 16.7673 5.5907C16.7766 5.5556 16.7766 5.51866 16.7673 5.48356ZM19.7164 6.80666C16.9825 6.72092 16.9831 2.75491 19.7164 2.66957C22.4503 2.75532 22.4497 6.72132 19.7164 6.80666Z" fill="white"/>
<path d="M19.7163 3.13544C19.2944 3.14025 18.8914 3.31123 18.5948 3.61127C18.2982 3.91131 18.1318 4.31621 18.1318 4.73812C18.1318 5.16003 18.2982 5.56493 18.5948 5.86496C18.8915 6.16499 19.2945 6.33595 19.7164 6.34076C20.1382 6.33594 20.5412 6.16496 20.8378 5.86493C21.1345 5.56489 21.3008 5.15999 21.3008 4.73807C21.3008 4.31616 21.1344 3.91126 20.8378 3.61123C20.5412 3.3112 20.1382 3.14024 19.7163 3.13544Z" fill="white"/>
<path d="M22.386 17.7271C22.407 17.7173 22.4288 17.7095 22.4512 17.7038V12.155H17.4569C17.4156 12.1552 17.375 12.144 17.3397 12.1227C17.3043 12.1013 17.2756 12.0706 17.2566 12.0339L15.7983 9.42493V18.3653C16.112 18.5755 16.346 18.885 16.4626 19.2441C16.5792 19.6032 16.5717 19.991 16.4413 20.3454L22.386 17.7271Z" fill="white"/>
<path d="M13.6784 12.155H8.68872V17.4429C9.20788 17.6885 9.85966 18.1161 10.4591 18.0765C10.6493 18.102 15.3446 18.0103 15.3323 18.1464V9.43427L13.8833 12.0339C13.8629 12.0704 13.8332 12.1008 13.7972 12.1221C13.7612 12.1434 13.7202 12.1547 13.6784 12.155Z" fill="white"/>
<path d="M24.1795 18.7707C24.1152 18.6246 24.0227 18.4926 23.9072 18.3823C23.7918 18.272 23.6557 18.1856 23.5068 18.1281C23.3579 18.0705 23.1991 18.0429 23.0395 18.0468C22.8799 18.0508 22.7227 18.0862 22.5768 18.1511L15.9239 21.0815C15.6263 21.327 15.2521 21.4605 14.8663 21.4589H12.4018C12.3411 21.4573 12.2834 21.432 12.241 21.3885C12.1986 21.345 12.1749 21.2867 12.1749 21.2259C12.1749 21.1652 12.1986 21.1068 12.241 21.0633C12.2834 21.0198 12.3411 20.9946 12.4018 20.993H14.8663C15.1366 20.9869 15.3973 20.892 15.6083 20.7229C15.8192 20.5538 15.9685 20.3199 16.0332 20.0574C16.0979 19.795 16.0743 19.5185 15.9661 19.2707C15.858 19.023 15.6712 18.8178 15.4347 18.6868C15.2612 18.5897 15.0652 18.5399 14.8663 18.5424H10.4591C9.74755 18.5818 8.97443 18.1069 8.36254 17.8016L7.02079 17.1261C6.65153 16.9582 6.25225 16.8663 5.84672 16.8559V22.9404C5.84669 22.9966 5.84203 23.0527 5.83276 23.1081L10.869 24.6362C11.5679 24.8965 12.7672 24.7932 13.506 24.8133C14.1395 24.812 14.7643 24.6654 15.3322 24.3846L19.2038 22.4559L23.6251 20.3687C23.7666 20.3003 23.8932 20.2047 23.9976 20.0874C24.1021 19.97 24.1824 19.8332 24.2339 19.6847C24.2854 19.5363 24.3071 19.3791 24.2978 19.2223C24.2884 19.0654 24.2482 18.912 24.1795 18.7707Z" fill="white"/>
</svg>
