<svg width="22" height="22" viewBox="0 0 22 22" fill="none" xmlns="http://www.w3.org/2000/svg">
<path fill-rule="evenodd" clip-rule="evenodd" d="M12.8432 2.88643L12.8139 4.24624C13.4012 4.40391 13.9659 4.63798 14.4927 4.94172L15.4339 3.95961C15.5677 3.81966 15.7834 3.79827 15.9423 3.90888C16.7796 4.49253 17.5075 5.2204 18.0911 6.05766C18.2017 6.21656 18.1803 6.4323 18.0404 6.56614L17.0583 7.50669C17.362 8.03411 17.5961 8.59821 17.7538 9.18613L19.1136 9.15679C19.3073 9.15251 19.4748 9.29002 19.509 9.4807C19.688 10.4854 19.688 11.5146 19.509 12.5193C19.4748 12.71 19.3073 12.8475 19.1136 12.8432L17.7538 12.8139C17.5961 13.4012 17.362 13.9659 17.0583 14.4927L18.0404 15.4339C18.1803 15.5677 18.2017 15.7834 18.0911 15.9423C17.5075 16.7796 16.7796 17.5075 15.9423 18.0911C15.7834 18.2017 15.5677 18.1803 15.4339 18.0404L14.4933 17.0583C13.9659 17.362 13.4018 17.5961 12.8139 17.7538L12.8432 19.1136C12.8475 19.3073 12.71 19.4748 12.5193 19.509C11.5146 19.688 10.4854 19.688 9.4807 19.509C9.29002 19.4748 9.15251 19.3073 9.15679 19.1136L9.18613 17.7538C8.59882 17.5961 8.03411 17.362 7.50731 17.0583L6.56614 18.0404C6.4323 18.1803 6.21656 18.2017 6.05766 18.0911C5.2204 17.5075 4.49253 16.7796 3.90888 15.9423C3.79827 15.7834 3.81966 15.5677 3.95961 15.4339L4.94172 14.4933C4.63798 13.9659 4.40391 13.4018 4.24624 12.8139L2.88643 12.8432C2.6927 12.8475 2.52525 12.71 2.49102 12.5193C2.31196 11.5146 2.31196 10.4854 2.49102 9.4807C2.52525 9.29002 2.6927 9.15251 2.88643 9.15679L4.24624 9.18613C4.40391 8.59882 4.63798 8.03411 4.94172 7.50731L3.95961 6.56614C3.81966 6.4323 3.79827 6.21656 3.90888 6.05766C4.49253 5.2204 5.2204 4.49253 6.05766 3.90888C6.21656 3.79827 6.4323 3.81966 6.56614 3.95961L7.50669 4.94172C8.03411 4.63798 8.59821 4.40391 9.18613 4.24624L9.15679 2.88643C9.15251 2.6927 9.29002 2.52525 9.4807 2.49102C10.4854 2.31196 11.5146 2.31196 12.5193 2.49102C12.71 2.52525 12.8475 2.6927 12.8432 2.88643ZM13.0308 8.86038L14.4566 10.9994L13.0308 13.139C12.9104 13.3193 12.9593 13.5631 13.1396 13.6835C13.3199 13.8039 13.5644 13.7551 13.6841 13.5748L15.256 11.2176C15.344 11.0856 15.344 10.9138 15.256 10.7818L13.6841 8.42464C13.5644 8.24435 13.3199 8.19546 13.1396 8.31585C12.9593 8.43564 12.9104 8.68009 13.0308 8.86038ZM11.4131 8.51814L9.84189 13.2325C9.77344 13.4385 9.88466 13.6609 10.0906 13.7294C10.296 13.7978 10.519 13.6866 10.5875 13.4812L12.1587 8.76688C12.2272 8.56092 12.1159 8.33846 11.9106 8.27001C11.7046 8.20095 11.4822 8.31279 11.4131 8.51814ZM8.31647 8.42464L6.74459 10.7818C6.65719 10.9138 6.65719 11.0856 6.74459 11.2176L8.31647 13.5748C8.43686 13.7551 8.6807 13.8039 8.86099 13.6835C9.04128 13.5631 9.09016 13.3193 8.97038 13.139L7.54397 10.9994L8.97038 8.86038C9.09016 8.68009 9.04128 8.43564 8.86099 8.31585C8.6807 8.19546 8.43686 8.24435 8.31647 8.42464ZM16.2962 2.26673C16.111 2.15367 16.0523 1.91226 16.1648 1.72647C16.2772 1.5413 16.5193 1.48263 16.7044 1.59508C18.2146 2.51363 19.4864 3.78542 20.4049 5.29556C20.5174 5.48074 20.4587 5.72277 20.2735 5.83522C20.0877 5.94767 19.8463 5.889 19.7333 5.70382C18.8801 4.30125 17.6988 3.11989 16.2962 2.26673ZM20.4893 7.21701C20.4092 7.01533 20.507 6.78676 20.7086 6.70609C20.9097 6.62603 21.1389 6.72382 21.219 6.9255C21.7225 8.18568 22 9.56075 22 11C22 17.0711 17.0711 22 11 22C9.56075 22 8.1863 21.7225 6.92611 21.2196C6.72444 21.1389 6.62665 20.9103 6.70671 20.7086C6.78738 20.5076 7.01595 20.4092 7.21762 20.4899C8.38736 20.9568 9.66404 21.2141 11 21.2141C16.6372 21.2141 21.2141 16.6372 21.2141 11C21.2141 9.66343 20.9568 8.38674 20.4893 7.21701ZM5.70442 19.7339C5.8896 19.8463 5.94888 20.0883 5.83581 20.2735C5.72336 20.4587 5.48135 20.518 5.29618 20.4049C3.78542 19.4864 2.51363 18.2146 1.59508 16.7038C1.48202 16.5186 1.5413 16.2766 1.72647 16.1642C1.91165 16.0511 2.15368 16.1104 2.26613 16.2956C3.11929 17.6988 4.30123 18.8807 5.70442 19.7339ZM1.51013 14.7824C1.5908 14.9841 1.49242 15.2126 1.29135 15.2933C1.08968 15.3734 0.861109 15.2756 0.780437 15.0739C0.277465 13.8137 0 12.4392 0 11C0 4.92888 4.92888 0 11 0C12.4392 0 13.8143 0.277451 15.0745 0.781034C15.2762 0.861094 15.374 1.09029 15.2939 1.29135C15.2132 1.49303 14.9847 1.5908 14.783 1.51074C13.6133 1.04322 12.3366 0.785921 11 0.785921C5.3628 0.785921 0.785921 5.3628 0.785921 11C0.785921 12.336 1.04321 13.6126 1.51013 14.7824Z" fill="white"/>
</svg>
