<svg width="28" height="28" viewBox="0 0 28 28" fill="none" xmlns="http://www.w3.org/2000/svg">
<path fill-rule="evenodd" clip-rule="evenodd" d="M4.66683 4.66663C4.04799 4.66663 3.4545 4.91246 3.01691 5.35004C2.57933 5.78763 2.3335 6.38112 2.3335 6.99996V21C2.3335 21.6188 2.57933 22.2123 3.01691 22.6499C3.4545 23.0875 4.04799 23.3333 4.66683 23.3333H23.3335C23.9523 23.3333 24.5458 23.0875 24.9834 22.6499C25.421 22.2123 25.6668 21.6188 25.6668 21V6.99996C25.6668 6.38112 25.421 5.78763 24.9834 5.35004C24.5458 4.91246 23.9523 4.66663 23.3335 4.66663H4.66683ZM23.3335 12.8333H4.66683V21H23.3335V12.8333ZM5.8335 9.33329C5.8335 9.02387 5.95641 8.72713 6.17521 8.50833C6.394 8.28954 6.69074 8.16663 7.00016 8.16663H7.01183C7.32125 8.16663 7.618 8.28954 7.83679 8.50833C8.05558 8.72713 8.1785 9.02387 8.1785 9.33329C8.1785 9.64271 8.05558 9.93946 7.83679 10.1583C7.618 10.377 7.32125 10.5 7.01183 10.5H7.00016C6.69074 10.5 6.394 10.377 6.17521 10.1583C5.95641 9.93946 5.8335 9.64271 5.8335 9.33329ZM10.5002 8.16663C10.1907 8.16663 9.894 8.28954 9.67521 8.50833C9.45641 8.72713 9.3335 9.02387 9.3335 9.33329C9.3335 9.64271 9.45641 9.93946 9.67521 10.1583C9.894 10.377 10.1907 10.5 10.5002 10.5H10.5118C10.8212 10.5 11.118 10.377 11.3368 10.1583C11.5556 9.93946 11.6785 9.64271 11.6785 9.33329C11.6785 9.02387 11.5556 8.72713 11.3368 8.50833C11.118 8.28954 10.8212 8.16663 10.5118 8.16663H10.5002ZM12.8335 9.33329C12.8335 9.02387 12.9564 8.72713 13.1752 8.50833C13.394 8.28954 13.6907 8.16663 14.0002 8.16663H14.0118C14.3212 8.16663 14.618 8.28954 14.8368 8.50833C15.0556 8.72713 15.1785 9.02387 15.1785 9.33329C15.1785 9.64271 15.0556 9.93946 14.8368 10.1583C14.618 10.377 14.3212 10.5 14.0118 10.5H14.0002C13.6907 10.5 13.394 10.377 13.1752 10.1583C12.9564 9.93946 12.8335 9.64271 12.8335 9.33329Z" fill="white"/>
</svg>
