<svg width="24" height="24" viewBox="0 0 24 24" fill="none" xmlns="http://www.w3.org/2000/svg">
<path d="M0.0408919 9.68835C0.0129651 9.824 0 9.96363 0 10.1092V21.7728C0 22.051 0.0508646 22.3164 0.145611 22.5617L7.98876 16.1664L0.0408919 9.68835ZM1.72041 16.3548C1.72041 16.4974 1.60571 16.6101 1.46509 16.6101C1.32446 16.6101 1.20977 16.4974 1.20977 16.3548V14.5675C1.20977 14.4268 1.32446 14.3121 1.46509 14.3121C1.60571 14.3121 1.72041 14.4268 1.72041 14.5675V16.3548ZM1.46509 13.8015C1.32446 13.8015 1.20977 13.6868 1.20977 13.5462V13.3576C1.20977 13.217 1.32446 13.1023 1.46509 13.1023C1.60571 13.1023 1.72041 13.217 1.72041 13.3576V13.5462C1.72041 13.6868 1.60571 13.8015 1.46509 13.8015Z" fill="white"/>
<path d="M24 10.1094V21.773C24 22.0512 23.9491 22.3165 23.8544 22.5619L16.0112 16.1666L23.9591 9.6886C23.985 9.82424 24 9.96382 24 10.1094Z" fill="white"/>
<path d="M23.7907 9.16976L13.4174 17.6217C12.5926 18.296 11.4077 18.296 10.5828 17.6217L0.209473 9.16976C0.561532 8.40675 1.33548 7.88312 2.22609 7.88312H4.87911C4.65171 8.60621 4.78236 9.50687 5.27506 10.3696C6.02705 11.6912 7.16301 12.1539 8.01463 12.0013L8.11137 11.9864L11.3766 15.0782C11.9052 15.5739 12.6672 15.6357 13.2506 15.3026C13.6925 15.0522 13.9787 14.6204 14.0395 14.1157C14.1004 13.613 13.9218 13.1253 13.5548 12.7782L12.0738 11.3739C13.5518 11.1495 16.9756 10.6029 17.1802 10.6029C17.3746 10.6029 17.5532 10.557 17.7107 10.4673C18.3311 10.1172 18.4797 9.24446 18.1625 7.88306H21.7699C22.6645 7.88306 23.4357 8.40675 23.7907 9.16976Z" fill="white"/>
<path d="M23.6169 23.0245C23.211 23.614 22.5368 24 21.7708 24H2.22591C1.46294 24 0.785757 23.614 0.382812 23.0245L8.39243 16.4957L10.2585 18.0177C10.7492 18.4187 11.3665 18.6381 11.9998 18.6381C12.6331 18.6381 13.2505 18.4187 13.7382 18.0177L15.6042 16.4957L23.6169 23.0245Z" fill="white"/>
<path d="M17.4585 10.0226C16.8661 10.3597 15.6663 9.43811 14.4506 7.82633C15.6633 7.12914 16.0872 5.57722 15.395 4.35944C14.7198 3.17355 13.2158 2.71375 11.986 3.37103C11.3607 1.69342 11.246 0.380841 11.7945 0.0695926C12.6024 -0.389212 14.5203 1.46894 16.0852 4.21668C17.648 6.9666 18.2653 9.5658 17.4585 10.0226Z" fill="white"/>
<path d="M16.129 10.2299L7.93583 11.4986C7.23371 11.6133 6.34507 11.2203 5.71675 10.1172C5.08844 9.01206 5.19115 8.0336 5.6629 7.50308L10.9429 1.09094C10.9738 2.43641 11.7448 4.40029 12.7301 6.12582C13.6856 7.80942 14.9852 9.49987 16.129 10.2299Z" fill="white"/>
<path d="M12.1746 3.84861C13.1529 3.29206 14.3966 3.63516 14.9522 4.61161C15.5087 5.59004 15.1676 6.83279 14.1892 7.38936C13.3664 6.31917 12.7061 5.13019 12.1746 3.84861Z" fill="white"/>
<path d="M12.9982 14.8588C12.7938 14.9765 12.5614 15.0194 12.34 14.9915C12.1156 14.9655 11.9011 14.8688 11.7296 14.7052L8.75464 11.8897L11.4355 11.4738L13.2048 13.1484C13.7284 13.6431 13.6265 14.5037 12.9982 14.8588Z" fill="white"/>
<path d="M19.6256 6.58937L18.5524 6.25126C18.4178 6.20937 18.343 6.06575 18.3859 5.9311C18.4288 5.79646 18.5714 5.72165 18.706 5.76454L19.7792 6.10265C19.9138 6.14454 19.9886 6.28816 19.9457 6.42281C19.9038 6.55646 19.7612 6.63226 19.6256 6.58937Z" fill="white"/>
<path d="M18.1565 3.23022C18.0917 3.10555 18.1396 2.95094 18.2653 2.88611L19.2626 2.36646C19.3872 2.30063 19.5419 2.3495 19.6067 2.47517C19.6715 2.59985 19.6236 2.75445 19.498 2.81928L18.5006 3.33893C18.377 3.40277 18.2224 3.35689 18.1565 3.23022Z" fill="white"/>
</svg>
