<svg width="24" height="24" viewBox="0 0 24 24" fill="none" xmlns="http://www.w3.org/2000/svg">
<path d="M20.0943 0.94666L21.1764 2.34738L14.507 7.80417L13.4283 6.40695L20.0943 0.94666ZM21.5495 2.82975L14.8824 8.2901L15.9645 9.68732L22.6316 4.22697L21.5495 2.82975ZM12.9615 6.79997C12.9389 6.8278 12.922 6.86026 12.9107 6.89505L12.2525 9.00424C12.1612 9.30108 12.2119 9.62576 12.39 9.87852C12.5681 10.1301 12.851 10.2809 13.1542 10.2844H13.2354L15.3815 10.0954C15.4165 10.093 15.4514 10.0838 15.4841 10.0675L12.9615 6.79997ZM23.557 0.791354C23.2211 0.356545 22.7308 0.0759131 22.1943 0.0133097C21.6566 -0.0493055 21.1178 0.110709 20.6963 0.457411L20.5644 0.562928L23.1017 3.84329L23.2335 3.73546H23.2324C24.1116 3.01423 24.257 1.69695 23.557 0.791354ZM5.00822 13.9576L0.409176 18.0822H10.1965L5.60669 13.9576C5.43536 13.8034 5.17954 13.8034 5.00822 13.9576ZM11.5187 11.954L7.9117 15.1972L11.1254 18.0822H15.8505V15.2993L12.1171 11.9539C11.9458 11.7997 11.69 11.7998 11.5187 11.954ZM0 21.8482L0.00112746 18.7011H15.8505V21.8363C15.8505 22.4103 15.6284 22.9611 15.2339 23.3669C14.8394 23.7727 14.304 24 13.7461 24H2.10446C0.942348 24 0.00112746 23.0318 0.00112746 21.8363L0 21.8482ZM2.1315 20.0243C2.1315 20.1066 2.16306 20.1855 2.21942 20.2434C2.27577 20.3014 2.35242 20.3339 2.43245 20.3339H10.9089C11.0746 20.3339 11.2098 20.1947 11.2098 20.0243C11.2098 19.8538 11.0746 19.7147 10.9089 19.7147H2.43245C2.27127 19.7147 2.13827 19.8457 2.13149 20.0115L2.1315 20.0243ZM2.1315 21.3635C2.1315 21.4447 2.16306 21.5236 2.21942 21.5815C2.27577 21.6395 2.35242 21.672 2.43245 21.672H13.4156C13.5813 21.672 13.7165 21.534 13.7165 21.3635C13.7165 21.1919 13.5813 21.0539 13.4156 21.0539H2.43245C2.27127 21.0539 2.13827 21.185 2.13149 21.3508L2.1315 21.3635ZM2.1315 22.7051C2.1315 22.7874 2.16306 22.8663 2.21942 22.9243C2.27577 22.9822 2.35242 23.0147 2.43245 23.0147H10.9089C11.0746 23.0147 11.2098 22.8756 11.2098 22.7051C11.2098 22.5346 11.0746 22.3955 10.9089 22.3955H2.43245C2.27127 22.3955 2.13827 22.5265 2.13149 22.6923L2.1315 22.7051ZM0.00112553 17.6309V8.75694C0.00112553 7.47566 1.00995 6.43788 2.25549 6.43788H12.4757H12.4745C12.4148 6.51789 12.3686 6.60949 12.3393 6.70689L11.681 8.81492C11.5288 9.30076 11.6111 9.83299 11.9031 10.2458C12.195 10.6586 12.6605 10.9021 13.1576 10.9021H13.2895L15.4357 10.7165C15.5856 10.7015 15.7298 10.6493 15.8561 10.5658V14.4734L12.5105 11.4866C12.1138 11.1318 11.522 11.1318 11.1252 11.4866L7.44611 14.783L5.98866 13.4901C5.58964 13.1341 4.99786 13.1341 4.59997 13.4901L0.00112553 17.6309ZM5.51981 10.0001C5.51981 10.0813 5.55137 10.1601 5.60773 10.2181C5.66409 10.2761 5.74074 10.3085 5.81964 10.3085C6.18934 10.3085 6.54441 10.4604 6.80481 10.7295C7.06631 10.9985 7.21286 11.3637 7.21173 11.744C7.21173 11.9145 7.34586 12.0525 7.5127 12.0525C7.67839 12.0525 7.81254 11.9145 7.81254 11.744C7.81254 10.9509 8.43701 10.3086 9.20798 10.3086C9.37367 10.3086 9.50782 10.1706 9.50782 10.0001C9.50782 9.82851 9.37369 9.69052 9.20798 9.69052C8.51815 9.69168 7.87677 10.0593 7.5127 10.661C7.14862 10.0593 6.5095 9.69167 5.81967 9.69052C5.65397 9.69052 5.51981 9.82848 5.51981 10.0001ZM0.983956 11.3289C0.983956 12.1047 1.43708 12.8039 2.13369 13.1007C2.8303 13.3975 3.63171 13.2329 4.16488 12.6844C4.69805 12.1371 4.85696 11.3116 4.5684 10.5961C4.28097 9.87952 3.60127 9.41224 2.84721 9.41224C1.81809 9.41224 0.983956 10.2703 0.983956 11.3289ZM2.84718 12.6183C3.35778 12.6183 3.81881 12.3018 4.01382 11.8159C4.20882 11.3301 4.10061 10.7724 3.73879 10.4001C3.37697 10.0291 2.83367 9.91894 2.36251 10.1207C1.89023 10.3236 1.58363 10.7979 1.58476 11.3231C1.58588 12.0397 2.15057 12.6183 2.84718 12.6183Z" fill="white"/>
</svg>
