<svg width="24" height="17" viewBox="0 0 24 17" fill="none" xmlns="http://www.w3.org/2000/svg">
<path fill-rule="evenodd" clip-rule="evenodd" d="M23.8078 4.73661C23.6128 4.76254 23.3473 4.86626 23.0101 4.99708C21.7766 5.47675 19.4799 6.37133 17.1737 4.60225C16.8976 4.3901 16.2984 4.04476 15.6323 3.75013L17.7869 1.5049C18.0759 1.20318 18.0665 0.721121 17.7658 0.431198L17.5379 0.211979C17.2371 -0.0779562 16.7566 -0.069704 16.4676 0.232016L13.5881 3.2339C13.4424 3.24922 13.3132 3.2834 13.2145 3.34469C12.3157 3.89744 11.4182 4.47614 10.315 5.44376C10.1529 5.48383 10.0119 5.54865 9.90616 5.6559C9.88971 5.67358 9.87679 5.69244 9.86151 5.7113L7.21696 5.00177L0 12.3221L17.7904 17L23.1207 9.89176C23.1536 9.89647 23.19 9.90237 23.2205 9.90472C23.3145 9.91297 23.3979 9.84579 23.4073 9.75151C23.4167 9.65722 23.3486 9.57354 23.2546 9.56411C23.1101 9.54997 22.9468 9.52168 22.7577 9.48986C21.8895 9.34254 20.5784 9.12095 19.077 9.9342C17.9433 10.5483 16.9423 10.098 15.9732 9.66195C15.616 9.50166 15.2765 9.35081 14.9311 9.24708C14.9229 9.2023 14.9217 9.15987 14.9088 9.11508C14.8712 8.97954 14.8042 8.86404 14.7373 8.75679C15.2483 9.09152 15.9344 9.23411 16.6029 9.23411C17.0329 9.23411 17.4558 9.17518 17.8212 9.0691C17.9117 9.04318 17.9634 8.94889 17.9375 8.85813C17.9117 8.76738 17.8165 8.71552 17.7272 8.74145C16.8226 9.0031 15.4727 8.9536 14.7537 8.34544C13.7657 7.51101 13.277 7.43205 12.6015 7.32125C12.3007 7.27175 11.9612 7.21636 11.5124 7.08318C10.5572 6.79796 10.0709 6.57167 10.0673 6.1285C10.0662 5.99296 10.112 5.9305 10.1472 5.89514C10.3164 5.72306 10.7652 5.71953 11.1611 5.71717C11.2492 5.71717 11.3362 5.71599 11.4219 5.71364C11.6076 5.70892 11.8824 5.76196 12.202 5.82325C12.5298 5.88689 12.9022 5.95761 13.3017 5.99296C13.3322 5.99532 13.3604 5.9965 13.3898 5.99886C13.3933 5.99886 13.3956 6.00121 13.3992 6.00121C13.4003 6.00121 13.4027 6.00004 13.4039 6.00004C13.7128 6.02007 13.9772 6.01064 14.211 5.99886C14.5763 5.98236 14.8924 5.96703 15.2954 6.07547C15.3858 6.10022 15.4798 6.046 15.5033 5.95407C15.528 5.86332 15.4739 5.76903 15.3823 5.74546C14.9276 5.62289 14.5717 5.64056 14.1934 5.65825C14.0618 5.66414 13.929 5.67003 13.7869 5.67121L15.3788 4.01174C16.0602 4.30404 16.6969 4.66705 16.966 4.87331C18.075 5.72425 19.1758 5.99888 20.1675 5.99888C21.3741 5.99888 22.422 5.59107 23.1328 5.31412C23.4359 5.19626 23.6979 5.09372 23.8518 5.07369C23.9446 5.0619 24.0104 4.97587 23.9986 4.88276C23.9869 4.78965 23.9011 4.72365 23.8083 4.73543L23.8078 4.73661ZM12.1794 7.59472C11.8645 8.05201 12.0678 8.37612 12.2369 8.64486C12.3086 8.758 12.3756 8.86408 12.4073 8.97841C12.4801 9.24006 12.4449 9.47459 12.3168 9.59247C12.2287 9.67262 12.1054 9.68676 11.9691 9.63373C11.7283 9.53944 11.1972 8.86645 11.0328 8.54469L11.9808 7.55586C12.0501 7.57119 12.1148 7.58415 12.1794 7.59594V7.59472ZM14.1954 8.33605C14.2095 8.54466 14.3129 8.71908 14.4104 8.87347C14.482 8.98662 14.549 9.09269 14.5807 9.20703C14.5972 9.26595 14.6066 9.32253 14.6124 9.37792C14.6124 9.39089 14.6124 9.40267 14.616 9.41564C14.6265 9.58889 14.5842 9.73622 14.4914 9.82109C14.4033 9.90124 14.28 9.91538 14.1437 9.86234C14.1167 9.85173 14.0438 9.81166 13.9193 9.69498C13.9722 9.51348 13.9757 9.3025 13.9134 9.07503C13.8676 8.91239 13.7807 8.77331 13.7031 8.65075C13.5481 8.40561 13.4506 8.24651 13.6385 7.97659C13.8065 8.06381 13.9886 8.17931 14.1989 8.33606L14.1954 8.33605ZM13.4118 8.8334C13.4834 8.94655 13.5504 9.05262 13.5821 9.16696C13.6549 9.42861 13.6197 9.66314 13.4916 9.78102C13.4035 9.86116 13.2802 9.87531 13.1439 9.82227C13.1098 9.80931 12.9865 9.74448 12.7503 9.48283C12.7962 9.30604 12.7962 9.10333 12.7351 8.88645C12.6893 8.72381 12.6023 8.58473 12.5236 8.46217C12.3485 8.1852 12.2452 8.00959 12.5624 7.66192C12.8338 7.70553 13.0676 7.74796 13.3166 7.83753C13.0534 8.26537 13.2496 8.5765 13.4118 8.83227L13.4118 8.8334ZM4.87658 11.5018C4.79317 11.431 4.78377 11.3073 4.85308 11.2236L8.38938 7.02306C8.45987 6.93938 8.58323 6.92995 8.66664 6.99948C8.75005 7.0702 8.75945 7.19395 8.69014 7.27763L5.15384 11.4782C5.08335 11.5619 4.95999 11.5713 4.87658 11.5018ZM7.80778 10.8724L6.68464 12.2066C6.61415 12.2903 6.49079 12.2997 6.40738 12.2302C6.32397 12.1594 6.31457 12.0357 6.38388 11.952L7.50703 10.6178C7.57752 10.5341 7.70087 10.5247 7.78429 10.5943C7.8677 10.665 7.8771 10.7887 7.80778 10.8724ZM14.9156 9.73271C14.9273 9.69264 14.9367 9.65139 14.9438 9.60896C14.9485 9.61014 14.9532 9.61132 14.9579 9.61367C14.9496 9.64432 14.9414 9.67496 14.9308 9.70443C14.9261 9.71503 14.9203 9.72328 14.9156 9.73389V9.73271ZM11.5991 7.46157L10.0601 9.06564C9.87447 9.25893 9.00979 9.70444 8.28728 10.0474C8.62446 9.3202 9.0568 8.4504 9.23184 8.26656L10.409 7.03964C10.691 7.18461 11.0399 7.29894 11.4147 7.41091C11.4793 7.43095 11.538 7.44507 11.5991 7.46157ZM10.1118 6.85578L10.0025 6.9701C9.74759 7.04907 9.59958 7.0361 9.56785 6.98307C9.50558 6.87935 9.61719 6.57055 9.77345 6.40672C9.83336 6.58468 9.95084 6.732 10.113 6.85577L10.1118 6.85578ZM16.7119 0.467742C16.8717 0.301561 17.1348 0.296845 17.3005 0.455956L17.5284 0.675175C17.694 0.835464 17.6987 1.09945 17.5401 1.26564L17.2864 1.53083C16.8834 1.39529 16.612 1.13247 16.4581 0.73175L16.7119 0.467742ZM11.4135 5.37312C11.3312 5.37548 11.2455 5.37548 11.1597 5.37666C11.0775 5.37666 10.9941 5.37783 10.913 5.38019C11.6461 4.76969 12.2911 4.32887 12.9196 3.93051L11.531 5.37784C11.491 5.37548 11.4499 5.37312 11.4135 5.37312ZM13.3308 5.65363C12.9478 5.61945 12.5859 5.54991 12.2652 5.48862C12.1548 5.46741 12.0514 5.44855 11.9515 5.43087L16.2021 1.0004C16.3783 1.37049 16.6556 1.63803 17.0292 1.80066L13.332 5.65454H13.3308L13.3308 5.65363Z" fill="white"/>
</svg>
