<svg width="20" height="18" viewBox="0 0 20 18" fill="none" xmlns="http://www.w3.org/2000/svg">
<path fill-rule="evenodd" clip-rule="evenodd" d="M4.98892 3.36646H7.77891C7.85617 3.36646 7.92648 3.33582 7.97857 3.28779C8.02978 3.23893 8.06103 3.17185 8.06103 3.09732V0.435597L4.98892 3.36646ZM9.04447 6.02564H6.34558V8.62694H9.04447V6.02564ZM6.0227 5.41034H9.36736C9.54531 5.41034 9.69027 5.54781 9.69027 5.7184V8.93493C9.69027 9.1047 9.54617 9.243 9.36736 9.243H6.0227C5.84475 9.243 5.69979 9.10553 5.69979 8.93493V5.7184C5.69979 5.54863 5.84388 5.41034 6.0227 5.41034ZM2.52359 3.8087H0.000266604V13.9733H2.52293L2.52359 3.8087ZM14.3673 16.9488C14.3587 16.9372 14.3517 16.9239 14.3448 16.9115L13.1998 15.02L11.9993 15.3264L12.7728 16.6042C12.7814 16.6167 12.7893 16.6291 12.7953 16.6423L13.4438 17.7139V17.7156C13.5254 17.8506 13.659 17.9417 13.8083 17.9798C13.9533 18.017 14.1113 18.0038 14.2502 17.9317C14.2545 17.9293 14.2589 17.9268 14.2632 17.9243C14.4056 17.8456 14.5019 17.7181 14.5419 17.5765C14.5809 17.4382 14.567 17.2875 14.4915 17.155C14.4889 17.1508 14.4863 17.1467 14.4837 17.1425L14.3665 16.9496L14.3673 16.9488ZM10.4931 3.44257C10.3152 3.44257 10.1702 3.3051 10.1702 3.13451C10.1702 2.96474 10.3143 2.82644 10.4931 2.82644H16.7067C16.8846 2.82644 17.0296 2.96392 17.0296 3.13451C17.0296 3.30428 16.8855 3.44257 16.7067 3.44257H10.4931ZM12.2258 1.73494C12.0478 1.73494 11.9029 1.59747 11.9029 1.42687C11.9029 1.2571 12.047 1.11881 12.2258 1.11881H16.7066C16.8846 1.11881 17.0296 1.25628 17.0296 1.42687C17.0296 1.59664 16.8855 1.73494 16.7066 1.73494H12.2258ZM11.2492 6.02549C11.0713 6.02549 10.9263 5.88802 10.9263 5.71742C10.9263 5.54766 11.0704 5.40936 11.2492 5.40936H17.0028C17.1807 5.40936 17.3257 5.54683 17.3257 5.71742C17.3257 5.88719 17.1816 6.02549 17.0028 6.02549H11.2492ZM11.2492 9.24202C11.0713 9.24202 10.9263 9.10455 10.9263 8.93396C10.9263 8.76419 11.0704 8.6259 11.2492 8.6259H13.9028C14.0807 8.6259 14.2257 8.76337 14.2257 8.93396C14.2257 9.10373 14.0816 9.24202 13.9028 9.24202H11.2492ZM11.2492 7.63378C11.0713 7.63378 10.9263 7.49631 10.9263 7.32571C10.9263 7.15594 11.0704 7.01765 11.2492 7.01765H16.159C16.3369 7.01765 16.4819 7.15512 16.4819 7.32571C16.4819 7.49548 16.3378 7.63378 16.159 7.63378H11.2492ZM0.248355 14.5886L1.26137 16.1844L2.27439 14.5886H0.248355ZM2.52257 3.19249V2.18712C2.52257 1.85669 2.38021 1.55607 2.15191 1.33745C1.92362 1.11966 1.60764 0.983827 1.26129 0.983827C0.914931 0.983827 0.599821 1.11964 0.370666 1.33745C0.142377 1.55524 0 1.85669 0 2.18712V3.19249H2.52257ZM6.34456 14.1769H8.97389C8.92875 14.0775 8.88969 13.9748 8.86018 13.8672C8.70653 13.3206 8.78813 12.7641 9.0442 12.2953V11.5757H6.34532L6.34456 14.1769ZM9.63611 14.0684C9.64305 14.0783 9.64913 14.0891 9.65521 14.0999C9.79844 14.3301 9.99896 14.5181 10.2342 14.6506C10.2394 14.6531 10.2455 14.6564 10.2507 14.6589C10.6153 14.8601 11.0606 14.9288 11.4972 14.817L13.6856 14.258L12.8349 11.227L10.6465 11.7868C10.2169 11.897 9.87223 12.1612 9.66043 12.4999C9.65262 12.5156 9.64394 12.5313 9.63352 12.5454C9.43561 12.8883 9.3705 13.3015 9.48422 13.7081C9.51981 13.8365 9.57276 13.9574 9.63787 14.0684L9.63611 14.0684ZM18.4928 14.9048V16.1984C18.4928 16.2721 18.4606 16.3392 18.4103 16.3889C18.3591 16.4377 18.2888 16.4675 18.2106 16.4675H14.8191L13.8425 14.8535L14.1533 14.774C15.0118 14.6464 15.8842 14.6117 16.7575 14.6696C17.3382 14.7077 17.9181 14.7864 18.4928 14.9048ZM15.6368 9.91528C14.9475 10.3575 14.2149 10.7327 13.4458 11.0341L14.3156 14.1321C15.1394 14.0269 15.971 14.0021 16.7991 14.0559C17.491 14.1015 18.182 14.2017 18.8668 14.3557C18.8825 14.3582 18.8972 14.3615 18.912 14.3665C19.1307 14.417 19.3486 14.4725 19.5656 14.5338C19.6273 14.5512 19.688 14.5528 19.7436 14.5396C19.7983 14.5263 19.8512 14.4982 19.8972 14.4551C19.9432 14.412 19.9745 14.3632 19.9892 14.3118C20.004 14.2605 20.004 14.2025 19.9866 14.1421L18.5075 8.87587C18.504 8.8651 18.5005 8.85434 18.4988 8.84357L18.3521 8.31935C18.3356 8.25972 18.3052 8.21003 18.2662 8.17276C18.2262 8.13467 18.1733 8.10734 18.1099 8.09161C18.0465 8.07587 17.9858 8.0767 17.932 8.09078C17.879 8.10569 17.8278 8.13632 17.7827 8.18105C17.129 8.83777 16.4094 9.41746 15.6368 9.91353L15.6368 9.91528ZM12.971 10.5563L10.4788 11.1931C10.1845 11.2685 9.91802 11.396 9.68884 11.5633V11.2685C9.68884 11.0987 9.54475 10.9604 9.36593 10.9604H6.02127C5.84332 10.9604 5.69836 11.0979 5.69836 11.2685V14.485C5.69836 14.6548 5.84246 14.7931 6.02127 14.7931H9.36593C9.37722 14.7931 9.3885 14.7922 9.39892 14.7914C9.54909 14.9438 9.72096 15.0746 9.90847 15.1806C9.91455 15.1848 9.92063 15.1881 9.9267 15.1914C10.346 15.4224 10.8408 15.5284 11.3416 15.4705L11.9458 16.4684L4.81383 16.4676C4.73657 16.4676 4.66626 16.4369 4.61417 16.3889C4.56296 16.34 4.53171 16.2729 4.53171 16.1984V3.98164H7.77815C8.03335 3.98164 8.26599 3.88226 8.43352 3.72242C8.60192 3.56259 8.70523 3.34064 8.70523 3.09718L8.7061 0H18.2105C18.2878 0 18.3581 0.0306411 18.4102 0.0786729C18.4614 0.127534 18.4926 0.194614 18.4926 0.269146V7.57843C18.4232 7.54365 18.3485 7.51549 18.2687 7.49645C18.0951 7.45421 17.9206 7.45752 17.7557 7.50307C17.5907 7.54862 17.4406 7.63474 17.3164 7.75896C16.694 8.3842 16.0109 8.93493 15.2782 9.4053C14.5525 9.87072 13.78 10.2566 12.97 10.5556L12.971 10.5563Z" fill="white"/>
</svg>
