<svg width="24" height="24" viewBox="0 0 24 24" fill="none" xmlns="http://www.w3.org/2000/svg">
<path fill-rule="evenodd" clip-rule="evenodd" d="M16.9855 6.31824L14.1352 3.56415C14.1331 3.58196 14.1321 3.59978 14.1321 3.61759V9.01886C14.1321 9.03667 14.1331 9.05449 14.1352 9.0723L16.9855 6.31824ZM20.713 6.73585L23.5644 9.48893C23.546 9.49091 23.5275 9.4919 23.5091 9.4919H14.6207C14.6023 9.4919 14.5838 9.49091 14.5654 9.48893L17.4178 6.73484L18.4895 7.76997V7.77096C18.8082 8.07675 19.3236 8.07675 19.6412 7.77096L20.713 6.73585ZM23.9969 3.564L21.1466 6.31809L23.9969 9.07117C23.999 9.05335 24 9.03554 24 9.01773V3.61646C24 3.59864 23.999 3.58083 23.9969 3.56302V3.564ZM14.5677 3.14639C14.5861 3.14441 14.6046 3.14342 14.623 3.14441H23.5104C23.5288 3.14342 23.5472 3.14441 23.5657 3.14639L19.2103 7.35315C19.1304 7.42935 19.0023 7.42935 18.9224 7.35315L14.5677 3.14639ZM10.4746 1.64118C10.3926 1.64316 10.3127 1.61347 10.2533 1.55805C10.1939 1.50164 10.16 1.42544 10.16 1.34627C10.16 1.26611 10.1939 1.18991 10.2533 1.13449C10.3127 1.07808 10.3926 1.0484 10.4746 1.05037H13.823C13.905 1.0484 13.9849 1.07809 14.0444 1.13449C14.1038 1.18991 14.1376 1.26611 14.1376 1.34627C14.1376 1.42544 14.1038 1.50164 14.0444 1.55805C13.9849 1.61347 13.905 1.64316 13.823 1.64118H10.4746ZM14.1058 21.5504H10.1929C10.0331 21.5553 9.90497 21.682 9.90497 21.8364C9.90497 21.9917 10.033 22.1184 10.1929 22.1224H14.1058C14.2656 22.1184 14.3927 21.9917 14.3927 21.8364C14.3927 21.682 14.2656 21.5553 14.1058 21.5504ZM10.1929 20.9606H14.1058C14.6007 20.9695 14.9972 21.3594 14.9972 21.8374C14.9972 22.3153 14.6007 22.7053 14.1058 22.7142H10.1929C9.69802 22.7053 9.30151 22.3153 9.30151 21.8374C9.30151 21.3594 9.69802 20.9695 10.1929 20.9606ZM10.1775 8.18247C9.77383 8.47639 9.33325 8.71884 8.86503 8.90292C8.79638 8.92865 8.71954 8.92865 8.64987 8.90292C8.18267 8.71885 7.74107 8.47639 7.33737 8.18247C6.61095 7.68072 5.98493 7.0543 5.49105 6.33484C5.00437 5.58768 4.77486 4.77817 5.06994 4.02506L5.06892 4.02605C5.13756 3.85484 5.22875 3.69353 5.34147 3.54609C5.42651 3.43129 5.52384 3.32738 5.63348 3.23435C6.01564 2.91668 6.52179 2.77418 7.02078 2.84344C7.5177 2.91173 7.98799 3.10074 8.38859 3.39368C8.51769 3.48571 8.64166 3.58468 8.75743 3.69255C8.87423 3.58468 8.99821 3.48473 9.12834 3.39368C9.52894 3.10076 9.99924 2.91174 10.4962 2.84344C10.9951 2.77417 11.5013 2.91667 11.8835 3.23435C11.9931 3.32738 12.0904 3.43128 12.1755 3.5451C12.2882 3.69255 12.3804 3.85388 12.448 4.02506C12.7421 4.77718 12.5136 5.58768 12.0269 6.33484L12.0259 6.33385C11.532 7.05329 10.906 7.67973 10.1796 8.18247H10.1775ZM8.75743 8.31013C9.13346 8.14783 9.49002 7.94595 9.81891 7.70646C10.4839 7.24827 11.0556 6.67627 11.5085 6.02016C11.8999 5.41847 12.0925 4.7861 11.8753 4.23191C11.8271 4.11019 11.7615 3.99441 11.6816 3.8895C11.6242 3.81231 11.5576 3.74105 11.4828 3.67871C11.2277 3.47089 10.8927 3.37984 10.5638 3.42734C10.1714 3.48375 9.79943 3.63516 9.48489 3.86773C9.30251 3.99638 9.13551 4.14484 8.98797 4.3091C8.93469 4.36848 8.8599 4.4051 8.77895 4.41103C8.69801 4.41598 8.61809 4.39025 8.55764 4.33879C8.54535 4.32889 8.53407 4.31801 8.52383 4.30613C8.37629 4.14284 8.21031 3.99538 8.02896 3.86772C7.71441 3.63516 7.3435 3.48376 6.95108 3.42734C6.62117 3.37983 6.28612 3.47088 6.03101 3.6787C5.95724 3.74105 5.88962 3.8123 5.83224 3.88949C5.75232 3.99439 5.68675 4.11017 5.63859 4.23191C5.42138 4.78708 5.61298 5.41846 6.00538 6.02015C6.45826 6.67727 7.03101 7.24828 7.69595 7.70645C8.02586 7.94495 8.3814 8.14684 8.75743 8.30913L8.75743 8.31013ZM16.4532 18.7636L15.1417 16.5706L14.0495 17.1792C13.4255 17.5315 13.2124 18.3034 13.57 18.909C13.9347 19.5117 14.7339 19.7185 15.3609 19.3722L16.4521 18.7636H16.4532ZM20.7317 13.7866L19.4653 11.6679V11.6688C19.3393 11.464 19.0709 11.3898 18.8526 11.5006L18.8414 11.5075C18.6282 11.6273 18.5514 11.8885 18.6662 12.0983L18.6733 12.1102L22.2185 18.0389C22.3455 18.2468 22.6222 18.317 22.8394 18.1963C23.0566 18.0765 23.1324 17.8094 23.0105 17.5986L21.7441 15.4798L21.5976 15.5619H21.5966C21.5269 15.6005 21.4439 15.6114 21.365 15.5916C21.2872 15.5708 21.2206 15.5223 21.1806 15.454C21.0956 15.3135 21.1458 15.1334 21.2913 15.0523L21.9767 14.6703H21.9757C22.0679 14.6178 22.1345 14.5327 22.1611 14.4338C22.1888 14.3387 22.1775 14.2378 22.1294 14.1497L22.1222 14.1388C22.0105 13.9548 21.7656 13.8914 21.573 13.9963L20.8876 14.3783C20.7421 14.4595 20.5556 14.411 20.4726 14.2705C20.3886 14.1299 20.4388 13.9508 20.5843 13.8697L20.7308 13.7875L20.7317 13.7866ZM21.2563 17.6065C20.5555 17.6333 19.8557 17.6887 19.16 17.7738C18.3628 17.8718 17.577 18.0054 16.8044 18.1756L15.8434 16.5684C16.3874 16.0033 16.8997 15.4135 17.3823 14.8009C17.8075 14.2606 18.2071 13.7035 18.5811 13.1315L21.2562 17.6075L21.2563 17.6065ZM15.8556 19.7748L15.6641 19.8817C15.622 19.9054 15.579 19.9272 15.536 19.947L17.0503 22.4804C17.0749 22.52 17.1149 22.5487 17.161 22.5606C17.2019 22.5715 17.245 22.5685 17.2839 22.5517C17.2931 22.5467 17.3013 22.5418 17.3106 22.5368C17.3843 22.4874 17.4099 22.3933 17.372 22.3142C17.3649 22.3023 17.3577 22.2904 17.3515 22.2785L15.8556 19.7748ZM9.67835 12.9376H1.12808C0.50615 12.9396 0.0020459 13.4265 0 14.0272V18.8873C0.00204904 19.488 0.50615 19.9749 1.12808 19.9769H9.67835C10.3013 19.9749 10.8044 19.488 10.8064 18.8873V14.0272C10.8044 13.4265 10.3013 12.9396 9.67835 12.9376ZM4.10354 20.5665H9.67835C10.6384 20.5645 11.4161 19.8134 11.4181 18.8871V14.027C11.416 13.0997 10.6384 12.3486 9.67835 12.3466H4.10354V1.79615C4.10662 0.805529 4.93756 0.00296411 5.96316 0H18.333C19.3586 0.00296892 20.1895 0.805554 20.1926 1.79615V2.55321H14.6209C14.0144 2.5542 13.5215 3.02922 13.5215 3.61606V9.01835C13.5226 9.6042 14.0144 10.0792 14.6209 10.0802H20.1936V11.7091L19.9918 11.3717H19.9928C19.7028 10.8868 19.0645 10.7156 18.5563 10.9847C18.5492 10.9877 18.543 10.9917 18.5358 10.9956V10.9946C18.0348 11.2757 17.8576 11.8912 18.1352 12.3811C18.1383 12.388 18.1424 12.394 18.1465 12.4009L18.2356 12.5503C17.8227 13.2025 17.376 13.8349 16.8975 14.4435C16.4569 15.0036 15.9908 15.5429 15.4979 16.0615L15.499 16.0625C15.3268 15.9329 15.0912 15.918 14.9027 16.0229L13.7459 16.6691C12.8391 17.1768 12.5195 18.2911 13.0277 19.1768C13.0359 19.1956 13.0471 19.2134 13.0594 19.2293C13.4498 19.8557 14.1834 20.2041 14.9354 20.118L16.5225 22.774C16.7356 23.1323 17.2059 23.2619 17.583 23.0649C17.5901 23.062 17.5973 23.058 17.6045 23.0541C17.9826 22.8423 18.1127 22.3752 17.8934 22.009L16.3832 19.4815L16.8207 19.2371V19.2381C17.0103 19.1332 17.1137 18.9283 17.085 18.7205C17.8012 18.5671 18.5184 18.4464 19.2357 18.3583C19.5543 18.3197 19.874 18.287 20.1947 18.2603V22.2039C20.1916 23.1945 19.3606 23.997 18.334 24H5.96523C4.93858 23.998 4.10664 23.1954 4.10354 22.2039L4.10354 20.5665ZM3.581 18.6545C3.54514 18.6763 3.50006 18.6763 3.4642 18.6545C3.44576 18.6456 3.43039 18.6318 3.41912 18.615C3.40887 18.5971 3.40477 18.5774 3.4058 18.5576V14.3576C3.40477 14.3379 3.40887 14.3181 3.41912 14.3002L3.42424 14.2923H3.42321C3.43448 14.2785 3.4478 14.2676 3.4642 14.2587C3.50006 14.2379 3.54514 14.2379 3.581 14.2587C3.58612 14.2617 3.59227 14.2646 3.59739 14.2676L7.34637 16.3587C7.36481 16.3686 7.37916 16.3834 7.3894 16.4002C7.39862 16.418 7.40374 16.4378 7.40272 16.4576C7.40374 16.4774 7.39862 16.4972 7.3894 16.515C7.37813 16.5318 7.36379 16.5467 7.34534 16.5566L3.581 18.6545ZM7.64866 17.0652L3.88526 19.1642C3.53691 19.3572 3.09327 19.2424 2.8914 18.9079C2.82686 18.801 2.79304 18.6793 2.79407 18.5556V14.3577C2.79304 14.234 2.82686 14.1123 2.8914 14.0054C2.8955 13.9985 2.90062 13.9916 2.90472 13.9846C3.11067 13.661 3.54713 13.5571 3.88628 13.7491C3.8914 13.7521 3.89653 13.7551 3.90165 13.758L7.64853 15.8491C7.87496 15.9728 8.01532 16.2053 8.01532 16.4567C8.01532 16.7091 7.87509 16.9406 7.64866 17.0652Z" fill="white"/>
</svg>
