<svg width="26" height="24" viewBox="0 0 26 24" fill="none" xmlns="http://www.w3.org/2000/svg">
<path d="M13.2909 0C12.5174 0 11.7522 0.209867 11.0786 0.604629C10.0535 1.20577 9.32013 2.17512 9.01406 3.336C8.70741 4.49689 8.8641 5.70918 9.45259 6.74348L17.7292 21.749C18.5186 23.1367 19.9899 24 21.5698 24C22.3433 24 23.1085 23.7901 23.7821 23.3954C24.8072 22.7942 25.5406 21.8249 25.8466 20.664C26.1533 19.5031 25.9966 18.2908 25.4081 17.2565L17.1315 2.25095C16.3421 0.863288 14.8708 0 13.2909 0ZM7.72271 5.18504L2.40498 14.1842C3.0372 13.9382 3.7165 13.7998 4.43144 13.7998C7.29711 13.7998 9.67218 15.9952 10.0031 18.815L12.4611 14.6517L8.43128 7.3446C8.04722 6.67266 7.81134 5.94097 7.72271 5.18504ZM4.43144 14.9997C3.25615 14.9997 2.129 15.4738 1.29794 16.3176C0.466883 17.1614 0 18.3059 0 19.4993C0 20.6926 0.466883 21.8371 1.29794 22.6809C2.129 23.5248 3.25615 23.9988 4.43144 23.9988C5.60673 23.9988 6.73389 23.5248 7.56495 22.6809C8.396 21.8371 8.86289 20.6926 8.86289 19.4993C8.86289 18.3059 8.396 17.1614 7.56495 16.3176C6.73389 15.4738 5.60673 14.9997 4.43144 14.9997Z" fill="white"/>
</svg>
