<svg width="22" height="20" viewBox="0 0 22 20" fill="none" xmlns="http://www.w3.org/2000/svg">
<path fill-rule="evenodd" clip-rule="evenodd" d="M18.7924 14.2988C18.6397 14.2988 18.5164 14.1806 18.5164 14.0351C18.5164 13.8888 18.6397 13.7705 18.7924 13.7705H20.558C20.7107 13.7705 20.8341 13.8887 20.8341 14.0351C20.8341 14.1805 20.7107 14.2988 20.558 14.2988H18.7924ZM19.3718 12.9045C19.2191 12.9045 19.0958 12.7863 19.0958 12.6399C19.0958 12.4945 19.2191 12.3763 19.3718 12.3763H20.558C20.7107 12.3763 20.8341 12.4945 20.8341 12.6399C20.8341 12.7863 20.7107 12.9045 20.558 12.9045H19.3718ZM19.1506 11.5103C18.9989 11.5103 18.8756 11.3921 18.8756 11.2457C18.8756 11.1003 18.9989 10.982 19.1506 10.982H20.559C20.7117 10.982 20.835 11.1003 20.835 11.2457C20.835 11.3921 20.7117 11.5103 20.559 11.5103H19.1506ZM18.764 10.1151C18.6123 10.1151 18.489 9.99691 18.489 9.85147C18.489 9.7051 18.6123 9.58687 18.764 9.58687H20.558C20.7107 9.58687 20.8341 9.70509 20.8341 9.85147C20.8341 9.9969 20.7107 10.1151 20.558 10.1151H18.764ZM17.8245 8.71995C17.6728 8.71995 17.5494 8.60079 17.5494 8.45536C17.5494 8.30899 17.6727 8.19076 17.8245 8.19076H20.558C20.7107 8.19076 20.834 8.30898 20.834 8.45536C20.834 8.60079 20.7107 8.71995 20.558 8.71995H17.8245ZM7.55176 1.13615H2.41541V1.81356H7.55176V1.13615ZM2.1393 0.607924H7.82762C7.9803 0.607924 8.10363 0.726144 8.10363 0.871582V2.07816C8.10363 2.22453 7.98031 2.34275 7.82762 2.34275H2.1403C1.98762 2.34275 1.86429 2.22453 1.86429 2.07816V0.872519C1.86429 0.726151 1.98761 0.607924 2.1403 0.607924H2.1393ZM12.5696 1.18025C12.4218 1.03858 12.1918 1.01606 12.0176 1.12771C11.8443 1.23842 11.7768 1.45142 11.8571 1.63531C11.9363 1.82014 12.1409 1.92522 12.3454 1.88583C12.55 1.84736 12.6968 1.67566 12.6968 1.47582C12.6968 1.36511 12.6518 1.25813 12.5696 1.18025ZM12.2613 0.528181C12.733 0.528181 13.1392 0.847178 13.2312 1.29098C13.3232 1.73478 13.0756 2.17856 12.64 2.35214C12.2045 2.52478 11.7014 2.37935 11.4391 2.00312C11.1768 1.62689 11.2287 1.12587 11.5624 0.805914C11.7474 0.627646 11.999 0.528181 12.2613 0.528181ZM16.5891 1.18025C16.4413 1.03858 16.2113 1.01606 16.0371 1.12771C15.8638 1.23842 15.7963 1.45142 15.8766 1.63531C15.9558 1.82014 16.1604 1.92522 16.365 1.88583C16.5695 1.84736 16.7163 1.67566 16.7163 1.47582C16.7163 1.36511 16.6703 1.25813 16.5891 1.18025ZM16.2808 0.528181C16.7525 0.528181 17.1587 0.847178 17.2507 1.29098C17.3427 1.73478 17.0951 2.17856 16.6595 2.35214C16.224 2.52478 15.7209 2.37935 15.4586 2.00312C15.1963 1.62689 15.2482 1.12587 15.5819 0.805914C15.7669 0.627646 16.0185 0.528181 16.2808 0.528181ZM20.6086 1.18025C20.4608 1.03858 20.2308 1.017 20.0576 1.12771C19.8843 1.23842 19.8168 1.45142 19.8971 1.63531C19.9763 1.82014 20.1809 1.92428 20.3845 1.88583C20.589 1.84642 20.7358 1.67472 20.7358 1.47582C20.7358 1.36511 20.6898 1.25813 20.6086 1.18025ZM20.3003 0.528181C20.772 0.528181 21.1772 0.847178 21.2692 1.29098C21.3612 1.73384 21.1136 2.17762 20.6781 2.35121C20.2425 2.52385 19.7404 2.37842 19.4781 2.00219C19.2158 1.62596 19.2677 1.12587 19.6005 0.805914C19.7864 0.627646 20.038 0.528181 20.3003 0.528181ZM21.9984 2.94883H0.000501071V0H21.9984V2.94883ZM10.5531 7.32487C10.4014 7.32487 10.278 7.20665 10.278 7.06121C10.278 6.91485 10.4014 6.79662 10.5531 6.79662H20.5577C20.7103 6.79662 20.8337 6.91484 20.8337 7.06121C20.8337 7.20664 20.7104 7.32487 20.5577 7.32487H10.5531ZM10.5531 5.93063C10.4014 5.93063 10.278 5.81241 10.278 5.66604C10.278 5.52061 10.4014 5.40238 10.5531 5.40238H20.5577C20.7103 5.40238 20.8337 5.5206 20.8337 5.66604C20.8337 5.81241 20.7104 5.93063 20.5577 5.93063H10.5531ZM3.25168 8.79323C3.25168 8.12896 3.74006 7.55757 4.41931 7.42808C5.09854 7.2986 5.77877 7.6467 6.044 8.2603C6.30924 8.87298 6.08609 9.58041 5.5106 9.95009C4.9351 10.3188 4.16778 10.2466 3.67745 9.77745C3.4044 9.51757 3.25071 9.16291 3.25168 8.79323ZM4.06696 8.18336C3.76356 8.47421 3.71659 8.93021 3.95539 9.27172C4.19322 9.61418 4.65027 9.74648 5.04667 9.58978C5.44305 9.43215 5.66817 9.02872 5.58496 8.62527C5.50079 8.22182 5.13181 7.93097 4.70314 7.93097C4.46433 7.93097 4.23531 8.02198 4.06696 8.18336ZM2.20054 6.39413L1.87462 6.70657H1.8756C1.77087 6.80603 1.76696 6.96646 1.86483 7.07061L2.19075 7.48532C2.14377 7.56976 2.10071 7.65608 2.06254 7.74427C2.02437 7.83247 1.99207 7.9216 1.96369 8.01261L1.40385 8.08861V8.08955C1.26781 8.10738 1.16602 8.21903 1.16602 8.35037V9.23514C1.16504 9.374 1.27759 9.48941 1.42146 9.4988L1.96368 9.57198L1.96466 9.57292C1.99206 9.66393 2.02534 9.75307 2.06351 9.84126C2.10168 9.92946 2.14376 10.0158 2.19172 10.0993L1.85112 10.5318C1.76891 10.6369 1.77967 10.7842 1.87657 10.8771L2.52841 11.502L2.52743 11.501C2.63117 11.6014 2.79853 11.6052 2.90717 11.5104L3.33977 11.198V11.1989C3.42786 11.2439 3.5179 11.2852 3.60989 11.3218C3.70092 11.3584 3.79487 11.3903 3.88981 11.4175L3.96909 11.9542C3.98866 12.0903 4.11394 12.1897 4.2578 12.1822H5.16508C5.3021 12.1813 5.41759 12.0846 5.43716 11.9542L5.51644 11.4175C5.61137 11.3903 5.70435 11.3584 5.79635 11.3218C5.88836 11.2852 5.9784 11.2439 6.06648 11.1989L6.51767 11.5245H6.51669C6.62631 11.6033 6.77998 11.593 6.87686 11.5001L7.52871 10.8752L7.52773 10.8762C7.63245 10.7767 7.63636 10.6163 7.53849 10.5121L7.21257 10.0974C7.25955 10.013 7.30262 9.92664 7.34079 9.83845C7.37895 9.75026 7.41223 9.66113 7.44062 9.57011L8.00045 9.49411H8.00143C8.13747 9.47535 8.23828 9.3637 8.23828 9.23235V8.35133C8.23926 8.21153 8.12671 8.09613 7.98284 8.08674L7.44062 8.01355C7.41126 7.92161 7.37798 7.83247 7.33981 7.74428C7.30164 7.65608 7.25956 7.56976 7.2116 7.48626L7.55122 7.05373H7.5522C7.63442 6.94864 7.62365 6.80227 7.52676 6.70939L6.87492 6.08451C6.77215 5.98505 6.60479 5.98036 6.49518 6.07512L6.06257 6.38756C5.88738 6.29655 5.7024 6.22337 5.51156 6.16895L5.43717 5.62946C5.41857 5.49904 5.30211 5.40146 5.16412 5.40146H4.24118C4.09633 5.40146 3.97594 5.50842 3.96615 5.64727L3.88981 6.16707H3.88883C3.69797 6.22149 3.513 6.29374 3.33781 6.38475L2.88661 6.05823V6.05917C2.77797 5.98036 2.62431 5.99068 2.52742 6.08263L2.2015 6.39507L2.20054 6.39413ZM2.74862 6.61743L2.43348 6.91955L2.73983 7.30986C2.80834 7.39711 2.81323 7.51627 2.75255 7.60916C2.61064 7.82308 2.50885 8.05858 2.45209 8.30533C2.42664 8.41323 2.33464 8.49486 2.22111 8.50987L1.71707 8.57836V9.00432L2.22111 9.07281C2.34051 9.08782 2.43545 9.17695 2.45502 9.29142C2.51374 9.53442 2.61357 9.76525 2.75353 9.97541C2.81911 10.0758 2.80834 10.2053 2.7271 10.2935L2.43446 10.6669L2.7496 10.969L3.15675 10.6744C3.24875 10.6087 3.37305 10.604 3.46897 10.6622C3.69212 10.7982 3.93778 10.8958 4.19615 10.9512C4.3087 10.9746 4.39287 11.0628 4.40951 11.1726L4.48096 11.6567H4.92529L4.99674 11.1726H4.99576C5.0124 11.0572 5.10538 10.9662 5.2238 10.9474C5.47729 10.8921 5.71905 10.7954 5.93828 10.6622C6.04203 10.5984 6.17709 10.6087 6.26909 10.6875L6.65862 10.9681L6.81522 10.8161L6.9728 10.665L6.66449 10.2756C6.59598 10.1884 6.59108 10.0692 6.65274 9.97634C6.79368 9.76242 6.89547 9.52691 6.95321 9.28017C6.97768 9.17227 7.06968 9.09064 7.18419 9.07563L7.68823 9.00713V8.58024L7.18419 8.51175C7.06381 8.4958 6.96985 8.40761 6.95027 8.29314C6.92091 8.17398 6.88274 8.05764 6.83381 7.94505C6.78291 7.82871 6.72223 7.71612 6.65079 7.61011C6.58521 7.51065 6.59598 7.38117 6.67819 7.29298L6.97084 6.91956L6.65569 6.61744L6.24854 6.91113V6.91206C6.15752 6.9768 6.03322 6.98149 5.93633 6.92332C5.71318 6.78728 5.46752 6.6897 5.21012 6.63529C5.09757 6.61089 5.01242 6.5227 4.99676 6.41386L4.92531 5.93067H4.48098L4.40953 6.41386C4.3929 6.52832 4.3009 6.61933 4.18149 6.6381C4.05719 6.66531 3.93681 6.70284 3.81937 6.74975C3.69702 6.7976 3.57958 6.85671 3.46801 6.92426C3.36427 6.98712 3.22921 6.9768 3.13721 6.89893L2.74865 6.61839L2.74862 6.61743ZM7.31045 12.8098C7.46313 12.8098 7.58646 12.928 7.58646 13.0744C7.58646 13.2198 7.46314 13.3381 7.31045 13.3381H6.29258C6.13989 13.3381 6.01657 13.2198 6.01657 13.0744C6.01657 12.928 6.13989 12.8098 6.29258 12.8098H7.31045ZM5.20325 12.8098C5.35592 12.8098 5.47925 12.928 5.47925 13.0744C5.47925 13.2198 5.35593 13.3381 5.20325 13.3381H2.09488C1.9422 13.3381 1.81887 13.2198 1.81887 13.0744C1.81887 12.928 1.94219 12.8098 2.09488 12.8098H5.20325ZM2.09488 15.1094C1.9422 15.1094 1.81887 14.9912 1.81887 14.8448C1.81887 14.6994 1.94219 14.5812 2.09488 14.5812H3.11373C3.26543 14.5812 3.38876 14.6994 3.38876 14.8448C3.38876 14.9912 3.26544 15.1094 3.11373 15.1094H2.09488ZM4.20208 15.1094C4.0494 15.1094 3.92607 14.9912 3.92607 14.8448C3.92607 14.6994 4.04939 14.5812 4.20208 14.5812H7.31045C7.46313 14.5812 7.58646 14.6994 7.58646 14.8448C7.58646 14.9912 7.46314 15.1094 7.31045 15.1094H4.20208ZM12.2697 12.3472C12.162 12.244 12.162 12.0761 12.2697 11.9729C12.3773 11.8697 12.5525 11.8697 12.6602 11.9729L13.4187 12.6991L15.0551 11.1303C15.1627 11.0271 15.337 11.0271 15.4446 11.1303C15.5533 11.2335 15.5533 11.4015 15.4446 11.5047L13.6124 13.2611H13.6134C13.5616 13.3108 13.4911 13.338 13.4177 13.338C13.3453 13.338 13.2748 13.3108 13.2229 13.2611L12.2697 12.3472ZM15.7734 10.3591C14.8593 9.4828 13.4264 9.34769 12.3518 10.0363C11.2772 10.725 10.8593 12.0451 11.3545 13.1898C11.8488 14.3345 13.1182 14.9847 14.3867 14.7436C15.6542 14.5015 16.5673 13.4347 16.5673 12.1954C16.5683 11.5067 16.2823 10.8451 15.7734 10.3591ZM13.8571 9.06902C12.3009 9.06902 10.9619 10.1227 10.6585 11.5855C10.3551 13.0492 11.1714 14.5137 12.6091 15.0841C14.0469 15.6555 15.7047 15.1733 16.5691 13.9329C17.4343 12.6925 17.264 11.0393 16.1639 9.98463C15.5532 9.39729 14.7222 9.06808 13.8571 9.06902ZM18.689 16.8274C18.6205 16.8931 18.5725 16.9766 18.55 17.0676V17.0723V17.0714C18.5422 17.108 18.5373 17.1455 18.5373 17.183C18.5373 17.3163 18.5931 17.4439 18.6909 17.5377L21.1074 19.8542C21.312 20.0484 21.6408 20.0484 21.8463 19.8552L21.8493 19.8523C22.0509 19.6553 22.0499 19.3401 21.8483 19.1449L19.4309 16.8274C19.2253 16.6332 18.8955 16.6332 18.6909 16.8274L18.689 16.8274ZM11.0744 9.52682C10.3365 10.2343 9.92147 11.1941 9.92147 12.1951C9.92147 13.1961 10.3364 14.1561 11.0744 14.8634C11.8124 15.5708 12.8136 15.9687 13.8578 15.9687C14.9011 15.9687 15.9024 15.5709 16.6402 14.8634C17.3791 14.156 17.7932 13.1961 17.7932 12.1951C17.7932 11.1941 17.3792 10.2342 16.6412 9.52682C15.9023 8.81939 14.901 8.42156 13.8578 8.42156C12.8135 8.42156 11.8123 8.81936 11.0744 9.52682ZM17.2207 15.0457L18.5195 16.2908H18.5185C18.4383 16.3348 18.3649 16.3902 18.2983 16.4531C18.2327 16.5159 18.176 16.5872 18.129 16.6642L16.8302 15.4191C16.8987 15.3609 16.9653 15.3009 17.0309 15.238C17.0964 15.1752 17.1591 15.1114 17.2198 15.0457H17.2207ZM10.6828 9.15261C11.5245 8.34571 12.6667 7.89254 13.8568 7.89254C15.0469 7.89254 16.1891 8.34571 17.0308 9.15261C17.7707 9.86285 18.2288 10.7983 18.3257 11.7976C18.4236 12.7968 18.1534 13.797 17.5623 14.6254L19.1596 16.1556V16.1566C19.4081 16.1782 19.6421 16.2832 19.8182 16.4531L20.1226 16.7449H21.9978V3.4791H0V16.7449H17.432L16.3916 15.7475C15.1496 16.5619 13.5641 16.7261 12.1693 16.1838C10.7746 15.6415 9.75578 14.4649 9.45732 13.051C9.15783 11.637 9.61893 10.1734 10.6828 9.15261ZM19.508 15.6923C19.3563 15.6923 19.233 15.5741 19.233 15.4286C19.233 15.2823 19.3563 15.164 19.508 15.164H20.5572C20.7099 15.164 20.8333 15.2823 20.8333 15.4286C20.8333 15.5741 20.7099 15.6923 20.5572 15.6923H19.508Z" fill="white"/>
</svg>
