<svg width="30" height="30" viewBox="0 0 30 30" fill="none" xmlns="http://www.w3.org/2000/svg">
<path d="M15.0015 0C23.286 0 30.0015 6.7155 30.0015 15C30.0015 23.2845 23.286 30 15.0015 30C12.3506 30.0046 9.74636 29.303 7.45649 27.9675L0.00748803 30L2.03549 22.548C0.698926 20.2574 -0.0031576 17.652 0.00148775 15C0.00148775 6.7155 6.71699 0 15.0015 0ZM9.88949 7.95L9.58949 7.962C9.39552 7.97536 9.20601 8.02631 9.03149 8.112C8.86885 8.20427 8.72033 8.31945 8.59049 8.454C8.41049 8.6235 8.30849 8.7705 8.19899 8.913C7.64417 9.63435 7.34545 10.52 7.34999 11.43C7.35299 12.165 7.54499 12.8805 7.84499 13.5495C8.45849 14.9025 9.46799 16.335 10.8 17.6625C11.121 17.982 11.436 18.303 11.775 18.6015C13.4301 20.0586 15.4024 21.1095 17.535 21.6705L18.387 21.801C18.6645 21.816 18.942 21.795 19.221 21.7815C19.6578 21.7585 20.0842 21.6402 20.4705 21.435C20.6668 21.3335 20.8584 21.2234 21.045 21.105C21.045 21.105 21.1085 21.062 21.2325 20.97C21.435 20.82 21.5595 20.7135 21.7275 20.538C21.8535 20.408 21.9585 20.257 22.0425 20.085C22.1595 19.8405 22.2765 19.374 22.3245 18.9855C22.3605 18.6885 22.35 18.5265 22.3455 18.426C22.3395 18.2655 22.206 18.099 22.0605 18.0285L21.1875 17.637C21.1875 17.637 19.8825 17.0685 19.0845 16.7055C19.001 16.6691 18.9115 16.6483 18.8205 16.644C18.7178 16.6333 18.6141 16.6447 18.5163 16.6776C18.4184 16.7105 18.3288 16.764 18.2535 16.8345C18.246 16.8315 18.1455 16.917 17.061 18.231C16.9987 18.3146 16.913 18.3779 16.8147 18.4126C16.7164 18.4473 16.61 18.452 16.509 18.426C16.4112 18.3999 16.3155 18.3669 16.2225 18.327C16.0365 18.249 15.972 18.219 15.8445 18.165C14.9833 17.7899 14.1861 17.2822 13.482 16.6605C13.293 16.4955 13.1175 16.3155 12.9375 16.1415C12.3474 15.5763 11.8331 14.937 11.4075 14.2395L11.319 14.097C11.2564 14.0007 11.205 13.8975 11.166 13.7895C11.109 13.569 11.2575 13.392 11.2575 13.392C11.2575 13.392 11.622 12.993 11.7915 12.777C11.9565 12.567 12.096 12.363 12.186 12.2175C12.363 11.9325 12.4185 11.64 12.3255 11.4135C11.9055 10.3875 11.4715 9.367 11.0235 8.352C10.935 8.151 10.6725 8.007 10.434 7.9785C10.353 7.9685 10.272 7.9605 10.191 7.9545C9.98958 7.94295 9.78763 7.94495 9.58649 7.9605L9.88949 7.95Z" fill="white"/>
</svg>
